<svg width="21" height="20" viewBox="0 0 21 20" fill="none" xmlns="http://www.w3.org/2000/svg">
<path d="M15.1876 11.812L17.3902 13.1254C17.8452 13.397 18.0801 13.9254 17.9759 14.4454C17.5501 16.5779 15.4085 17.9445 13.311 17.3687C8.36183 16.0104 4.49591 12.1562 3.13257 7.1962C2.55591 5.09786 3.92099 2.95451 6.05432 2.52785L6.06836 2.52536C6.5892 2.42119 7.12016 2.65702 7.391 3.11452L8.69349 5.3137C9.15682 6.0962 8.92669 7.10368 8.16919 7.60702L6.78512 8.52786C7.76179 10.867 9.6284 12.7412 11.9609 13.7162L12.8901 12.3287C13.3976 11.5729 14.406 11.3462 15.1876 11.812Z" fill="#4584FF"/>
</svg>
