<svg width="48" height="32" viewBox="0 0 48 32" fill="none" xmlns="http://www.w3.org/2000/svg">
<path d="M0.0878906 1.02283L16.5274 27.4115C17.6871 29.273 19.4526 30.69 21.5345 31.4302C23.6164 32.1704 25.8912 32.19 27.9858 31.4856L29.2225 31.0699L13.226 4.82707C11.9707 2.76779 10.0045 1.22583 7.6894 0.485132C5.37434 -0.255565 2.86632 -0.145131 0.627154 0.7961L0.0878906 1.02283Z" fill="#4584FF"/>
<path d="M16.7625 1.02285L26.2674 16.8746C27.5443 19.0043 29.5575 20.6063 31.9359 21.3854C34.3142 22.1645 36.8975 22.0682 39.2097 21.1143L29.3498 5.16964C28.084 3.12309 26.1265 1.58444 23.8234 0.82562C21.5202 0.0667958 19.0197 0.136654 16.7636 1.02285H16.7625Z" fill="#4584FF"/>
<path d="M40.8584 13.6124L36.1406 5.4876C35.9471 5.15434 35.8594 4.77133 35.889 4.38827C35.9186 4.0052 36.064 3.63976 36.3065 3.33935C37.7816 1.50417 41.4624 -1.65592 47.9131 1.29437L40.8584 13.6124Z" fill="#4584FF"/>
</svg>
