<svg width="24" height="24" viewBox="0 0 24 24" fill="none" xmlns="http://www.w3.org/2000/svg">
<g clip-path="url(#clip0_70_3162)">
<rect width="24" height="24" rx="12" fill="white"/>
<path fill-rule="evenodd" clip-rule="evenodd" d="M0 0H14.4V11.2H0V0Z" fill="#1A47B8"/>
<path fill-rule="evenodd" clip-rule="evenodd" d="M14.4 0V1.6H33.6V0H14.4ZM14.4 3.2V4.8H33.6V3.2H14.4ZM14.4 6.4V8H33.6V6.4H14.4ZM14.4 9.6V11.2H33.6V9.6H14.4ZM0 12.8V14.4H33.6V12.8H0ZM0 16V17.6H33.6V16H0ZM0 19.2V20.8H33.6V19.2H0ZM0 22.4V24H33.6V22.4H0Z" fill="#FF1515"/>
<path fill-rule="evenodd" clip-rule="evenodd" d="M1.59961 1.59961V3.19961H3.19961V1.59961H1.59961ZM4.79961 1.59961V3.19961H6.39961V1.59961H4.79961ZM7.99961 1.59961V3.19961H9.59961V1.59961H7.99961ZM11.1996 1.59961V3.19961H12.7996V1.59961H11.1996ZM9.59961 3.19961V4.79961H11.1996V3.19961H9.59961ZM6.39961 3.19961V4.79961H7.99961V3.19961H6.39961ZM3.19961 3.19961V4.79961H4.79961V3.19961H3.19961ZM1.59961 4.79961V6.39961H3.19961V4.79961H1.59961ZM4.79961 4.79961V6.39961H6.39961V4.79961H4.79961ZM7.99961 4.79961V6.39961H9.59961V4.79961H7.99961ZM11.1996 4.79961V6.39961H12.7996V4.79961H11.1996ZM1.59961 7.99961V9.59961H3.19961V7.99961H1.59961ZM4.79961 7.99961V9.59961H6.39961V7.99961H4.79961ZM7.99961 7.99961V9.59961H9.59961V7.99961H7.99961ZM11.1996 7.99961V9.59961H12.7996V7.99961H11.1996ZM9.59961 6.39961V7.99961H11.1996V6.39961H9.59961ZM6.39961 6.39961V7.99961H7.99961V6.39961H6.39961ZM3.19961 6.39961V7.99961H4.79961V6.39961H3.19961Z" fill="white"/>
</g>
<defs>
<clipPath id="clip0_70_3162">
<rect width="24" height="24" rx="12" fill="white"/>
</clipPath>
</defs>
</svg>
