<svg width="16" height="16" viewBox="0 0 16 16" fill="none" xmlns="http://www.w3.org/2000/svg">
<path d="M8.11085 0.5C8.11335 0.5 8.11669 0.5 8.11919 0.5C8.38502 0.5 8.5 0.827505 8.3 1.00001C6.89917 2.20584 6.12919 4.10166 6.52169 6.14499C6.95753 8.41249 8.82336 10.1383 11.1442 10.4483C12.61 10.6442 13.9675 10.2733 15.0467 9.53249C15.2658 9.38166 15.5567 9.58084 15.4909 9.83584C14.5709 13.4325 11.0217 15.9958 6.97251 15.4183C3.60918 14.9383 0.953357 12.2392 0.555024 8.9125C0.346691 7.1775 0.74084 5.54251 1.55834 4.18334C2.88334 1.97834 5.32168 0.5 8.11085 0.5Z" fill="#626262"/>
</svg>
