 <svg width="26" height="26" viewBox="0 0 26 26" fill="none" xmlns="http://www.w3.org/2000/svg">
<path d="M14.1643 21.751C14.2533 21.906 14.2523 22.098 14.1623 22.252C13.7063 23.033 12.8983 23.5 12.0003 23.5C11.1023 23.5 10.2943 23.033 9.83829 22.252C9.74829 22.098 9.74729 21.906 9.83629 21.751C9.92529 21.596 10.0903 21.5 10.2703 21.5H13.7303C13.9093 21.5 14.0743 21.596 14.1643 21.751ZM20.3913 19.688C20.3723 19.665 18.4953 17.282 18.4953 14.5V10.995C18.4953 7.414 15.5813 4.5 12.0003 4.5C8.41929 4.5 5.50529 7.414 5.50529 10.995V14.5C5.50529 17.281 3.6293 19.664 3.6093 19.688C3.4893 19.838 3.4663 20.044 3.5493 20.217C3.6323 20.39 3.80729 20.5 3.99929 20.5H19.9993C20.1913 20.5 20.3663 20.39 20.4493 20.217C20.5343 20.043 20.5103 19.838 20.3913 19.688Z" fill="white"/>
<circle cx="19" cy="7" r="4" fill="#FF1515" stroke="#0D1116" stroke-width="2"/>
</svg>
