<svg width="18" height="18" viewBox="0 0 18 18" fill="none" xmlns="http://www.w3.org/2000/svg">
<path d="M12.75 9C12.75 11.0675 11.0675 12.75 9 12.75C6.9325 12.75 5.25 11.0675 5.25 9C5.25 6.9325 6.9325 5.25 9 5.25C11.0675 5.25 12.75 6.9325 12.75 9ZM9.625 3.16667V1.5C9.625 1.155 9.345 0.875 9 0.875C8.655 0.875 8.375 1.155 8.375 1.5V3.16667C8.375 3.51167 8.655 3.79167 9 3.79167C9.345 3.79167 9.625 3.51167 9.625 3.16667ZM9.625 16.5V14.8333C9.625 14.4883 9.345 14.2083 9 14.2083C8.655 14.2083 8.375 14.4883 8.375 14.8333V16.5C8.375 16.845 8.655 17.125 9 17.125C9.345 17.125 9.625 16.845 9.625 16.5ZM3.79167 9C3.79167 8.655 3.51167 8.375 3.16667 8.375H1.5C1.155 8.375 0.875 8.655 0.875 9C0.875 9.345 1.155 9.625 1.5 9.625H3.16667C3.51167 9.625 3.79167 9.345 3.79167 9ZM17.125 9C17.125 8.655 16.845 8.375 16.5 8.375H14.8333C14.4883 8.375 14.2083 8.655 14.2083 9C14.2083 9.345 14.4883 9.625 14.8333 9.625H16.5C16.845 9.625 17.125 9.345 17.125 9ZM5.31749 5.31749C5.56166 5.07333 5.56166 4.67749 5.31749 4.43332L4.13916 3.25499C3.89499 3.01082 3.49916 3.01082 3.25499 3.25499C3.01082 3.49916 3.01082 3.89499 3.25499 4.13916L4.43332 5.31749C4.55499 5.43916 4.71499 5.50083 4.87499 5.50083C5.03499 5.50083 5.19499 5.43916 5.31749 5.31749ZM14.745 14.745C14.9892 14.5008 14.9892 14.105 14.745 13.8608L13.5667 12.6825C13.3225 12.4383 12.9267 12.4383 12.6825 12.6825C12.4383 12.9267 12.4383 13.3225 12.6825 13.5667L13.8608 14.745C13.9825 14.8667 14.1425 14.9283 14.3025 14.9283C14.4625 14.9283 14.6233 14.8675 14.745 14.745ZM4.13916 14.745L5.31749 13.5667C5.56166 13.3225 5.56166 12.9267 5.31749 12.6825C5.07333 12.4383 4.67749 12.4383 4.43332 12.6825L3.25499 13.8608C3.01082 14.105 3.01082 14.5008 3.25499 14.745C3.37666 14.8667 3.53666 14.9283 3.69666 14.9283C3.85666 14.9283 4.01666 14.8675 4.13916 14.745ZM13.5667 5.31749L14.745 4.13916C14.9892 3.89499 14.9892 3.49916 14.745 3.25499C14.5008 3.01082 14.105 3.01082 13.8608 3.25499L12.6825 4.43332C12.4383 4.67749 12.4383 5.07333 12.6825 5.31749C12.8042 5.43916 12.9642 5.50083 13.1242 5.50083C13.2842 5.50083 13.4442 5.43916 13.5667 5.31749Z" fill="#4584FF"/>
</svg>
