<svg width="24" height="24" viewBox="0 0 24 24" fill="none" xmlns="http://www.w3.org/2000/svg">
<g id="bell">
<path id="bell_2" d="M14.1643 19.751C14.2533 19.906 14.2523 20.098 14.1623 20.252C13.7063 21.033 12.8983 21.5 12.0003 21.5C11.1023 21.5 10.2943 21.033 9.83829 20.252C9.74829 20.098 9.74729 19.906 9.83629 19.751C9.92529 19.596 10.0903 19.5 10.2703 19.5H13.7303C13.9093 19.5 14.0743 19.596 14.1643 19.751ZM20.3913 17.688C20.3723 17.665 18.4953 15.282 18.4953 12.5V8.995C18.4953 5.414 15.5813 2.5 12.0003 2.5C8.41929 2.5 5.50529 5.414 5.50529 8.995V12.5C5.50529 15.281 3.6293 17.664 3.6093 17.688C3.4893 17.838 3.4663 18.044 3.5493 18.217C3.6323 18.39 3.80729 18.5 3.99929 18.5H19.9993C20.1913 18.5 20.3663 18.39 20.4493 18.217C20.5343 18.043 20.5103 17.838 20.3913 17.688Z" fill="#091731"/>
</g>
</svg>
