<svg width="24" height="24" viewBox="0 0 24 24" fill="none" xmlns="http://www.w3.org/2000/svg">
<g id="box-check">
<path id="box-check_2" d="M9.47998 11.1505C9.72998 11.2605 9.99 11.3306 10.25 11.3906V20.9105C10.09 20.8705 9.93003 20.8105 9.78003 20.7405L3.78003 18.0705C2.70003 17.5905 2 16.5205 2 15.3305V8.67055C2 8.40055 2.03999 8.13054 2.10999 7.88054L9.47998 11.1505ZM19.13 6.56053C18.87 6.30053 18.57 6.08053 18.22 5.93053L12.22 3.26055C11.44 2.91055 10.56 2.91055 9.78003 3.26055L3.78003 5.93053C3.43003 6.08053 3.13 6.30053 2.87 6.56053L10.08 9.77053C10.66 10.0305 11.33 10.0305 11.92 9.77053L19.13 6.56053ZM12.559 16.1765C12.927 13.5955 15.1889 11.5955 17.7939 11.5045C18.4299 11.4825 19.036 11.5636 19.604 11.7396C19.801 11.8006 20 11.6665 20 11.4605V8.67055C20 8.40055 19.96 8.13054 19.89 7.88054L12.52 11.1505C12.27 11.2505 12.01 11.3306 11.75 11.3906V20.9105C11.769 20.9225 11.769 20.9225 11.788 20.9345L13.192 20.3035C13.359 20.2285 13.414 20.0255 13.317 19.8695C12.663 18.8175 12.363 17.5485 12.559 16.1765ZM22 17.0005C22 19.2105 20.21 21.0005 18 21.0005C15.79 21.0005 14 19.2105 14 17.0005C14 14.7905 15.79 13.0005 18 13.0005C20.21 13.0005 22 14.7905 22 17.0005ZM19.6 15.8105C19.41 15.6205 19.09 15.6205 18.9 15.8105L17.58 17.1205L17.1 16.6505C16.91 16.4505 16.59 16.4505 16.4 16.6505C16.2 16.8405 16.2 17.1605 16.4 17.3505L17.23 18.1905C17.32 18.2805 17.45 18.3305 17.58 18.3305C17.72 18.3305 17.8399 18.2805 17.9399 18.1905L19.6 16.5205C19.8 16.3205 19.8 16.0105 19.6 15.8105Z" fill="white"/>
</g>
</svg>
