<svg width="24" height="24" viewBox="0 0 24 24" fill="none" xmlns="http://www.w3.org/2000/svg">
<g id="box-check">
<path id="box-check_2" d="M9.47998 11.1496C9.72998 11.2596 9.99 11.3296 10.25 11.3896V20.9096C10.09 20.8696 9.93003 20.8096 9.78003 20.7396L3.78003 18.0696C2.70003 17.5896 2 16.5195 2 15.3295V8.66957C2 8.39957 2.03999 8.12957 2.10999 7.87957L9.47998 11.1496ZM19.13 6.55956C18.87 6.29956 18.57 6.07955 18.22 5.92955L12.22 3.25957C11.44 2.90957 10.56 2.90957 9.78003 3.25957L3.78003 5.92955C3.43003 6.07955 3.13 6.29956 2.87 6.55956L10.08 9.76955C10.66 10.0295 11.33 10.0295 11.92 9.76955L19.13 6.55956ZM12.559 16.1756C12.927 13.5946 15.1889 11.5946 17.7939 11.5036C18.4299 11.4816 19.036 11.5626 19.604 11.7386C19.801 11.7996 20 11.6656 20 11.4596V8.66957C20 8.39957 19.96 8.12957 19.89 7.87957L12.52 11.1496C12.27 11.2496 12.01 11.3296 11.75 11.3896V20.9096C11.769 20.9216 11.769 20.9216 11.788 20.9336L13.192 20.3026C13.359 20.2276 13.414 20.0245 13.317 19.8685C12.663 18.8165 12.363 17.5476 12.559 16.1756ZM22 16.9996C22 19.2096 20.21 20.9996 18 20.9996C15.79 20.9996 14 19.2096 14 16.9996C14 14.7896 15.79 12.9996 18 12.9996C20.21 12.9996 22 14.7896 22 16.9996ZM19.6 15.8096C19.41 15.6196 19.09 15.6196 18.9 15.8096L17.58 17.1196L17.1 16.6496C16.91 16.4496 16.59 16.4496 16.4 16.6496C16.2 16.8396 16.2 17.1596 16.4 17.3496L17.23 18.1896C17.32 18.2796 17.45 18.3295 17.58 18.3295C17.72 18.3295 17.8399 18.2796 17.9399 18.1896L19.6 16.5195C19.8 16.3195 19.8 16.0096 19.6 15.8096Z" fill="#091731"/>
</g>
</svg>
