<svg width="24" height="24" viewBox="0 0 24 24" fill="none" xmlns="http://www.w3.org/2000/svg">
<g id="chat-text">
<path id="chat-text_2" d="M12.0015 3C7.03149 3 3.00246 7.02902 3.00246 11.999C3.00246 13.339 3.30254 14.619 3.83254 15.758C4.04254 16.198 4.0426 16.708 3.8926 17.178L3.05251 19.678C2.79251 20.458 3.54253 21.208 4.32253 20.948L6.82253 20.108C7.29253 19.958 7.80245 19.958 8.24245 20.168C9.38245 20.698 10.6625 20.998 12.0025 20.998C16.9725 20.998 21.0015 16.969 21.0015 11.999C21.0005 7.02902 16.9715 3 12.0015 3ZM13.0005 14.75H8.00051C7.58651 14.75 7.25051 14.414 7.25051 14C7.25051 13.586 7.58651 13.25 8.00051 13.25H13.0005C13.4145 13.25 13.7505 13.586 13.7505 14C13.7505 14.414 13.4145 14.75 13.0005 14.75ZM16.0005 10.75H8.00051C7.58651 10.75 7.25051 10.414 7.25051 10C7.25051 9.586 7.58651 9.25 8.00051 9.25H16.0005C16.4145 9.25 16.7505 9.586 16.7505 10C16.7505 10.414 16.4145 10.75 16.0005 10.75Z" fill="#091731"/>
</g>
</svg>
