<svg width="24" height="24" viewBox="0 0 24 24" fill="none" xmlns="http://www.w3.org/2000/svg">
<g id="crown">
<path id="crown_2" d="M19.9005 19.4205C19.9515 19.7235 19.7175 20.0005 19.4105 20.0005H4.59054C4.28254 20.0005 4.04849 19.7235 4.10049 19.4205L4.50851 17.0005C4.53251 16.8565 4.65753 16.7505 4.80453 16.7505H19.1975C19.3435 16.7505 19.4685 16.8565 19.4935 17.0005L19.9005 19.4205ZM19.4905 7.53049L16.9905 9.0405C16.5385 9.3135 15.9515 9.18148 15.6605 8.74048L12.8215 4.4415C12.4335 3.8535 11.5705 3.8525 11.1805 4.4405L8.34054 8.73051C8.05054 9.18051 7.46051 9.31049 7.00051 9.03049L4.51052 7.53049C3.77052 7.08049 2.85053 7.7205 3.02053 8.5705L4.46749 15.0165C4.49849 15.1535 4.61952 15.2505 4.76052 15.2505H19.2405C19.3805 15.2505 19.5025 15.1535 19.5335 15.0165L20.9805 8.5705C21.1505 7.7205 20.2305 7.08049 19.4905 7.53049Z" fill="#091731"/>
</g>
</svg>
