<svg width="24" height="24" viewBox="0 0 24 24" fill="none" xmlns="http://www.w3.org/2000/svg">
<g id="delivery-cart-arrow-down">
<path id="delivery-cart-arrow-down_2" d="M21.7387 16.6499C21.8107 17.0579 21.5386 17.4469 21.1306 17.5189L10.4606 19.3969C10.2686 20.5859 9.24362 21.4999 8.00062 21.4999C6.62162 21.4999 5.50062 20.3779 5.50062 18.9999C5.50062 17.8829 6.24167 16.9459 7.25367 16.6259L5.17164 4.7799C5.05264 4.1029 4.39964 3.65191 3.71864 3.76791L3.12465 3.86891C2.72465 3.93591 2.32863 3.66291 2.26063 3.25491C2.19163 2.84591 2.46565 2.4589 2.87465 2.3899L3.46461 2.2899C4.94661 2.0309 6.38557 3.0299 6.64857 4.5189L8.7776 16.6349C9.4216 16.8469 9.94759 17.3089 10.2416 17.9109L20.8706 16.0399C21.2796 15.9689 21.6677 16.2419 21.7387 16.6499ZM9.57264 9.0879C9.20964 7.0289 10.0077 5.8889 12.0667 5.5259L15.7006 4.8849C17.7596 4.5219 18.8996 5.3199 19.2626 7.3789L19.9036 11.0129C20.2666 13.0719 19.4687 14.2119 17.4097 14.5749L13.7756 15.2159C11.7166 15.5789 10.5766 14.7809 10.2136 12.7219L9.57264 9.0879ZM12.9146 11.4169L14.6436 12.6349C14.6766 12.6579 14.7137 12.6699 14.7487 12.6869C14.7777 12.7009 14.8036 12.7189 14.8346 12.7289C14.9096 12.7549 14.9866 12.7689 15.0646 12.7699C15.0676 12.7699 15.0706 12.7719 15.0746 12.7719C15.1176 12.7719 15.1616 12.7679 15.2056 12.7599C15.2526 12.7509 15.2906 12.7259 15.3336 12.7089C15.3706 12.6949 15.4067 12.6869 15.4417 12.6669C15.5347 12.6139 15.6156 12.5469 15.6776 12.4629C15.6806 12.4589 15.6856 12.4579 15.6886 12.4529L16.9157 10.7139C17.1537 10.3749 17.0726 9.90691 16.7346 9.66891C16.3936 9.42991 15.9276 9.51091 15.6886 9.84991L15.5006 10.1169L15.1187 7.9519C15.0477 7.5449 14.6596 7.2719 14.2506 7.3439C13.8426 7.4159 13.5696 7.8049 13.6426 8.2129L14.0216 10.3599L13.7807 10.1899C13.4387 9.95091 12.9736 10.0329 12.7346 10.3709C12.4956 10.7099 12.5766 11.1779 12.9146 11.4169Z" fill="#091731"/>
</g>
</svg>
