<svg width="24" height="24" viewBox="0 0 24 24" fill="none" xmlns="http://www.w3.org/2000/svg">
<g id="delivery-cart-arrow-down">
<path id="delivery-cart-arrow-down_2" d="M21.7387 16.6509C21.8107 17.0589 21.5386 17.4479 21.1306 17.5199L10.4606 19.3979C10.2686 20.5869 9.24362 21.5009 8.00062 21.5009C6.62162 21.5009 5.50062 20.3789 5.50062 19.0009C5.50062 17.8839 6.24167 16.9469 7.25367 16.6269L5.17164 4.78088C5.05264 4.10388 4.39964 3.65288 3.71864 3.76888L3.12465 3.86988C2.72465 3.93688 2.32863 3.66388 2.26063 3.25588C2.19163 2.84688 2.46565 2.45988 2.87465 2.39088L3.46461 2.29087C4.94661 2.03187 6.38557 3.03088 6.64857 4.51988L8.7776 16.6359C9.4216 16.8479 9.94759 17.3099 10.2416 17.9119L20.8706 16.0409C21.2796 15.9699 21.6677 16.2429 21.7387 16.6509ZM9.57264 9.08888C9.20964 7.02988 10.0077 5.88988 12.0667 5.52688L15.7006 4.88587C17.7596 4.52287 18.8996 5.32088 19.2626 7.37988L19.9036 11.0139C20.2666 13.0729 19.4687 14.2129 17.4097 14.5759L13.7756 15.2169C11.7166 15.5799 10.5766 14.7819 10.2136 12.7229L9.57264 9.08888ZM12.9146 11.4179L14.6436 12.6359C14.6766 12.6589 14.7137 12.6709 14.7487 12.6879C14.7777 12.7019 14.8036 12.7199 14.8346 12.7299C14.9096 12.7559 14.9866 12.7699 15.0646 12.7709C15.0676 12.7709 15.0706 12.7729 15.0746 12.7729C15.1176 12.7729 15.1616 12.7689 15.2056 12.7609C15.2526 12.7519 15.2906 12.7269 15.3336 12.7099C15.3706 12.6959 15.4067 12.6879 15.4417 12.6679C15.5347 12.6149 15.6156 12.5479 15.6776 12.4639C15.6806 12.4599 15.6856 12.4589 15.6886 12.4539L16.9157 10.7149C17.1537 10.3759 17.0726 9.90789 16.7346 9.66989C16.3936 9.43089 15.9276 9.51189 15.6886 9.85089L15.5006 10.1179L15.1187 7.95288C15.0477 7.54588 14.6596 7.27287 14.2506 7.34487C13.8426 7.41687 13.5696 7.80588 13.6426 8.21388L14.0216 10.3609L13.7807 10.1909C13.4387 9.95188 12.9736 10.0339 12.7346 10.3719C12.4956 10.7109 12.5766 11.1789 12.9146 11.4179Z" fill="white"/>
</g>
</svg>
