<svg width="24" height="24" viewBox="0 0 24 24" fill="none" xmlns="http://www.w3.org/2000/svg">
<g id="edit">
<path id="edit_2" d="M16 21.7497H6C3.582 21.7497 2.25 20.4177 2.25 17.9997V7.99973C2.25 5.58173 3.582 4.24973 6 4.24973H9C9.414 4.24973 9.75 4.58573 9.75 4.99973C9.75 5.41373 9.414 5.74973 9 5.74973H6C4.423 5.74973 3.75 6.42273 3.75 7.99973V17.9997C3.75 19.5767 4.423 20.2497 6 20.2497H16C17.577 20.2497 18.25 19.5767 18.25 17.9997V14.9997C18.25 14.5857 18.586 14.2497 19 14.2497C19.414 14.2497 19.75 14.5857 19.75 14.9997V17.9997C19.75 20.4177 18.418 21.7497 16 21.7497ZM20.58 5.02973L18.97 3.41975C18.4 2.85975 17.49 2.85972 16.92 3.42972L15.57 4.78974L19.21 8.42972L20.57 7.07972C21.14 6.50972 21.14 5.59973 20.58 5.02973ZM14.51 5.84974L8 12.3897V15.9997H11.61L18.15 9.48972L14.51 5.84974Z" fill="#091731"/>
</g>
</svg>
