<svg width="24" height="24" viewBox="0 0 24 24" fill="none" xmlns="http://www.w3.org/2000/svg">
<g id="edit">
<path id="edit_2" d="M16 21.7507H6C3.582 21.7507 2.25 20.4187 2.25 18.0007V8.00071C2.25 5.58271 3.582 4.25071 6 4.25071H9C9.414 4.25071 9.75 4.58671 9.75 5.00071C9.75 5.41471 9.414 5.75071 9 5.75071H6C4.423 5.75071 3.75 6.42371 3.75 8.00071V18.0007C3.75 19.5777 4.423 20.2507 6 20.2507H16C17.577 20.2507 18.25 19.5777 18.25 18.0007V15.0007C18.25 14.5867 18.586 14.2507 19 14.2507C19.414 14.2507 19.75 14.5867 19.75 15.0007V18.0007C19.75 20.4187 18.418 21.7507 16 21.7507ZM20.58 5.03071L18.97 3.42072C18.4 2.86072 17.49 2.8607 16.92 3.4307L15.57 4.79072L19.21 8.4307L20.57 7.08069C21.14 6.51069 21.14 5.60071 20.58 5.03071ZM14.51 5.85071L8 12.3907V16.0007H11.61L18.15 9.4907L14.51 5.85071Z" fill="white"/>
</g>
</svg>
