<svg width="24" height="24" viewBox="0 0 24 24" fill="none" xmlns="http://www.w3.org/2000/svg">
<g id="envelopes">
<path id="envelopes_2" d="M21.001 6.66905V14.3291C21.001 15.4351 20.6549 16.202 19.9629 16.619C19.8229 16.703 19.501 16.6791 19.501 16.3441V9.66806C19.501 7.05806 17.9411 5.49805 15.3311 5.49805H5.6731C5.2951 5.49805 5.30089 5.16506 5.38989 5.02106C5.80889 4.33906 6.5729 3.99805 7.6709 3.99805H18.3311C20.1111 3.99905 21.001 4.88905 21.001 6.66905ZM18.001 9.66606V17.3331C18.001 19.1111 17.112 20.0001 15.334 20.0001H4.66699C2.88899 20.0001 2 19.1111 2 17.3331V9.66606C2 7.88806 2.88899 6.99905 4.66699 6.99905H15.334C17.112 6.99905 18.001 7.88806 18.001 9.66606ZM15.741 10.2911C15.498 9.95706 15.0299 9.88106 14.6929 10.1251L10.1079 13.4591C10.0439 13.5061 9.95807 13.5061 9.89307 13.4591L5.30786 10.1251C4.97086 9.88106 4.50301 9.95706 4.26001 10.2911C4.01601 10.6261 4.09005 11.0951 4.42505 11.3391L9.01001 14.673C9.30601 14.889 9.654 14.996 10 14.996C10.346 14.996 10.694 14.8881 10.99 14.673L15.575 11.3391C15.911 11.0951 15.985 10.6261 15.741 10.2911Z" fill="white"/>
</g>
</svg>
