<svg width="24" height="24" viewBox="0 0 24 24" fill="none" xmlns="http://www.w3.org/2000/svg">
<g id="envelopes">
<path id="envelopes_2" d="M21.001 6.67003V14.33C21.001 15.436 20.6549 16.203 19.9629 16.62C19.8229 16.704 19.501 16.68 19.501 16.345V9.66904C19.501 7.05904 17.9411 5.49902 15.3311 5.49902H5.6731C5.2951 5.49902 5.30089 5.16603 5.38989 5.02203C5.80889 4.34003 6.5729 3.99902 7.6709 3.99902H18.3311C20.1111 4.00002 21.001 4.89003 21.001 6.67003ZM18.001 9.66704V17.334C18.001 19.112 17.112 20.001 15.334 20.001H4.66699C2.88899 20.001 2 19.112 2 17.334V9.66704C2 7.88904 2.88899 7.00003 4.66699 7.00003H15.334C17.112 7.00003 18.001 7.88904 18.001 9.66704ZM15.741 10.292C15.498 9.95804 15.0299 9.88204 14.6929 10.126L10.1079 13.46C10.0439 13.507 9.95807 13.507 9.89307 13.46L5.30786 10.126C4.97086 9.88204 4.50301 9.95804 4.26001 10.292C4.01601 10.627 4.09005 11.096 4.42505 11.34L9.01001 14.674C9.30601 14.89 9.654 14.997 10 14.997C10.346 14.997 10.694 14.889 10.99 14.674L15.575 11.34C15.911 11.096 15.985 10.627 15.741 10.292Z" fill="#091731"/>
</g>
</svg>
