<svg width="20" height="20" viewBox="0 0 20 20" fill="none" xmlns="http://www.w3.org/2000/svg">
<g id="grid">
<path id="combo shape" fill-rule="evenodd" clip-rule="evenodd" d="M2 0C0.895431 0 0 0.895431 0 2V6C0 7.10457 0.895431 8 2 8H6C7.10457 8 8 7.10457 8 6V2C8 0.895431 7.10457 0 6 0H2ZM14 0C12.8954 0 12 0.895431 12 2V6C12 7.10457 12.8954 8 14 8H18C19.1046 8 20 7.10457 20 6V2C20 0.895431 19.1046 0 18 0H14ZM0 14C0 12.8954 0.895431 12 2 12H6C7.10457 12 8 12.8954 8 14V18C8 19.1046 7.10457 20 6 20H2C0.895431 20 0 19.1046 0 18V14ZM14 12C12.8954 12 12 12.8954 12 14V18C12 19.1046 12.8954 20 14 20H18C19.1046 20 20 19.1046 20 18V14C20 12.8954 19.1046 12 18 12H14Z" fill="#091731"/>
</g>
</svg>
