<svg width="14" height="19" viewBox="0 0 14 19" fill="none" xmlns="http://www.w3.org/2000/svg">
<path d="M10.3795 14.9703C7.81355 16.8143 4.76554 16.1083 3.02054 15.4333C2.28154 17.0333 2.03256 18.1303 2.02756 18.1553C1.95256 18.5083 1.64053 18.7493 1.29453 18.7493C1.24353 18.7493 1.19156 18.7443 1.13956 18.7333C0.73456 18.6483 0.47552 18.2513 0.56052 17.8463C0.613519 17.5923 1.85657 11.9303 7.51657 7.09033C5.31357 8.10933 2.30155 10.4183 0.780551 13.9503C-0.529449 11.3303 -0.549475 6.48031 3.69052 4.19031C5.48052 3.23031 7.29056 3.04028 9.48056 2.29028C11.0606 1.74028 11.9905 0.640332 12.3705 0.0903323C12.4605 -0.0496677 12.6605 -0.0196897 12.7105 0.13031C13.4095 2.02031 16.2196 10.7703 10.3795 14.9703Z" fill="#091731"/>
</svg>
