<svg width="24" height="24" viewBox="0 0 24 24" fill="none" xmlns="http://www.w3.org/2000/svg">
<g id="leaf">
<path id="leaf_2" d="M15.3795 17.9703C12.8135 19.8143 9.76554 19.1083 8.02054 18.4333C7.28154 20.0333 7.03256 21.1303 7.02756 21.1553C6.95256 21.5083 6.64053 21.7493 6.29453 21.7493C6.24353 21.7493 6.19156 21.7443 6.13956 21.7333C5.73456 21.6483 5.47552 21.2513 5.56052 20.8463C5.61352 20.5923 6.85657 14.9303 12.5166 10.0903C10.3136 11.1093 7.30155 13.4183 5.78055 16.9503C4.47055 14.3303 4.45052 9.48031 8.69052 7.19031C10.4805 6.23031 12.2906 6.04028 14.4806 5.29028C16.0606 4.74028 16.9905 3.64033 17.3705 3.09033C17.4605 2.95033 17.6605 2.98031 17.7105 3.13031C18.4095 5.02031 21.2196 13.7703 15.3795 17.9703Z" fill="white"/>
</g>
</svg>
