<svg width="24" height="24" viewBox="0 0 24 24" fill="none" xmlns="http://www.w3.org/2000/svg">
<g id="line-chart-dots">
<path id="line-chart-dots_2" d="M23.0206 9C23.0206 10.104 22.1246 11 21.0206 11C20.7386 11 20.4706 10.94 20.2266 10.835L16.8556 14.2061C16.9606 14.4501 17.0216 14.717 17.0216 15C17.0216 16.104 16.1256 17 15.0216 17C13.9176 17 13.0166 16.104 13.0166 15C13.0166 14.727 13.0716 14.467 13.1706 14.229L9.78758 10.8459C9.55158 10.9439 9.29258 10.999 9.02158 10.999C8.73958 10.999 8.47158 10.939 8.22758 10.834L4.85658 14.2051C4.96158 14.4491 5.02258 14.716 5.02258 14.999C5.02258 16.103 4.12658 16.999 3.02258 16.999C1.91858 16.999 1.01758 16.103 1.01758 14.999C1.01758 13.895 1.90757 12.999 3.01257 12.999H3.02258C3.29458 12.999 3.55257 13.0541 3.78857 13.1521L7.17258 9.76807C7.07358 9.53107 7.01758 9.27102 7.01758 8.99902C7.01758 7.89502 7.90757 6.99902 9.01257 6.99902H9.02258C10.1266 6.99902 11.0226 7.89502 11.0226 8.99902C11.0226 9.28102 10.9626 9.54897 10.8566 9.79297L14.2246 13.1609C14.4656 13.0569 14.7316 12.999 15.0116 12.999H15.0216C15.2936 12.999 15.5516 13.0541 15.7876 13.1521L19.1716 9.76807C19.0726 9.53107 19.0166 9.27102 19.0166 8.99902C19.0166 7.89502 19.9066 6.99902 21.0116 6.99902H21.0216C22.1256 7.00002 23.0206 7.896 23.0206 9Z" fill="#091731"/>
</g>
</svg>
