<svg width="24" height="24" viewBox="0 0 24 24" fill="none" xmlns="http://www.w3.org/2000/svg">
<g id="line-chart-dots">
<path id="line-chart-dots_2" d="M23.0206 9.00098C23.0206 10.105 22.1246 11.001 21.0206 11.001C20.7386 11.001 20.4706 10.9409 20.2266 10.8359L16.8556 14.207C16.9606 14.451 17.0216 14.718 17.0216 15.001C17.0216 16.105 16.1256 17.001 15.0216 17.001C13.9176 17.001 13.0166 16.105 13.0166 15.001C13.0166 14.728 13.0716 14.468 13.1706 14.23L9.78758 10.8469C9.55158 10.9449 9.29258 11 9.02158 11C8.73958 11 8.47158 10.94 8.22758 10.835L4.85658 14.2061C4.96158 14.4501 5.02258 14.717 5.02258 15C5.02258 16.104 4.12658 17 3.02258 17C1.91858 17 1.01758 16.104 1.01758 15C1.01758 13.896 1.90757 13 3.01257 13H3.02258C3.29458 13 3.55257 13.0551 3.78857 13.1531L7.17258 9.76904C7.07358 9.53204 7.01758 9.272 7.01758 9C7.01758 7.896 7.90757 7 9.01257 7H9.02258C10.1266 7 11.0226 7.896 11.0226 9C11.0226 9.282 10.9626 9.54995 10.8566 9.79395L14.2246 13.1619C14.4656 13.0579 14.7316 13 15.0116 13H15.0216C15.2936 13 15.5516 13.0551 15.7876 13.1531L19.1716 9.76904C19.0726 9.53204 19.0166 9.272 19.0166 9C19.0166 7.896 19.9066 7 21.0116 7H21.0216C22.1256 7.001 23.0206 7.89698 23.0206 9.00098Z" fill="white"/>
</g>
</svg>
