<svg width="24" height="24" viewBox="0 0 24 24" fill="none" xmlns="http://www.w3.org/2000/svg">
<g id="more-horizontal">
<path id="more-horizontal_2" d="M4.02063 14C2.91663 14 2.01562 13.104 2.01562 12C2.01562 10.896 2.90562 10 4.01062 10H4.02063C5.12463 10 6.02063 10.896 6.02063 12C6.02063 13.104 5.12563 14 4.02063 14ZM14.0206 12C14.0206 10.896 13.1246 10 12.0206 10H12.0106C10.9066 10 10.0156 10.896 10.0156 12C10.0156 13.104 10.9156 14 12.0206 14C13.1256 14 14.0206 13.104 14.0206 12ZM22.0206 12C22.0206 10.896 21.1246 10 20.0206 10H20.0106C18.9066 10 18.0156 10.896 18.0156 12C18.0156 13.104 18.9156 14 20.0206 14C21.1256 14 22.0206 13.104 22.0206 12Z" fill="#091731"/>
</g>
</svg>
