<svg width="24" height="24" viewBox="0 0 24 24" fill="none" xmlns="http://www.w3.org/2000/svg">
<g id="papers">
<path id="papers_2" d="M15.2613 20.3918C14.9173 20.5558 14.5164 20.6779 14.0604 20.7599L7.49029 21.9099C5.30029 22.2999 4.01018 21.3999 3.63018 19.2099L2.09039 10.4599C1.70039 8.26987 2.60034 6.97988 4.79034 6.58988L6.58819 6.27384C6.79319 6.23784 6.97236 6.41686 6.93536 6.62186L5.75933 13.2799C5.22933 16.3099 6.65925 18.3499 9.67925 18.8799C9.67925 18.8799 14.8983 19.7969 15.1673 19.8489C15.4993 19.9088 15.5523 20.2628 15.2613 20.3918ZM19.2093 3.24387L12.6434 2.08585C10.4554 1.69985 9.1673 2.60083 8.7813 4.78983L8.58038 5.92783L7.23736 13.5439C6.85136 15.7329 7.75222 17.0199 9.94122 17.4059L16.5064 18.5639C16.5874 18.5779 16.6574 18.5778 16.7354 18.5888C18.7794 18.8698 19.9962 17.9678 20.3682 15.8598L21.9124 7.10587C22.2994 4.91787 21.3983 3.62987 19.2093 3.24387Z" fill="#091731"/>
</g>
</svg>
