<svg width="24" height="24" viewBox="0 0 24 24" fill="none" xmlns="http://www.w3.org/2000/svg">
<g id="paperclip">
<path id="paperclip_2" d="M10.3057 21.9991C8.32773 21.9991 6.48672 21.244 5.11872 19.872C2.23572 16.981 2.27891 12.2341 5.21491 9.28906L10.9429 3.54504C11.9379 2.54704 13.2598 1.99805 14.6678 1.99805C16.0758 1.99805 17.3969 2.54704 18.3929 3.54504C20.4449 5.60304 20.4449 8.95005 18.3929 11.007L12.6368 16.778C11.4528 17.964 9.38792 17.966 8.20392 16.778C6.98392 15.554 6.98392 13.5641 8.20392 12.3411L13.2598 7.27106C13.6508 6.88006 14.2829 6.87904 14.6739 7.26904C15.0659 7.65904 15.0658 8.29204 14.6758 8.68304L9.61994 13.7531C9.17694 14.1981 9.17694 14.9211 9.61994 15.3661C10.0489 15.7951 10.7928 15.7941 11.2208 15.3661L16.9769 9.59506C18.2519 8.31606 18.2519 6.23606 16.9769 4.95706C15.7429 3.72006 13.5939 3.72006 12.3599 4.95706L6.6319 10.701C4.5089 12.83 4.46571 16.383 6.53571 18.459C7.52471 19.451 8.86471 19.998 10.3067 19.998C11.7867 19.998 13.2309 19.403 14.2659 18.364L19.2928 13.3221C19.6838 12.9311 20.3159 12.9301 20.7069 13.3201C21.0989 13.7101 21.0988 14.343 20.7088 14.734L15.6817 19.7761C14.2717 21.1891 12.3127 21.9991 10.3057 21.9991Z" fill="white"/>
</g>
</svg>
