<svg width="24" height="24" viewBox="0 0 24 24" fill="none" xmlns="http://www.w3.org/2000/svg">
<g id="papers">
<path id="papers_2" d="M15.2613 20.3928C14.9173 20.5568 14.5164 20.6788 14.0604 20.7608L7.49029 21.9109C5.30029 22.3009 4.01018 21.4009 3.63018 19.2108L2.09039 10.4608C1.70039 8.27085 2.60034 6.98085 4.79034 6.59085L6.58819 6.27481C6.79319 6.23881 6.97236 6.41784 6.93536 6.62284L5.75933 13.2809C5.22933 16.3109 6.65925 18.3508 9.67925 18.8808C9.67925 18.8808 14.8983 19.7978 15.1673 19.8498C15.4993 19.9098 15.5523 20.2638 15.2613 20.3928ZM19.2093 3.24485L12.6434 2.08683C10.4554 1.70083 9.1673 2.6018 8.7813 4.7908L8.58038 5.92881L7.23736 13.5448C6.85136 15.7338 7.75222 17.0208 9.94122 17.4068L16.5064 18.5649C16.5874 18.5789 16.6574 18.5788 16.7354 18.5898C18.7794 18.8708 19.9962 17.9688 20.3682 15.8608L21.9124 7.10684C22.2994 4.91884 21.3983 3.63085 19.2093 3.24485Z" fill="white"/>
</g>
</svg>
