<svg width="24" height="24" viewBox="0 0 24 24" fill="none" xmlns="http://www.w3.org/2000/svg">
<g id="papers">
<path id="papers_2" d="M15.2593 20.3918C14.9153 20.5558 14.5144 20.6779 14.0584 20.7599L7.48834 21.9099C5.29834 22.2999 4.00823 21.3999 3.62823 19.2099L2.08843 10.4599C1.69843 8.26987 2.59838 6.97988 4.78838 6.58988L6.58624 6.27384C6.79124 6.23784 6.9704 6.41686 6.9334 6.62186L5.75738 13.2799C5.22738 16.3099 6.6573 18.3499 9.6773 18.8799C9.6773 18.8799 14.8963 19.7969 15.1653 19.8489C15.4973 19.9088 15.5503 20.2628 15.2593 20.3918ZM19.2073 3.24387L12.6414 2.08585C10.4534 1.69985 9.16535 2.60083 8.77935 4.78983L8.57842 5.92783L7.23541 13.5439C6.84941 15.7329 7.75026 17.0199 9.93926 17.4059L16.5044 18.5639C16.5854 18.5779 16.6555 18.5778 16.7335 18.5888C18.7775 18.8698 19.9943 17.9678 20.3663 15.8598L21.9105 7.10587C22.2975 4.91787 21.3963 3.62987 19.2073 3.24387Z" fill="white"/>
</g>
</svg>
