<svg width="24" height="24" viewBox="0 0 24 24" fill="none" xmlns="http://www.w3.org/2000/svg">
<g id="sort-vertical">
<path id="sort-vertical_2" d="M16.7073 13.2933C17.0983 13.6842 17.0983 14.3163 16.7073 14.7073L12.7073 18.7073C12.5123 18.9023 12.2563 19.0003 12.0003 19.0003C11.7443 19.0003 11.4883 18.9023 11.2933 18.7073L7.29325 14.7073C6.90225 14.3163 6.90225 13.6842 7.29325 13.2933C7.68425 12.9023 8.31631 12.9023 8.70731 13.2933L12.0003 16.5862L15.2933 13.2933C15.6842 12.9023 16.3163 12.9023 16.7073 13.2933ZM8.70731 10.7073L12.0003 7.41434L15.2933 10.7073C15.4882 10.9023 15.7443 11.0003 16.0003 11.0003C16.2563 11.0003 16.5123 10.9023 16.7073 10.7073C17.0983 10.3163 17.0983 9.68425 16.7073 9.29325L12.7073 5.29325C12.3163 4.90225 11.6842 4.90225 11.2933 5.29325L7.29325 9.29325C6.90225 9.68425 6.90225 10.3163 7.29325 10.7073C7.68425 11.0983 8.31631 11.0983 8.70731 10.7073Z" fill="#091731"/>
</g>
</svg>
