<svg width="24" height="24" viewBox="0 0 24 24" fill="none" xmlns="http://www.w3.org/2000/svg">
<g id="star">
<path id="star_2" d="M16.8534 21.75C16.5644 21.75 16.2744 21.681 16.0054 21.54L12.1175 19.505C12.0435 19.466 11.9554 19.466 11.8814 19.505L7.99639 21.538C7.37739 21.862 6.64149 21.808 6.07549 21.396C5.51249 20.985 5.23447 20.304 5.35247 19.617L6.09344 15.316C6.10744 15.235 6.08039 15.153 6.02239 15.096L2.78142 11.95C2.30042 11.483 2.12948 10.796 2.33648 10.157C2.54348 9.51798 3.0854 9.06099 3.7514 8.96399L8.23345 8.31598C8.31545 8.30398 8.38544 8.25299 8.42144 8.17999L10.3644 4.26202C10.6744 3.63702 11.3005 3.24902 11.9985 3.24902C12.6965 3.24902 13.3225 3.63702 13.6325 4.26202L15.5744 8.17902C15.6114 8.25302 15.6815 8.30398 15.7635 8.31598L20.2454 8.96399C20.9114 9.05999 21.4535 9.51698 21.6605 10.157C21.8675 10.796 21.6964 11.483 21.2154 11.95L17.9754 15.095C17.9154 15.153 17.8895 15.235 17.9035 15.316L18.6445 19.619C18.7625 20.305 18.4864 20.986 17.9224 21.396C17.6044 21.631 17.2294 21.75 16.8534 21.75ZM11.9994 17.976C12.2784 17.976 12.5584 18.042 12.8124 18.175L16.7005 20.21C16.8555 20.292 16.9814 20.229 17.0414 20.185C17.1014 20.142 17.1964 20.043 17.1674 19.875L16.4264 15.571C16.3284 15.001 16.5184 14.421 16.9334 14.019L20.1724 10.875C20.2694 10.781 20.2534 10.675 20.2354 10.621C20.2174 10.566 20.1674 10.47 20.0324 10.45L15.5505 9.802C14.9795 9.72 14.4865 9.36201 14.2315 8.84601L12.2905 4.92999C12.2135 4.77399 12.0754 4.75098 12.0004 4.75098C11.9254 4.75098 11.7875 4.77399 11.7105 4.92999L9.76849 8.84698C9.51448 9.36198 9.02149 9.72 8.45049 9.802L3.96844 10.45C3.83344 10.47 3.78243 10.565 3.76543 10.621C3.74743 10.676 3.73242 10.781 3.82842 10.875L7.06841 14.02C7.48241 14.421 7.67239 15.001 7.57439 15.571L6.83343 19.872C6.80443 20.041 6.9005 20.14 6.9605 20.184C7.0225 20.228 7.1444 20.29 7.3034 20.209L11.1884 18.176C11.4404 18.043 11.7204 17.976 11.9994 17.976Z" fill="#091731"/>
</g>
</svg>
