<svg width="24" height="24" viewBox="0 0 24 24" fill="none" xmlns="http://www.w3.org/2000/svg">
<g id="star">
<path id="star_2" d="M12.9626 4.59625L14.9046 8.51324C15.0506 8.80824 15.3326 9.01226 15.6596 9.05926L20.1425 9.70721C20.9645 9.82621 21.2926 10.8342 20.6976 11.4122L17.4566 14.5572C17.2196 14.7872 17.1116 15.1182 17.1676 15.4432L17.9085 19.7473C18.0585 20.6203 17.1415 21.2862 16.3555 20.8752L12.4676 18.8403C12.1756 18.6873 11.8276 18.6873 11.5366 18.8403L7.65157 20.8732C6.86457 21.2852 5.94454 20.6182 6.09554 19.7432L6.83663 15.4432C6.89263 15.1182 6.78457 14.7872 6.54757 14.5572L3.3066 11.4122C2.7106 10.8342 3.03853 9.82621 3.86153 9.70721L8.34456 9.05926C8.67056 9.01226 8.95257 8.80824 9.09957 8.51324L11.0416 4.59625C11.4326 3.80125 12.5686 3.80125 12.9626 4.59625Z" fill="white"/>
</g>
</svg>
