<svg width="24" height="24" viewBox="0 0 24 24" fill="none" xmlns="http://www.w3.org/2000/svg">
<g id="star">
<path id="star_2" d="M16.8534 21.751C16.5644 21.751 16.2744 21.682 16.0054 21.541L12.1175 19.506C12.0435 19.467 11.9554 19.467 11.8814 19.506L7.99639 21.539C7.37739 21.863 6.64149 21.809 6.07549 21.397C5.51249 20.986 5.23447 20.305 5.35247 19.618L6.09344 15.317C6.10744 15.236 6.08039 15.154 6.02239 15.097L2.78142 11.951C2.30042 11.484 2.12948 10.797 2.33648 10.158C2.54348 9.51896 3.0854 9.06197 3.7514 8.96497L8.23345 8.31696C8.31545 8.30496 8.38544 8.25397 8.42144 8.18097L10.3644 4.263C10.6744 3.638 11.3005 3.25 11.9985 3.25C12.6965 3.25 13.3225 3.638 13.6325 4.263L15.5744 8.17999C15.6114 8.25399 15.6815 8.30496 15.7635 8.31696L20.2454 8.96497C20.9114 9.06097 21.4535 9.51796 21.6605 10.158C21.8675 10.797 21.6964 11.484 21.2154 11.951L17.9754 15.0959C17.9154 15.1539 17.8895 15.236 17.9035 15.317L18.6445 19.62C18.7625 20.306 18.4864 20.987 17.9224 21.397C17.6044 21.632 17.2294 21.751 16.8534 21.751ZM11.9994 17.977C12.2784 17.977 12.5584 18.043 12.8124 18.176L16.7005 20.211C16.8555 20.293 16.9814 20.23 17.0414 20.186C17.1014 20.143 17.1964 20.044 17.1674 19.876L16.4264 15.572C16.3284 15.002 16.5184 14.422 16.9334 14.02L20.1724 10.876C20.2694 10.782 20.2534 10.6759 20.2354 10.6219C20.2174 10.5669 20.1674 10.471 20.0324 10.451L15.5505 9.80298C14.9795 9.72098 14.4865 9.36298 14.2315 8.84698L12.2905 4.93097C12.2135 4.77497 12.0754 4.75195 12.0004 4.75195C11.9254 4.75195 11.7875 4.77497 11.7105 4.93097L9.76849 8.84796C9.51448 9.36296 9.02149 9.72098 8.45049 9.80298L3.96844 10.451C3.83344 10.471 3.78243 10.5659 3.76543 10.6219C3.74743 10.6769 3.73242 10.782 3.82842 10.876L7.06841 14.021C7.48241 14.422 7.67239 15.002 7.57439 15.572L6.83343 19.873C6.80443 20.042 6.9005 20.141 6.9605 20.185C7.0225 20.229 7.1444 20.291 7.3034 20.21L11.1884 18.177C11.4404 18.044 11.7204 17.977 11.9994 17.977Z" fill="white"/>
</g>
</svg>
