<svg width="24" height="24" viewBox="0 0 24 24" fill="none" xmlns="http://www.w3.org/2000/svg">
<g id="trend-down">
<path id="trend-down_2" d="M22.0002 17.0003C22.0002 17.1303 21.9733 17.2604 21.9233 17.3824C21.8223 17.6264 21.6273 17.8214 21.3823 17.9234C21.2603 17.9744 21.1302 18.0003 21.0002 18.0003H16.8462C16.2942 18.0003 15.8462 17.5523 15.8462 17.0003C15.8462 16.4483 16.2942 16.0003 16.8462 16.0003H18.5862L13.0003 10.4143L10.4143 13.0003C9.63525 13.7803 8.36525 13.7803 7.58625 13.0003L2.29325 7.70731C1.90225 7.31631 1.90225 6.68425 2.29325 6.29325C2.68425 5.90225 3.31625 5.90225 3.70725 6.29325L9.00025 11.5862L11.5862 9.00028C12.3652 8.22028 13.6353 8.22028 14.4143 9.00028L20.0002 14.5862V12.8462C20.0002 12.2942 20.4482 11.8462 21.0002 11.8462C21.5522 11.8462 22.0002 12.2942 22.0002 12.8462V17.0003Z" fill="#091731"/>
</g>
</svg>
