<svg width="24" height="24" viewBox="0 0 24 24" fill="none" xmlns="http://www.w3.org/2000/svg">
<g id="trend-up">
<path id="trend-up_2" d="M22.0002 7V11.1541C22.0002 11.7061 21.5522 12.1541 21.0002 12.1541C20.4482 12.1541 20.0002 11.7061 20.0002 11.1541V9.41406L14.4143 15C13.6353 15.78 12.3652 15.78 11.5862 15L9.00025 12.4141L3.70725 17.707C3.51225 17.902 3.25625 18 3.00025 18C2.74425 18 2.48825 17.902 2.29325 17.707C1.90225 17.316 1.90225 16.684 2.29325 16.293L7.58625 11C8.36525 10.22 9.63525 10.22 10.4143 11L13.0003 13.5859L18.5862 8H16.8462C16.2942 8 15.8462 7.552 15.8462 7C15.8462 6.448 16.2942 6 16.8462 6H21.0002C21.1302 6 21.2603 6.0269 21.3823 6.0769C21.6273 6.1789 21.8213 6.37292 21.9233 6.61792C21.9733 6.73992 22.0002 6.87 22.0002 7Z" fill="white"/>
</g>
</svg>
