<svg width="24" height="24" viewBox="0 0 24 24" fill="none" xmlns="http://www.w3.org/2000/svg">
<g id="users-group">
<path id="users-group_2" d="M18.75 18.351C18.75 20.383 17.619 21.501 15.567 21.501H8.43298C6.38098 21.501 5.25 20.382 5.25 18.351C5.25 16.063 6.54997 13.391 10.215 13.391H13.7841C17.4501 13.39 18.75 16.063 18.75 18.351ZM12.0081 11.5129C13.9501 11.5129 15.5291 9.93996 15.5291 8.00696C15.5291 6.07296 13.9491 4.50098 12.0081 4.50098C10.0671 4.50098 8.48804 6.07396 8.48804 8.00696C8.48804 9.93996 10.0661 11.5129 12.0081 11.5129ZM18.79 8.93103H17.1801C17.0401 8.93103 16.92 9.03101 16.89 9.16101C16.67 10.111 16.17 10.961 15.48 11.611C15.31 11.771 15.41 12.051 15.64 12.111C17.41 12.531 18.64 13.571 19.37 14.891C19.42 15.001 19.52 15.0709 19.65 15.0709H20.0699C21.6399 15.0709 22.5 14.211 22.5 12.651C22.5 10.941 21.53 8.93103 18.79 8.93103ZM17.51 2.50098C16.512 2.50098 15.641 3.04793 15.184 3.85693C15.147 3.92293 15.149 3.99596 15.163 4.05896C15.178 4.12496 15.207 4.16004 15.269 4.21204C16.248 5.03704 16.9011 6.23201 17.0081 7.58301C17.0141 7.65901 17.0401 7.70601 17.0861 7.755C17.1321 7.804 17.201 7.83392 17.292 7.84192C17.363 7.84792 17.436 7.85193 17.51 7.85193C18.98 7.85193 20.1801 6.652 20.1801 5.172C20.1801 3.701 18.98 2.50098 17.51 2.50098ZM1.5 12.651C1.5 14.211 2.36005 15.0709 3.93005 15.0709H4.34998C4.47998 15.0709 4.58 15.001 4.63 14.891C5.36 13.571 6.58999 12.531 8.35999 12.111C8.58999 12.051 8.69002 11.771 8.52002 11.611C7.83002 10.961 7.32999 10.111 7.10999 9.16101C7.07999 9.03101 6.95995 8.93103 6.81995 8.93103H5.20996C2.46996 8.93103 1.5 10.941 1.5 12.651ZM3.81995 5.17102C3.81995 6.65102 5.01999 7.85095 6.48999 7.85095C6.56399 7.85095 6.63701 7.84694 6.70801 7.84094C6.80001 7.83294 6.86794 7.80303 6.91394 7.75403C6.95994 7.70503 6.98594 7.65803 6.99194 7.58203C7.09894 6.23103 7.75196 5.03594 8.73096 4.21094C8.79196 4.15894 8.82204 4.12398 8.83704 4.05798C8.85104 3.99498 8.85304 3.92296 8.81604 3.85596C8.35804 3.04696 7.48799 2.5 6.48999 2.5C5.01999 2.501 3.81995 3.70102 3.81995 5.17102Z" fill="white"/>
</g>
</svg>
