<svg width="106" height="106" viewBox="0 0 106 106" fill="none" xmlns="http://www.w3.org/2000/svg">
<rect y="18" width="88" height="88" rx="8" fill="#091731"/>
<path d="M20.0879 47.0228L36.5274 73.4115C37.6871 75.273 39.4526 76.69 41.5345 77.4302C43.6164 78.1704 45.8912 78.19 47.9858 77.4856L49.2225 77.0699L33.226 50.8271C31.9707 48.7678 30.0045 47.2258 27.6894 46.4851C25.3743 45.7444 22.8663 45.8549 20.6272 46.7961L20.0879 47.0228Z" fill="white"/>
<path d="M36.7625 47.0228L46.2674 62.8746C47.5443 65.0043 49.5575 66.6063 51.9359 67.3854C54.3142 68.1645 56.8975 68.0682 59.2097 67.1143L49.3498 51.1696C48.084 49.1231 46.1265 47.5844 43.8234 46.8256C41.5202 46.0668 39.0197 46.1367 36.7636 47.0228H36.7625Z" fill="white"/>
<path d="M60.8584 59.6124L56.1406 51.4876C55.9471 51.1543 55.8594 50.7713 55.889 50.3883C55.9186 50.0052 56.064 49.6398 56.3065 49.3394C57.7816 47.5042 61.4624 44.3441 67.9131 47.2944L60.8584 59.6124Z" fill="white"/>
<rect x="71" y="1" width="34" height="34" rx="17" fill="#4584FF"/>
<path d="M92 14.666H90.6667L90.228 13.3499C90.092 12.9413 89.71 12.666 89.2793 12.666H86.7207C86.29 12.666 85.908 12.9413 85.772 13.3499L85.3333 14.666H84C82.6667 14.666 82 15.3327 82 16.666V21.9993C82 23.3327 82.6667 23.9993 84 23.9993H92C93.3333 23.9993 94 23.3327 94 21.9993V16.666C94 15.3327 93.3333 14.666 92 14.666ZM88 21.3327C86.8953 21.3327 86 20.4373 86 19.3327C86 18.228 86.8953 17.3327 88 17.3327C89.1047 17.3327 90 18.228 90 19.3327C90 20.4373 89.1047 21.3327 88 21.3327ZM91.6667 17.666C91.2987 17.666 91 17.3673 91 16.9993C91 16.6313 91.2987 16.3327 91.6667 16.3327C92.0347 16.3327 92.3333 16.6313 92.3333 16.9993C92.3333 17.3673 92.0347 17.666 91.6667 17.666Z" fill="white"/>
<rect x="71" y="1" width="34" height="34" rx="17" stroke="#161C23" stroke-width="2"/>
</svg>
