<svg width="792" height="312" viewBox="0 0 792 312" fill="none" xmlns="http://www.w3.org/2000/svg">
<path d="M238.928 204.052C238.928 252.624 201.837 307.82 121.031 307.82C53.472 307.82 2.25078 266.313 0.0429688 208.91H76.4332C80.4073 229.663 97.1867 239.819 120.589 239.819C152.382 239.819 160.33 219.507 160.33 203.611C160.33 187.273 150.616 166.52 117.499 166.52C96.3035 166.52 80.4073 174.909 73.7839 193.896L10.6405 172.701L37.1342 4.90781H220.824V72.9084H92.3295L86.1476 111.324C99.836 104.701 115.291 101.61 130.745 101.61C206.694 101.61 238.928 153.714 238.928 204.052Z" fill="#4584FF"/>
<path d="M513.828 154.597C513.828 253.066 470.997 307.82 393.723 307.82C316.45 307.82 273.618 253.066 273.618 154.597C273.618 55.6875 317.333 0.492188 393.723 0.492188C470.114 0.492188 513.828 55.6875 513.828 154.597ZM351.775 154.597C351.775 209.793 365.905 239.819 393.723 239.819C420.659 239.819 435.672 209.793 435.672 154.597C435.672 98.9606 420.659 68.4928 393.723 68.4928C366.788 68.4928 351.775 99.4022 351.775 154.597Z" fill="#4584FF"/>
<path d="M791.961 154.597C791.961 253.066 749.129 307.82 671.856 307.82C594.582 307.82 551.751 253.066 551.751 154.597C551.751 55.6875 595.466 0.492188 671.856 0.492188C748.246 0.492188 791.961 55.6875 791.961 154.597ZM629.907 154.597C629.907 209.793 644.037 239.819 671.856 239.819C698.791 239.819 713.804 209.793 713.804 154.597C713.804 98.9606 698.791 68.4928 671.856 68.4928C644.92 68.4928 629.907 99.4022 629.907 154.597Z" fill="#4584FF"/>
<g clip-path="url(#clip0_113_27404)">
<path d="M541.899 158.206C539.399 163.106 536.299 167.706 532.499 171.706C522.499 182.406 508.399 189.406 493.699 190.306C473.599 191.706 453.099 181.806 441.699 165.206C430.299 148.606 428.299 126.006 436.699 107.606C453.599 70.8057 502.299 63.6057 529.999 89.9057C533.199 92.8057 536.099 96.3057 538.699 100.206C549.699 117.306 550.999 140.106 541.899 158.206Z" fill="white"/>
<path d="M525.201 170.606C516.501 178.506 505.201 183.706 493.401 184.506C475.501 185.706 457.301 176.906 447.101 162.106C436.901 147.306 435.201 127.106 442.701 110.806C447.101 101.206 453.901 93.9062 461.901 88.9062C457.201 93.2063 453.301 98.6062 450.401 104.906C442.901 121.206 444.601 141.406 454.801 156.206C465.001 171.006 483.201 179.806 501.101 178.606C509.601 178.006 517.901 175.206 525.201 170.606Z" fill="#E6E6E6"/>
<path d="M489.901 192.807C470.301 192.807 450.901 182.807 439.701 166.607C427.801 149.307 425.801 125.907 434.501 106.707C442.601 89.0072 458.401 76.8072 477.801 73.0072C497.401 69.2072 517.501 74.9072 531.501 88.2072C534.801 91.2072 537.801 94.8072 540.501 99.0072C552.001 116.707 553.301 140.307 543.901 159.207C541.301 164.407 538.001 169.107 534.101 173.207C523.501 184.507 508.801 191.507 493.801 192.607C492.501 192.807 491.201 192.807 489.901 192.807ZM489.801 76.6072C486.101 76.6072 482.401 76.9072 478.701 77.7072C460.801 81.1072 446.201 92.4072 438.701 108.707C430.601 126.307 432.501 148.007 443.501 163.907C454.501 179.907 474.101 189.307 493.401 188.007C507.301 187.107 520.901 180.507 530.701 170.107C534.301 166.307 537.401 161.907 539.801 157.207C548.501 139.807 547.301 118.007 536.701 101.607C534.201 97.8072 531.401 94.5072 528.401 91.7072C518.101 81.9072 504.201 76.6072 489.801 76.6072Z" fill="black"/>
<path d="M356.099 160.007C354.299 162.107 352.299 164.107 350.099 165.707C341.799 172.107 331.099 175.207 320.499 176.207C303.499 177.807 285.299 174.307 271.999 163.607C261.999 155.607 255.299 143.007 254.799 130.407C254.599 126.107 255.199 121.907 256.499 117.807C258.699 111.207 267.499 110.807 274.499 110.507C304.399 109.107 334.899 106.607 364.699 105.207C365.199 109.707 365.599 114.207 365.899 118.807C366.799 133.707 365.399 148.707 356.099 160.007Z" fill="white"/>
<path d="M366.001 118.807C328.601 118.607 290.401 118.607 254.901 130.407C254.701 126.107 255.301 121.907 256.601 117.807C258.801 111.207 267.601 110.807 274.601 110.507C304.501 109.107 335.001 106.607 364.801 105.207C365.301 109.607 365.801 114.207 366.001 118.807Z" fill="white"/>
<path d="M312.8 178.907C296.5 178.907 281.5 174.107 270.6 165.407C255.7 153.407 249 133.507 254.4 117.007C257.1 108.907 267.1 108.407 274.4 108.007H274.5C289.5 107.307 304.8 106.307 319.7 105.407C334.5 104.407 349.8 103.507 364.8 102.807C365.4 102.807 366.1 103.007 366.5 103.407C366.9 103.807 367.2 104.407 367.2 105.007C369.4 125.207 370.5 146.207 358 161.407C356 163.807 353.8 165.807 351.6 167.507C341.8 175.007 329.5 177.607 320.9 178.507C318.1 178.807 315.4 178.907 312.8 178.907ZM362.7 107.607C348.5 108.307 334 109.207 319.9 110.107C305 111.107 289.7 112.007 274.7 112.707H274.6C268.3 113.007 260.5 113.407 258.9 118.407C254.1 133.107 260.2 150.907 273.6 161.707C285.3 171.107 302.4 175.507 320.4 173.807C328.4 173.007 339.8 170.607 348.8 163.707C350.8 162.207 352.7 160.407 354.5 158.307C365.3 145.207 364.7 126.207 362.7 107.607Z" fill="black"/>
<path d="M333.897 311.506C333.297 311.506 332.697 311.306 332.297 310.806C331.397 309.906 331.297 308.406 332.197 307.506C351.097 287.906 370.697 267.606 395.297 254.306C410.997 245.906 425.297 242.906 437.697 245.506C451.797 248.406 466.197 261.606 464.797 277.706C464.697 279.006 463.497 279.906 462.297 279.806C460.997 279.706 460.097 278.606 460.197 277.306C461.397 263.806 448.997 252.606 436.797 250.106C425.497 247.706 412.197 250.506 397.497 258.506C373.497 271.406 354.197 291.406 335.497 310.806C335.097 311.206 334.497 311.506 333.897 311.506Z" fill="black"/>
<path d="M541.902 158.206C539.402 163.106 536.302 167.706 532.502 171.706C523.102 168.006 515.502 159.306 511.702 149.706C506.202 135.806 507.302 119.506 514.702 106.606C518.502 100.006 523.902 93.8059 530.002 90.0059C533.202 92.9059 536.102 96.4059 538.702 100.306C549.702 117.306 551.002 140.106 541.902 158.206Z" fill="black"/>
<path d="M356.103 160.007C354.303 162.107 352.303 164.107 350.103 165.707C342.503 161.007 336.703 150.407 335.603 142.907C333.403 128.707 341.703 113.507 354.803 107.607C358.003 106.207 361.403 105.307 364.903 105.207C366.903 124.107 368.303 145.307 356.103 160.007Z" fill="black"/>
<path d="M336.601 164.206C327.401 169.606 316.001 172.106 304.901 170.906C288.001 169.106 272.101 158.906 264.601 144.806C257.101 130.806 258.301 113.506 267.601 100.906C273.101 93.5059 280.401 88.4059 288.701 85.5059C283.701 88.4059 279.301 92.3059 275.701 97.2059C266.401 109.806 265.201 127.106 272.701 141.106C280.201 155.106 296.101 165.406 313.001 167.206C321.001 168.006 329.201 166.906 336.601 164.206Z" fill="#E6E6E6"/>
<path d="M211 136.806C234.3 121.206 262.2 112.706 290.2 112.606C304.2 112.606 318.2 114.606 332.2 114.006C346.2 113.406 360.7 109.806 370.9 100.106C381.1 90.5059 385.4 73.8059 377.8 62.0059C359.7 74.9059 335.5 78.3059 313.2 79.0059C290.9 79.7059 267.7 79.6059 247.7 89.4059C229.1 98.4059 216.2 116.806 211 136.806Z" fill="black"/>
<path d="M581.699 75.8059C558.399 60.2059 530.499 51.7059 502.499 51.6059C488.499 51.6059 474.499 53.6059 460.499 53.0059C446.499 52.4059 431.999 48.8059 421.799 39.1059C411.599 29.5059 407.299 12.8059 414.899 1.00586C432.999 13.9059 457.199 17.3059 479.499 18.0059C501.799 18.7059 524.999 18.6059 544.999 28.4059C563.599 37.4059 576.499 55.8059 581.699 75.8059Z" fill="black"/>
<path d="M344.098 143.407H336.498C332.898 143.407 329.898 140.407 329.898 136.807C329.898 133.207 332.898 130.207 336.498 130.207H344.098C347.698 130.207 350.698 133.207 350.698 136.807C350.698 140.507 347.798 143.407 344.098 143.407Z" fill="white"/>
<path d="M516.302 142.005H508.702C505.102 142.005 502.102 139.005 502.102 135.405C502.102 131.805 505.102 128.805 508.702 128.805H516.302C519.902 128.805 522.902 131.805 522.902 135.405C522.902 139.105 520.002 142.005 516.302 142.005Z" fill="white"/>
</g>
<defs>
<clipPath id="clip0_113_27404">
<rect width="370.7" height="310.5" fill="white" transform="translate(211 1.00586)"/>
</clipPath>
</defs>
</svg>
  