<svg width="802" height="308" viewBox="0 0 802 308" fill="none" xmlns="http://www.w3.org/2000/svg">
<path d="M258.927 250.26H216.096V303.248H140.589V250.26H0.171875V193.299L154.277 4.75156H216.096V184.026H258.927V250.26ZM82.3025 184.026H140.589V110.727L82.3025 184.026Z" fill="#4584FF"/>
<path d="M527.225 154.441C527.225 252.91 484.393 307.663 407.12 307.663C329.846 307.663 287.015 252.91 287.015 154.441C287.015 55.5312 330.73 0.335938 407.12 0.335938C483.51 0.335938 527.225 55.5312 527.225 154.441ZM365.171 154.441C365.171 209.636 379.301 239.663 407.12 239.663C434.055 239.663 449.068 209.636 449.068 154.441C449.068 98.8043 434.055 68.3365 407.12 68.3365C380.185 68.3365 365.171 99.2459 365.171 154.441Z" fill="#4584FF"/>
<path d="M801.825 250.26H758.993V303.248H683.486V250.26H543.069V193.299L697.175 4.75156H758.993V184.026H801.825V250.26ZM625.2 184.026H683.486V110.727L625.2 184.026Z" fill="#4584FF"/>
<g clip-path="url(#clip0_91_3103)">
<path d="M483.214 182.093C509.22 182.093 530.302 160.996 530.302 134.971C530.302 108.947 509.22 87.8496 483.214 87.8496C457.207 87.8496 436.125 108.947 436.125 134.971C436.125 160.996 457.207 182.093 483.214 182.093Z" fill="white"/>
<path d="M328.292 182.093C354.298 182.093 375.38 160.996 375.38 134.971C375.38 108.947 354.298 87.8496 328.292 87.8496C302.285 87.8496 281.203 108.947 281.203 134.971C281.203 160.996 302.285 182.093 328.292 182.093Z" fill="white"/>
<path d="M355.976 96.9395C360.796 104.36 363.577 113.141 363.577 122.665C363.577 148.699 342.505 169.786 316.489 169.786C306.107 169.786 296.528 166.385 288.742 160.696C297.146 173.558 311.668 182.092 328.23 182.092C354.246 182.092 375.318 161.005 375.318 134.971C375.318 119.325 367.717 105.473 355.976 96.9395Z" fill="#EFEFEF"/>
<path d="M510.898 96.9395C515.718 104.36 518.499 113.141 518.499 122.665C518.499 148.699 497.427 169.786 471.41 169.786C461.029 169.786 451.45 166.385 443.664 160.696C452.068 173.62 466.59 182.092 483.152 182.092C509.168 182.092 530.24 161.005 530.24 134.971C530.24 119.325 522.577 105.473 510.898 96.9395Z" fill="#EFEFEF"/>
<path d="M328.29 184.257C301.162 184.257 279.039 162.119 279.039 134.972C279.039 107.824 301.1 85.6855 328.29 85.6855C355.419 85.6855 377.542 107.824 377.542 134.972C377.542 162.119 355.419 184.257 328.29 184.257ZM328.29 90.0143C303.51 90.0143 283.365 110.174 283.365 134.972C283.365 159.769 303.51 179.929 328.29 179.929C353.071 179.929 373.216 159.769 373.216 134.972C373.216 110.174 353.071 90.0143 328.29 90.0143Z" fill="#091731"/>
<path d="M328.291 164.531C340.885 164.531 351.094 154.315 351.094 141.712C351.094 129.11 340.885 118.894 328.291 118.894C315.697 118.894 305.488 129.11 305.488 141.712C305.488 154.315 315.697 164.531 328.291 164.531Z" fill="#091731"/>
<path d="M322.667 146.907C327.821 146.907 331.998 142.726 331.998 137.569C331.998 132.412 327.821 128.231 322.667 128.231C317.514 128.231 313.336 132.412 313.336 137.569C313.336 142.726 317.514 146.907 322.667 146.907Z" fill="white"/>
<path d="M483.212 184.257C456.084 184.257 433.961 162.119 433.961 134.972C433.961 107.824 456.084 85.6855 483.212 85.6855C510.341 85.6855 532.464 107.824 532.464 134.972C532.464 162.119 510.341 184.257 483.212 184.257ZM483.212 90.0143C458.432 90.0143 438.287 110.174 438.287 134.972C438.287 159.769 458.432 179.929 483.212 179.929C507.993 179.929 528.138 159.769 528.138 134.972C528.138 110.174 507.993 90.0143 483.212 90.0143Z" fill="#091731"/>
<path d="M483.213 164.531C495.806 164.531 506.016 154.315 506.016 141.712C506.016 129.11 495.806 118.894 483.213 118.894C470.619 118.894 460.41 129.11 460.41 141.712C460.41 154.315 470.619 164.531 483.213 164.531Z" fill="#091731"/>
<path d="M477.589 146.907C482.742 146.907 486.92 142.726 486.92 137.569C486.92 132.412 482.742 128.231 477.589 128.231C472.436 128.231 468.258 132.412 468.258 137.569C468.258 142.726 472.436 146.907 477.589 146.907Z" fill="white"/>
<path d="M272.242 35.7192C281.882 45.2424 291.398 28.9787 322.42 24.8973C348.313 21.4961 364.009 32.318 368.767 24.7118C373.464 17.0437 353.38 5.47972 315.314 8.94272C287.073 11.54 261.057 24.7118 272.242 35.7192Z" fill="#091731"/>
<path d="M525.419 31.452C513.369 24.6497 507.807 42.8304 477.527 54.7036C452.314 64.5979 433.775 58.0429 430.933 66.6386C428.028 75.2342 451.14 81.3563 488.588 68.3701C516.458 58.6613 539.385 39.3056 525.419 31.452Z" fill="#091731"/>
<path d="M315.129 288.703C315.129 288.703 349.673 219.195 410.913 220.741C472.152 222.349 492.916 264.894 492.916 264.894C492.916 264.894 466.714 239.911 416.289 243.745C351.094 248.693 315.129 288.703 315.129 288.703Z" fill="#091731"/>
<path d="M489.887 246.404C493.224 250.3 495.511 255.062 496.623 260.071C497.612 264.585 498.044 270.584 494.584 274.232C492.977 275.964 490.567 277.015 488.219 276.458C486.241 275.964 485.376 278.994 487.354 279.488C490.073 280.169 492.977 279.488 495.264 277.819C497.674 276.025 499.219 273.366 499.898 270.398C501.258 264.585 499.837 258.154 497.488 252.712C496.129 249.558 494.275 246.714 492.112 244.116C491.556 243.436 490.444 243.56 489.887 244.116C489.208 244.797 489.331 245.724 489.887 246.404Z" fill="#091731"/>
<path d="M319.08 296.31C314.693 296.929 309.873 294.826 307.216 291.24C304.373 287.344 304.064 281.902 306.35 277.635C307.339 275.842 304.62 274.234 303.631 276.027C301.407 280.109 301.036 285.179 302.766 289.508C304.435 293.837 307.957 297.053 312.345 298.66C314.817 299.526 317.35 299.712 319.946 299.341C320.811 299.217 321.243 298.166 321.058 297.362C320.811 296.496 319.946 296.187 319.08 296.31Z" fill="#091731"/>
</g>
<defs>
<clipPath id="clip0_91_3103">
<rect width="262.88" height="291.201" fill="white" transform="translate(269.59 8.32422)"/>
</clipPath>
</defs>
</svg>
