<svg width="502" height="502" viewBox="0 0 502 502" fill="none" xmlns="http://www.w3.org/2000/svg">
<path d="M497.259 323.511C471.322 308.451 455.425 280.841 455.425 251C455.425 221.159 471.322 193.549 497.259 178.489C501.721 175.7 503.395 170.122 500.606 165.66L454.031 85.3399C452.358 82.2722 449.29 80.5993 446.222 80.5993C444.549 80.5993 442.875 81.1567 441.481 81.9934C428.652 89.2445 414.15 93.1488 399.647 93.1488C384.866 93.1488 370.364 89.2442 357.257 81.7142C331.32 66.6542 315.423 39.3232 315.423 9.48212C315.423 4.18323 311.24 0 306.22 0H195.78C190.76 0 186.577 4.18323 186.577 9.48212C186.577 39.3232 170.68 66.6542 144.743 81.7142C131.636 89.2442 117.134 93.1488 102.353 93.1488C87.8504 93.1488 73.3482 89.2445 60.5193 81.9934C56.057 79.2045 50.4789 80.8777 47.9689 85.3399L1.11579 165.66C0.279127 167.055 0 168.728 0 170.122C0 173.469 1.67371 176.536 4.74149 178.489C30.6782 193.549 46.5748 220.88 46.5748 250.721C46.5748 280.841 30.6776 308.451 5.0198 323.511H4.74149C0.279263 326.3 -1.39478 331.878 1.3941 336.34L47.9689 416.66C49.6423 419.728 52.71 421.401 55.7778 421.401C57.4511 421.401 59.1248 420.843 60.5193 420.007C86.7348 405.225 118.807 405.226 144.743 420.286C170.401 435.346 186.298 462.677 186.298 492.518C186.298 497.817 190.481 502 195.78 502H306.22C311.24 502 315.423 497.817 315.423 492.518C315.423 462.677 331.32 435.346 357.257 420.286C370.364 412.756 384.866 408.851 399.647 408.851C414.15 408.851 428.652 412.755 441.481 420.007C445.943 422.796 451.521 421.122 454.031 416.66L500.884 336.34C501.721 334.945 502 333.272 502 331.878C502 328.531 500.326 325.464 497.259 323.511ZM251 334.667C204.704 334.667 167.333 297.296 167.333 251C167.333 204.704 204.704 167.333 251 167.333C297.296 167.333 334.667 204.704 334.667 251C334.667 297.296 297.296 334.667 251 334.667Z" fill="#4584FF"/>
<g clip-path="url(#clip0_113_25302)">
<path d="M278.3 247.799C272.6 260.199 271.4 274.299 271.9 287.899C272.4 303.599 275 319.599 282.6 333.499C290.2 347.299 303.3 358.699 318.9 361.199C333.9 363.599 349.5 357.499 360.6 347.099C371.7 336.699 378.6 322.399 382.4 307.699C388.1 285.699 386.8 260.899 374.1 242.099C351 207.999 296 209.599 278.3 247.799Z" fill="white"/>
<path d="M377.198 308C373.898 320.9 367.798 333.4 358.098 342.6C348.398 351.7 334.698 357.1 321.498 355C308.998 353 298.198 344.4 291.398 333.6C297.898 340.8 306.398 346.1 315.898 347.6C329.098 349.7 342.798 344.4 352.498 335.2C362.198 326.1 368.298 313.6 371.598 300.7C376.398 282.1 375.498 261.2 365.498 244.9C367.098 246.6 368.598 248.5 369.998 250.6C381.098 266.9 382.198 288.7 377.198 308Z" fill="#E6E6E6"/>
<path d="M325.498 364C323.098 364 320.798 363.8 318.398 363.4C303.198 360.9 288.998 350.1 280.498 334.5C273.698 322.2 270.098 306.9 269.498 287.9C268.898 270.8 270.998 257.7 276.098 246.7C284.398 228.8 301.498 217.2 321.998 215.5C343.598 213.8 364.198 223.4 375.898 240.6C387.898 258.3 391.098 282.9 384.598 308.1C380.298 324.9 372.498 338.9 362.098 348.6C351.698 358.5 338.398 364 325.498 364ZM327.098 220.1C325.598 220.1 323.998 220.2 322.498 220.3C303.698 221.8 287.998 232.5 280.398 248.8C275.598 259.1 273.698 271.5 274.198 287.9C274.798 306.2 278.198 320.7 284.598 332.4C292.498 346.8 305.398 356.7 319.198 358.9C332.698 361.1 347.598 356.1 358.998 345.4C368.698 336.3 375.998 323 380.098 307.1C386.298 283.2 383.298 260 372.098 243.4C362.198 228.7 345.298 220.1 327.098 220.1Z" fill="black"/>
<path d="M139.497 242.901C131.497 256.401 127.997 272.201 126.497 287.901C124.497 308.601 126.997 332.001 142.497 345.901C159.997 361.501 189.297 358.201 206.697 342.401C224.097 326.601 230.797 301.701 229.597 278.201C228.797 262.301 224.497 246.201 214.397 233.901C191.497 206.101 156.597 214.201 139.497 242.901Z" fill="white"/>
<path d="M207.8 337.8C207.5 338.1 207.1 338.4 206.8 338.8C190.5 353.5 163 356.7 146.6 342C132 329 129.7 307.1 131.6 287.6C133 272.9 136.3 258.1 143.8 245.4C148.2 238 153.9 232.1 160.2 227.9C156.6 231.3 153.4 235.4 150.6 240C143.1 252.7 139.8 267.5 138.4 282.2C136.6 301.7 138.8 323.6 153.4 336.6C168 349.6 191.3 348.6 207.8 337.8Z" fill="#E6E6E6"/>
<path d="M171.199 358.501C159.999 358.501 149.099 354.901 140.999 347.601C123.899 332.301 122.399 306.601 124.199 287.601C125.999 268.801 130.299 253.701 137.499 241.601C146.899 225.801 161.899 215.601 177.699 214.401C192.099 213.301 205.799 219.701 216.299 232.301C225.599 243.701 231.099 259.501 231.999 278.001C233.399 305.101 224.799 329.101 208.299 344.001C197.799 353.701 184.199 358.501 171.199 358.501ZM141.499 244.101C134.699 255.601 130.499 270.001 128.799 288.101C127.099 306.001 128.399 330.201 143.999 344.101C161.299 359.501 189.499 354.801 205.099 340.701C220.499 326.801 228.599 304.101 227.199 278.401C226.599 266.201 223.499 248.801 212.499 235.401C203.199 224.001 190.899 218.201 177.999 219.201C163.799 220.301 150.099 229.601 141.499 244.101Z" fill="black"/>
<path d="M188.399 298.999C190.899 300.499 194.299 300.399 196.799 298.799C202.999 294.999 198.199 286.499 192.099 286.399C185.199 286.299 182.399 295.399 188.399 298.999Z" fill="black"/>
<path d="M297.597 297.699C299.497 298.899 302.097 298.799 304.097 297.599C308.897 294.699 305.197 288.099 300.397 287.999C295.197 287.899 292.997 294.899 297.597 297.699Z" fill="black"/>
<path d="M223.498 90C225.098 95.6 226.398 101.3 227.398 107C229.198 116.7 223.698 126.3 214.398 129.7C201.198 134.6 188.198 140.1 174.598 144.2C161.198 148.2 147.498 152.4 135.898 160.2C124.298 168 114.998 180.3 113.998 194.3C103.998 178.4 109.898 157 123.198 143.7C136.498 130.4 154.798 123.7 172.398 117.3C190.098 110.9 210.698 103.7 223.498 90Z" fill="black"/>
<path d="M277.998 90C275.798 97.8 274.098 105.7 272.998 113.7C272.098 119.8 275.798 125.7 281.598 127.7C296.798 133 311.398 139.5 326.798 144.2C340.198 148.2 353.898 152.4 365.498 160.2C377.098 168 386.598 180.3 387.498 194.3C397.498 178.4 391.598 157 378.398 143.7C365.098 130.4 346.798 123.7 329.198 117.3C311.498 110.9 290.898 103.7 277.998 90Z" fill="black"/>
<path d="M300.698 412.901H192.398C191.098 412.901 190.098 411.901 190.098 410.601C190.098 409.301 191.098 408.301 192.398 408.301H300.698C301.998 408.301 302.998 409.301 302.998 410.601C302.998 411.901 301.998 412.901 300.698 412.901Z" fill="black"/>
</g>
<defs>
<clipPath id="clip0_113_25302">
<rect width="283.5" height="322.9" fill="white" transform="translate(109 90)"/>
</clipPath>
</defs>
</svg>
