<svg width="20" height="20" viewBox="0 0 20 20" fill="none" xmlns="http://www.w3.org/2000/svg">
<g clip-path="url(#clip0_94_2601)">
<path d="M6.66797 11.667C6.66797 11.667 7.91797 13.3337 10.0013 13.3337C12.0846 13.3337 13.3346 11.667 13.3346 11.667M12.5013 7.50032H12.5096M7.5013 7.50032H7.50963M18.3346 10.0003C18.3346 14.6027 14.6037 18.3337 10.0013 18.3337C5.39893 18.3337 1.66797 14.6027 1.66797 10.0003C1.66797 5.39795 5.39893 1.66699 10.0013 1.66699C14.6037 1.66699 18.3346 5.39795 18.3346 10.0003ZM12.918 7.50032C12.918 7.73044 12.7314 7.91699 12.5013 7.91699C12.2712 7.91699 12.0846 7.73044 12.0846 7.50032C12.0846 7.27021 12.2712 7.08366 12.5013 7.08366C12.7314 7.08366 12.918 7.27021 12.918 7.50032ZM7.91797 7.50032C7.91797 7.73044 7.73142 7.91699 7.5013 7.91699C7.27118 7.91699 7.08463 7.73044 7.08463 7.50032C7.08463 7.27021 7.27118 7.08366 7.5013 7.08366C7.73142 7.08366 7.91797 7.27021 7.91797 7.50032Z" stroke="#4584FF" stroke-width="1.5" stroke-linecap="round" stroke-linejoin="round"/>
</g>
<defs>
<clipPath id="clip0_94_2601">
<rect width="20" height="20" fill="white"/>
</clipPath>
</defs>
</svg>
