<svg width="24" height="24" viewBox="0 0 24 24" fill="none" xmlns="http://www.w3.org/2000/svg">
<path d="M10.3057 22C8.32773 22 6.48672 21.245 5.11872 19.873C2.23572 16.982 2.27891 12.235 5.21491 9.29004L10.9429 3.54602C11.9379 2.54802 13.2598 1.99902 14.6678 1.99902C16.0758 1.99902 17.3969 2.54802 18.3929 3.54602C20.4449 5.60402 20.4449 8.95103 18.3929 11.008L12.6368 16.779C11.4528 17.965 9.38792 17.967 8.20392 16.779C6.98392 15.555 6.98392 13.565 8.20392 12.342L13.2598 7.27203C13.6508 6.88103 14.2829 6.88002 14.6739 7.27002C15.0659 7.66002 15.0658 8.29302 14.6758 8.68402L9.61994 13.754C9.17694 14.199 9.17694 14.922 9.61994 15.367C10.0489 15.796 10.7928 15.795 11.2208 15.367L16.9769 9.59604C18.2519 8.31704 18.2519 6.23704 16.9769 4.95804C15.7429 3.72104 13.5939 3.72104 12.3599 4.95804L6.6319 10.702C4.5089 12.831 4.46571 16.384 6.53571 18.46C7.52471 19.452 8.86471 19.999 10.3067 19.999C11.7867 19.999 13.2309 19.404 14.2659 18.365L19.2928 13.323C19.6838 12.932 20.3159 12.931 20.7069 13.321C21.0989 13.711 21.0988 14.344 20.7088 14.735L15.6817 19.777C14.2717 21.19 12.3127 22 10.3057 22Z" fill="#091731"/>
</svg>
