<svg width="220" height="372" viewBox="0 0 220 372" fill="none" xmlns="http://www.w3.org/2000/svg">
<rect width="220" height="372" rx="8" fill="#4584FF"/>
<path d="M126.881 220.71C128.804 219.268 128.323 218.467 129.285 216.704C130.246 214.942 129.445 214.301 131.048 212.699C132.65 211.257 130.727 210.135 132.81 209.334C134.733 208.373 134.573 210.135 132.81 212.218C131.208 214.301 130.887 214.942 132.971 213.34C135.054 211.737 135.855 209.494 137.137 207.091C138.419 204.527 139.22 203.886 140.342 203.726C141.464 203.566 141.464 201.002 141.303 199.079C141.143 197.156 140.662 195.554 141.303 194.272C142.105 192.991 141.303 191.869 142.265 191.869C143.226 191.869 144.829 190.427 146.271 188.825C147.874 187.222 148.835 187.062 150.438 186.902C152.04 186.742 151.079 186.261 152.2 185.94C153.322 185.62 153.963 184.659 154.764 184.018C155.405 183.377 158.45 184.018 160.052 184.018C161.815 184.018 162.937 184.178 162.937 183.056C162.937 181.935 163.738 181.134 164.7 181.134C165.661 181.134 166.142 180.813 166.142 179.371C166.142 177.929 166.623 177.128 167.424 176.487C168.225 175.846 168.385 174.404 168.706 173.443C169.026 172.481 169.988 173.122 169.988 171.68C169.988 170.398 170.469 168.796 170.469 167.674C170.469 166.553 171.59 166.713 172.071 165.912C172.552 165.111 171.59 164.149 172.392 161.906C173.193 159.663 172.392 157.58 172.392 155.657C172.392 153.734 172.392 151.651 173.033 151.01C173.674 150.37 173.353 150.049 172.872 149.729C172.231 149.408 172.872 148.607 173.513 148.767C173.994 148.927 174.635 150.049 175.436 149.408C176.398 148.767 177.199 146.364 178 144.441C178.802 142.518 180.084 142.518 181.045 142.038C182.007 141.557 184.25 139.153 185.532 135.628C186.814 132.103 185.532 128.739 184.891 126.335C184.25 123.932 183.609 124.412 182.167 124.412C180.725 124.412 178 124.092 174.475 120.246C170.949 116.401 167.424 116.721 165.02 117.362C162.616 118.003 160.213 116.241 158.61 115.92C157.008 115.6 155.566 117.522 154.444 118.003C153.322 118.484 155.085 116.241 155.085 114.959C155.085 113.677 150.758 111.594 147.553 110.312C144.188 109.03 142.906 109.671 142.906 111.754C142.906 113.837 141.624 111.113 140.662 113.357C139.701 115.6 137.778 114.158 139.06 113.357C140.342 112.716 141.464 110.953 141.784 109.671C142.265 108.389 137.137 107.268 135.214 107.909C133.451 108.55 134.573 111.274 133.131 110.472C131.688 109.671 132.81 107.749 133.932 107.749C135.054 107.749 136.336 105.505 137.137 103.743C137.938 101.98 135.855 101.82 134.573 100.378C133.291 98.9359 133.611 94.7699 132.329 94.129C130.887 95.5711 129.125 97.6541 128.484 99.2564C127.843 101.339 126.881 100.057 125.118 100.698C123.356 101.339 122.394 100.538 121.913 99.737C121.433 98.9359 119.67 99.737 118.388 99.5768C117.106 99.4166 117.907 101.179 117.106 101.66C116.305 102.14 114.061 100.698 113.26 101.5C112.459 102.301 111.978 101.5 111.657 102.301C111.337 103.102 109.895 102.621 109.574 103.102C109.254 103.583 107.811 103.903 106.049 101.98C104.286 100.057 104.607 96.8529 105.408 96.212C106.209 95.5711 106.209 93.9688 105.087 93.4881C103.966 93.0074 105.087 90.9244 103.805 90.7642C102.523 90.604 102.684 92.3665 101.722 92.5267C100.921 92.8472 98.6773 94.2892 97.7158 94.129C96.7543 93.9688 95.4723 94.2892 95.4723 95.4108C95.4723 96.5324 94.3506 96.212 94.1904 95.2506C94.0301 94.4495 91.9469 94.9301 91.3059 94.2892C90.6649 93.6483 87.9407 93.9688 89.2227 94.6097C90.3444 95.2506 90.5047 95.8915 90.5047 97.0131C90.5047 98.1347 91.3059 97.8143 91.3059 99.0961C91.3059 100.378 92.2674 99.4166 92.9084 99.4166C93.5494 99.4166 93.5494 100.538 92.5879 100.698C91.4661 100.859 90.9854 101.5 90.8251 102.461C90.5047 103.422 89.5432 102.781 88.7419 103.583C87.9407 104.384 87.1394 105.185 86.4984 104.704C85.8575 104.384 85.3767 104.544 84.7357 105.025C84.0947 105.345 83.7742 105.025 82.8127 104.223C82.0115 103.583 81.691 102.301 80.409 101.019C79.6078 101.339 78.1655 101.98 77.204 101.98C76.0823 101.98 72.5568 101.66 72.3966 102.301C72.2363 102.942 72.7171 103.903 73.1978 104.063C73.8388 104.223 74.9605 104.544 73.8388 105.345C72.7171 106.146 71.5953 105.025 71.5953 107.108C71.5953 109.191 74.1593 110.472 73.6786 112.395C73.3581 113.357 73.0376 115.76 73.0376 116.721C73.0376 117.683 72.7171 120.887 71.7556 121.048C70.9543 121.208 70.1531 120.246 69.0313 121.208C67.9096 122.169 66.4674 121.528 65.1854 122.65C63.9034 123.771 62.4612 123.291 62.3009 124.573C62.1407 125.854 61.0189 126.495 61.1792 127.617C61.4997 128.739 60.5382 128.418 59.7369 129.379C58.9357 130.181 59.8972 130.822 59.2562 131.462C58.6152 132.103 59.4165 133.225 60.0574 134.186C60.6984 135.308 61.4997 135.949 61.3394 136.91C61.1792 137.872 61.9804 138.192 62.9419 138.192C63.9034 138.032 63.1022 139.955 64.7046 139.955C66.3071 139.955 67.7494 140.275 68.0699 139.474C68.3904 138.673 69.5121 137.872 69.5121 139.153C69.5121 140.435 69.1916 143.8 70.3133 143.319C71.4351 142.999 73.5183 142.999 74.4798 143.48C75.6015 143.8 76.563 143.48 77.204 142.839C77.845 142.198 78.6463 142.198 79.9282 141.397C81.2102 140.596 82.4922 139.634 83.7742 139.634C85.0562 139.634 87.1394 138.833 86.8189 139.794C86.4984 140.756 86.3382 144.281 87.9407 146.043C89.5432 147.806 90.3444 148.447 91.7866 148.287C93.2289 148.126 93.0686 148.927 94.0301 148.767C95.1519 148.607 94.3506 149.889 95.3121 149.889C96.2736 149.889 98.0363 150.049 98.0363 151.171C98.0363 152.292 100.921 151.331 101.562 151.972C102.203 152.613 103.004 153.093 102.844 154.215C102.684 155.337 104.286 156.138 103.325 156.618C102.363 157.099 103.645 158.06 103.645 159.342C103.805 160.624 105.087 161.105 107.17 160.945C109.254 160.784 109.895 161.105 109.895 162.547C109.895 163.989 111.337 164.309 111.818 165.751C112.298 167.194 111.177 168.796 111.497 169.917C111.657 170.719 111.177 171.68 110.536 172.161C111.337 173.122 111.337 173.443 110.696 173.923C109.895 174.404 111.818 175.686 111.337 177.929C110.856 180.012 110.696 180.493 112.939 180.493C115.183 180.653 115.023 181.294 115.664 180.813C116.465 180.332 117.587 182.415 117.907 183.537C118.228 184.659 119.029 187.062 119.51 187.062C119.83 187.062 121.112 185.94 122.234 186.421C123.356 186.902 121.913 190.587 121.913 192.189C122.715 192.189 123.676 192.189 123.997 192.35C124.638 192.67 124.798 196.516 124.638 197.317C124.317 198.118 121.913 198.759 120.792 199.56C119.51 200.361 116.625 203.245 115.183 205.488C114.382 206.77 113.1 207.892 112.298 208.853C112.619 208.853 113.1 208.853 113.26 208.853C113.901 208.533 114.862 208.533 115.984 209.815C117.106 211.096 116.946 212.058 117.426 212.058C117.907 212.058 118.388 210.295 119.189 211.577C119.99 212.859 122.234 213.82 122.875 214.301C123.356 214.942 125.118 215.262 125.118 216.865C125.118 217.986 124.638 220.069 125.439 221.832C125.759 221.672 126.24 221.191 126.881 220.71Z" fill="#161C23" stroke="#4584FF" stroke-width="1.40581" stroke-miterlimit="10"/>
<path d="M125.118 217.346C125.118 215.904 123.516 215.423 122.875 214.782C122.394 214.141 120.15 213.34 119.189 212.058C118.388 210.776 117.747 212.539 117.426 212.539C116.945 212.539 117.106 211.578 115.984 210.296C114.862 209.014 113.901 209.014 113.26 209.334C113.099 209.495 112.619 209.495 112.298 209.334C111.657 209.975 111.337 210.616 111.337 211.097C111.337 212.539 110.375 213.981 110.215 216.545C110.215 219.108 109.414 218.788 109.414 220.711C109.414 222.794 110.055 222.313 110.375 222.633C110.535 222.794 110.375 223.434 110.215 223.915C110.535 224.236 110.856 224.556 111.497 224.556C112.779 224.396 114.061 224.877 115.663 225.678C117.266 226.319 116.625 225.517 118.227 225.678C119.67 225.838 121.432 225.998 123.035 225.037C124.156 224.396 124.797 223.114 125.599 221.992C124.477 220.39 125.118 218.467 125.118 217.346Z" fill="#161C23" stroke="#4584FF" stroke-width="1.40581" stroke-miterlimit="10"/>
<path d="M84.4151 305.792C82.6523 305.792 79.1269 302.427 78.0051 301.626C76.8834 300.824 77.6846 299.863 76.4026 300.183C75.1207 300.344 75.9219 299.222 76.7231 298.902C77.3641 298.581 76.4026 297.299 75.6014 297.139C75.4412 299.062 75.1207 307.714 75.6014 307.714C76.0821 307.874 79.9281 307.234 81.0498 308.035C81.5306 308.195 82.0113 308.515 82.4921 308.035C83.1331 307.234 85.3766 307.714 86.4983 306.913C87.7803 306.112 86.1778 305.792 84.4151 305.792ZM123.996 192.99C123.676 192.83 122.714 192.83 121.913 192.83C121.913 192.99 121.913 192.99 121.913 193.15C122.073 194.432 121.272 197.957 120.311 197.957C119.349 197.797 118.548 199.399 117.747 199.239C116.946 199.079 115.984 200.361 114.862 199.88C113.901 199.239 112.619 200.04 111.818 199.559C111.016 199.079 108.773 199.399 108.773 198.919C108.773 198.278 109.895 198.598 109.895 196.836C109.895 195.073 112.779 193.15 112.459 192.509C112.138 191.868 107.17 190.426 106.529 189.465C105.888 188.664 104.927 187.863 103.004 187.702C101.081 187.542 101.241 186.581 99.4784 185.459C98.0362 184.498 95.7927 182.255 94.9915 180.813C93.8697 180.652 92.107 180.492 91.7865 180.813C91.3057 181.454 90.5045 184.017 89.8635 182.735C89.2225 181.454 87.62 181.454 86.1778 181.133C84.7355 180.973 84.8958 179.531 83.2933 181.293C82.6523 182.094 81.6908 182.735 80.8896 183.216C80.7294 184.818 80.5691 186.421 80.2486 187.062C79.9281 187.703 76.7231 189.145 76.5629 189.946C76.4026 190.747 76.8834 191.708 76.4026 192.189C75.7616 192.67 77.6846 195.073 76.7231 195.714C75.6014 196.355 77.5244 197.316 76.8834 197.797C76.2424 198.438 74.9604 198.598 74.9604 199.399C74.9604 200.04 74.8002 201.642 73.9989 202.123C73.1977 202.444 72.5567 203.886 72.5567 205.007C72.5567 206.129 71.2747 205.328 71.7554 206.77C72.2362 208.052 72.8772 209.814 71.7554 210.135C70.6337 210.455 70.9542 212.698 70.4735 212.698C69.8325 212.698 69.6722 214.941 70.4735 216.223C71.2747 217.345 71.5952 218.306 71.5952 219.428C71.5952 220.549 72.7169 221.03 72.3964 222.312C72.0759 223.434 72.2362 224.555 71.5952 225.036C70.9542 225.517 71.4349 226.959 70.6337 227.279C69.8324 227.6 71.2747 230.804 70.6337 231.285C69.9927 231.926 68.23 232.406 68.23 234.489C68.23 236.572 68.5505 237.854 68.3902 238.816C68.23 239.617 69.3517 239.457 69.1915 240.578C69.0312 241.86 67.4287 241.059 67.4287 241.86C67.2685 242.661 67.7492 244.263 67.2685 244.263C66.6275 244.424 66.4672 244.904 66.4672 246.346C66.4672 247.628 65.666 247.949 65.666 248.59C65.5058 249.231 66.307 250.032 66.307 250.833C66.307 251.634 66.7877 254.198 66.1467 254.358C65.5057 254.518 65.025 257.402 65.666 257.723C66.307 258.043 66.307 258.844 65.9865 259.485C65.666 260.126 67.2685 260.607 66.4672 261.568C65.666 262.369 66.307 263.491 67.4287 263.171C68.3902 262.85 69.0312 264.613 67.9095 264.613C66.7877 264.613 65.8262 264.613 66.6275 265.253C67.4287 265.894 68.3902 266.856 67.1082 267.336C65.8262 267.817 66.948 268.618 66.6275 269.9C66.307 271.022 67.4287 272.143 66.4672 272.464C65.5058 272.784 66.7877 274.547 65.5057 274.707C64.2238 274.867 65.025 276.149 64.2237 276.79C63.4225 277.431 65.3455 278.553 64.384 279.354C63.2623 279.995 64.0635 281.597 63.102 281.597C61.9803 281.597 61.4995 283.039 61.3393 283.68C61.179 284.321 60.538 285.763 61.4995 286.724C62.3008 287.686 61.3393 288.487 62.1405 288.807C62.9418 289.128 65.5057 288.647 65.1852 289.769C64.8648 290.89 64.8647 293.454 65.3455 293.454C65.8262 293.454 66.1467 294.896 66.948 294.736C67.7492 294.575 71.2747 294.255 72.7169 294.575C73.3579 294.736 73.9989 295.216 74.4797 295.537C75.2809 295.216 77.0436 296.338 77.5244 296.018C78.0051 295.537 75.7616 293.614 75.7616 292.973C75.7616 292.332 75.4411 291.211 75.4411 290.57C75.4411 289.929 75.1207 288.326 76.0821 287.525C77.0436 286.884 77.2039 286.083 77.8449 286.244C78.4859 286.404 79.7678 285.603 79.7678 284C79.7678 282.238 80.5691 281.597 82.0113 280.475C83.6138 279.193 86.1778 277.912 85.8573 277.271C85.5368 276.63 86.4983 274.867 86.4983 274.066C86.4983 273.425 84.0946 273.425 83.2933 273.265C82.4921 272.944 79.6076 271.022 81.0498 268.298C82.4921 265.734 85.5368 265.414 86.338 265.253C87.1393 265.253 86.338 263.972 87.1393 263.491C87.7803 263.01 87.9405 262.369 87.9405 261.248C87.9405 259.966 87.9405 258.043 89.2225 257.883C90.5045 257.723 90.825 257.082 90.0238 256.761C89.2225 256.601 88.902 255.64 90.184 255.479C91.466 255.319 90.9852 256.601 91.9467 256.601C92.9082 256.601 94.5107 254.999 93.2287 254.037C91.9467 253.076 91.6262 254.518 90.9852 254.678C90.3442 254.839 89.8635 253.877 89.2225 253.877C88.5815 253.877 89.0623 252.115 88.7418 251.474C88.4213 250.833 88.1008 249.231 88.5815 248.429C89.2225 247.628 91.6263 249.711 93.7095 249.711C95.7927 249.871 97.3952 248.59 97.3952 247.788C97.3952 246.987 96.4337 245.545 97.7157 244.744C98.9977 243.943 97.8759 243.623 97.5554 242.501C97.2349 241.379 98.1964 240.578 98.6772 241.219C99.3182 241.86 103.485 241.379 107.01 240.738C110.536 240.097 112.939 238.816 113.1 237.694C113.26 236.733 115.503 234.329 115.984 233.528C116.465 232.727 115.984 231.605 114.702 231.445C113.26 231.285 113.42 229.522 114.061 228.721C114.862 227.76 113.58 226.959 112.298 226.798C111.016 226.638 108.773 225.677 110.055 224.555C110.696 224.075 110.856 224.075 111.177 224.395C111.337 223.914 111.497 223.273 111.337 223.113C111.016 222.793 110.375 223.113 110.375 221.19C110.375 219.107 111.177 219.588 111.177 217.024C111.177 214.461 112.298 212.858 112.298 211.577C112.298 210.135 114.702 208.532 116.144 206.289C117.587 204.046 120.471 201.162 121.753 200.361C123.035 199.559 125.439 198.919 125.599 198.117C124.958 197.156 124.637 193.311 123.996 192.99Z" fill="#161C23" stroke="#4584FF" stroke-width="1.40581" stroke-miterlimit="10"/>
<path d="M65.8263 294.417C65.0251 294.577 64.7046 293.135 64.2239 293.135C63.7431 293.135 63.5829 290.571 64.0636 289.45C64.3841 288.328 61.8201 288.809 61.0189 288.488C60.2176 288.168 61.3394 287.367 60.3779 286.405C59.5767 285.444 60.2176 284.162 60.2176 283.361C60.3779 282.72 60.8587 281.278 61.9804 281.278C63.1021 281.278 62.3009 279.676 63.2624 279.035C64.3841 278.394 62.3009 277.272 63.1021 276.471C63.9034 275.83 63.1021 274.548 64.3841 274.388C65.6661 274.228 64.3841 272.465 65.3456 272.145C66.3071 271.824 65.1854 270.863 65.5059 269.581C65.8264 268.46 64.7046 267.498 65.9866 267.017C67.2686 266.537 66.3071 265.575 65.5059 264.934C64.7046 264.294 65.6661 264.294 66.7878 264.294C67.9096 264.294 67.2686 262.531 66.3071 262.851C65.1854 263.172 64.5444 262.05 65.3456 261.249C66.1468 260.448 64.5444 259.807 64.8649 259.166C65.1854 258.525 65.1853 257.884 64.5444 257.404C63.9034 257.083 64.3841 254.039 65.0251 254.039C65.6661 253.879 65.1854 251.315 65.1854 250.514C65.1854 249.713 64.3841 248.912 64.5444 248.271C64.7046 247.63 65.3456 247.469 65.3456 246.027C65.3456 244.746 65.6661 244.105 66.1468 243.944C66.7878 243.784 66.3071 242.342 66.3071 241.541C66.4673 240.74 67.9096 241.541 68.0698 240.259C68.2301 238.977 67.1083 239.138 67.2686 238.497C67.4288 237.535 67.1083 236.414 67.1083 234.17C67.1083 232.087 68.8711 231.607 69.5121 230.966C70.1531 230.325 68.7108 227.281 69.5121 226.96C70.3133 226.64 69.8326 225.198 70.4736 224.717C71.1146 224.236 70.9543 223.115 71.2748 221.993C71.5953 220.871 70.4736 220.23 70.4736 219.109C70.4736 217.987 70.3133 217.026 69.3518 215.904C68.5506 214.783 68.7108 212.379 69.3518 212.379C69.9928 212.379 69.6723 210.136 70.6338 209.816C71.7555 209.495 71.1145 207.893 70.6338 206.451C70.1531 205.169 71.435 205.81 71.435 204.688C71.435 203.567 72.0761 202.125 72.8773 201.804C73.6785 201.484 73.8388 199.721 73.8388 199.08C73.8388 198.439 75.1208 198.119 75.7617 197.478C76.4027 196.837 74.64 195.876 75.6015 195.395C76.7233 194.754 74.8003 192.351 75.281 191.87C75.922 191.389 75.4413 190.268 75.4413 189.627C75.6015 188.826 78.8065 187.383 79.127 186.743C79.4475 186.262 79.768 184.499 79.768 182.897C78.8065 183.538 77.845 183.858 77.6847 183.538C77.3643 182.897 77.845 180.814 76.8835 180.013C76.0823 179.212 76.563 177.449 75.7617 177.129C74.9605 176.808 73.8388 175.046 74.64 174.405C75.4413 173.764 74.64 172.642 75.281 172.162C75.922 171.521 74.9605 171.521 73.999 170.399C73.0375 169.278 74.3195 167.836 73.1978 167.034C72.076 166.233 72.076 165.112 71.7555 165.592C71.435 166.073 71.4351 167.675 70.4736 168.156C70.3133 168.156 69.9928 168.476 69.8326 168.637C69.8326 169.438 69.5121 170.72 69.8326 171.521C70.3133 172.642 70.4736 177.77 69.9928 179.853C69.5121 181.775 69.1916 183.538 68.7108 184.66C68.2301 185.941 69.6723 185.941 69.1916 186.582C68.5506 187.223 68.8711 188.505 68.8711 190.909C68.8711 193.152 67.5891 196.997 67.4288 198.279C67.4288 199.561 66.4673 200.202 66.6276 201.644C66.7878 202.926 65.9866 203.727 65.1854 204.368C64.3841 205.009 66.4674 207.092 66.4674 208.213C66.4674 209.335 64.8649 209.816 65.1854 211.738C65.6661 213.982 65.1854 217.987 65.1854 218.788C65.1854 219.59 64.2239 219.429 64.5444 221.032C64.7046 222.474 63.5829 222.954 63.4226 225.037C63.2624 227.12 61.4997 230.325 60.8587 231.927C60.2177 233.53 60.2176 234.491 59.4164 234.491C58.6152 234.491 58.2947 235.452 58.9357 236.894C59.5767 238.336 58.4549 239.458 59.4164 240.9C60.2176 242.342 60.0574 242.823 59.5767 244.265C59.0959 245.547 58.6152 245.707 58.6152 246.989C58.6152 248.271 57.6537 249.392 58.1344 250.834C58.7754 252.276 58.6152 252.757 57.8139 252.757C57.1729 252.757 56.6922 253.879 56.5319 256.282C56.2114 258.685 56.3717 258.525 57.9742 258.365C59.7369 258.205 58.2947 252.597 59.4164 252.597C60.5381 252.597 59.5767 251.635 60.6984 251.315C61.8201 250.995 60.8586 252.276 61.4996 252.597C62.1406 252.757 62.7816 253.398 61.6599 254.039C60.6984 254.68 61.8201 255.962 61.3394 256.763C60.8586 257.564 60.0574 258.365 60.5381 259.326C61.0189 260.288 60.0574 260.128 59.8972 261.409C59.8972 262.691 60.5382 262.691 60.0574 263.012C59.5767 263.332 60.6984 264.294 60.0574 264.294C59.4164 264.454 59.7369 265.415 60.2176 266.216C60.6984 267.017 59.2562 266.537 58.6152 267.178C57.9742 267.819 59.2562 268.459 58.9357 269.261C58.4549 270.062 57.3332 268.78 56.8524 268.459C56.3717 267.979 57.6537 267.178 58.2947 266.377C58.9357 265.575 57.6537 263.653 56.5319 263.973C55.4102 264.454 57.6537 265.575 57.6537 266.537C57.6537 267.498 55.8909 266.377 55.8909 267.338C55.8909 268.299 54.609 267.979 53.968 268.62C53.327 269.261 54.7692 269.902 54.1282 270.222C53.4872 270.382 52.2052 271.504 52.2052 272.145C52.2052 272.786 53.0065 272.946 53.0065 272.305C53.0065 271.664 54.1282 271.344 54.4487 272.305C54.7692 273.266 55.25 272.305 56.3717 272.465C57.3332 272.625 57.1729 274.228 56.6922 274.068C56.0512 274.068 55.5704 275.029 55.7307 275.99C55.8909 277.112 57.8139 275.99 58.7754 276.311C59.5767 276.631 59.4164 278.073 58.7754 277.593C58.2947 277.112 57.1729 276.311 56.6922 277.112C56.2114 277.913 55.4102 277.593 54.7692 277.272C54.1282 276.952 51.8847 278.554 52.686 279.035C53.4872 279.676 53.327 280.477 53.968 280.477C54.4487 280.477 55.25 279.996 55.5705 279.515C55.891 278.874 56.8524 278.394 56.8524 279.676C56.8524 280.957 55.5705 280.316 55.25 280.957C54.9295 281.598 54.4487 282.239 53.4872 282.88C52.686 283.521 53.4872 284.643 54.1282 284.162C54.7692 283.842 53.968 284.963 54.9294 285.123C55.8909 285.284 56.2114 284.482 55.8909 283.842C55.7307 283.201 56.3717 281.598 57.1729 282.399C57.9742 283.201 56.6922 284.002 56.6922 284.643C56.6922 285.284 56.2114 286.245 56.2114 287.046C56.2114 287.847 55.2499 287.367 55.4102 288.328C55.4102 289.129 53.4872 288.648 54.2885 289.129C55.25 289.77 53.6475 290.411 54.2885 291.052C54.7692 291.693 55.25 290.251 56.0512 290.571C56.8524 290.892 56.6922 291.052 57.6537 290.571C58.6152 290.09 59.2562 291.372 58.2947 291.693C57.3332 292.013 56.3717 292.975 56.8524 293.135C57.3332 293.295 58.4549 292.494 58.7754 293.295C59.0959 294.256 59.7369 293.936 59.8972 292.975C59.8972 292.013 61.6599 292.814 61.9804 293.616C62.3009 294.417 60.2177 294.897 59.0959 294.737C57.9742 294.577 57.4934 295.698 58.1344 296.66C58.7754 297.621 59.7369 296.66 60.5381 295.859C61.3394 295.058 65.1854 295.218 65.5059 296.179C65.8264 296.98 63.7431 296.339 63.5829 296.82C63.4226 297.301 61.8201 297.781 61.6599 297.141C61.4997 296.5 59.8972 297.301 59.8972 298.262C59.8972 299.224 58.6152 299.224 59.8972 299.544C61.1791 299.864 60.8587 298.262 62.7816 298.262C64.7046 298.422 65.8264 296.339 66.4674 297.621C67.1083 298.743 64.8649 299.704 64.0636 298.903C63.2624 298.262 62.3009 299.384 62.4611 300.505C62.4611 301.627 60.2177 300.185 59.0959 300.025C57.9742 299.864 58.4549 301.146 59.4164 302.108C60.3779 303.229 61.0189 301.947 62.1406 302.749C63.4226 303.55 63.4226 304.351 64.2239 303.55C65.0251 302.749 64.2239 302.909 63.5829 302.428C62.9419 302.108 63.5829 300.826 64.8649 301.467C66.1469 302.108 67.7493 300.826 67.4288 299.224C66.9481 297.461 68.7108 296.66 70.3133 296.179C71.9158 295.538 71.1145 297.301 69.8326 297.781C68.5506 298.262 68.3903 298.583 69.3518 299.704C70.3133 300.666 71.435 299.063 72.2363 299.864C73.0375 300.666 70.7941 300.505 70.4736 301.307C70.1531 302.108 71.7555 303.069 70.6338 303.55C69.3518 304.191 69.9928 301.146 69.3518 300.986C68.7108 300.666 68.0698 301.307 68.7108 302.909C69.3518 304.511 67.9096 303.069 67.1083 302.268C66.4673 301.467 65.3456 302.588 66.3071 303.55C67.1083 304.351 64.7046 303.55 64.7046 304.832C64.7046 306.113 65.8264 304.992 67.1083 305.312C68.3903 305.633 67.7493 307.395 68.7108 308.196C69.6723 308.837 68.8711 305.953 69.8326 305.633C70.794 305.472 69.8326 307.876 72.0761 308.677C74.3195 309.318 72.2363 308.196 73.1978 307.555C74.1593 306.915 75.4412 309.638 76.563 309.959C77.6847 310.279 76.8835 308.677 76.0823 307.876C75.281 307.075 76.8835 307.555 78.0052 307.876C79.127 308.196 79.9282 308.357 80.0885 307.555C80.2487 307.235 80.409 307.235 80.5692 307.395C79.4475 306.594 75.6015 307.235 75.1208 307.075C74.64 306.915 74.9605 298.422 75.1208 296.5H74.9605C73.999 296.5 71.9158 296.66 72.3965 295.218C72.3965 294.897 72.5568 294.897 72.717 294.737C72.2363 294.417 71.7555 293.936 70.9543 293.776C69.9928 293.936 66.4673 294.256 65.8263 294.417Z" fill="#161C23" stroke="#4584FF" stroke-width="1.40581" stroke-miterlimit="10"/>
<path d="M122.233 187.06C121.112 186.419 119.99 187.701 119.509 187.701C119.189 187.701 118.227 185.137 117.907 184.176C117.586 183.054 116.465 180.971 115.663 181.452C114.862 181.933 115.022 181.292 112.939 181.131C110.696 180.971 110.856 180.651 111.337 178.568C111.817 176.485 109.894 175.043 110.696 174.562C111.337 174.242 111.337 173.761 110.535 172.8C110.375 172.96 110.215 172.96 110.055 172.96C109.253 172.96 108.292 171.678 107.01 171.678C105.728 171.678 104.286 171.518 103.324 171.998C102.363 172.479 100.6 171.838 99.4782 172.639C98.3565 173.441 96.9142 175.043 97.0745 175.684C97.2347 176.325 96.754 180.491 96.113 180.651C95.9527 180.651 95.472 180.651 94.9912 180.651C95.7925 181.933 98.036 184.336 99.4782 185.297C101.241 186.419 101.081 187.38 103.004 187.541C104.927 187.701 105.888 188.502 106.529 189.303C107.17 190.104 112.138 191.546 112.458 192.348C112.779 192.988 109.894 194.911 109.894 196.674C109.894 198.436 108.773 198.276 108.773 198.757C108.773 199.398 111.016 198.917 111.817 199.398C112.619 199.878 113.901 199.077 114.862 199.718C115.824 200.359 116.945 198.917 117.747 199.077C118.548 199.237 119.349 197.795 120.31 197.795C121.272 197.956 122.073 194.431 121.913 192.988C121.753 191.867 123.355 187.701 122.233 187.06Z" fill="#161C23" stroke="#4584FF" stroke-width="1.40581" stroke-miterlimit="10"/>
<path d="M48.5192 106.787C49.4807 107.268 50.6024 107.108 50.9229 106.787C51.2434 106.467 52.0447 107.268 53.1664 108.55L53.3267 108.71C54.2882 108.55 55.5702 108.229 56.0509 108.55C57.0124 109.19 56.6919 111.113 57.9739 111.273C59.2559 111.434 60.0571 112.555 60.0571 113.356C59.8969 113.997 61.3391 114.318 61.3391 115.439C61.1788 116.401 64.5441 116.241 65.0248 115.92C65.5056 115.6 66.3068 115.439 66.9478 115.76C67.5888 116.08 68.5503 115.439 69.031 115.6C69.672 115.76 71.7552 116.721 71.4347 117.522C70.954 118.324 69.3515 119.605 69.8323 120.246C70.1528 120.727 71.2745 121.047 71.7552 121.849H71.9155C72.7167 121.688 73.1975 118.484 73.1975 117.522C73.1975 116.561 73.518 114.158 73.8385 113.196C74.3192 111.273 71.7552 109.992 71.7552 107.909C71.7552 105.826 72.7167 106.947 73.9987 106.146C75.1205 105.345 73.9987 105.025 73.3577 104.864C72.7167 104.704 72.3962 103.743 72.5565 103.102C72.7167 102.461 76.2422 102.781 77.3639 102.781C78.4857 102.781 80.8894 101.82 81.0497 101.66C81.0497 101.499 81.3702 100.698 80.4087 100.057C79.6074 99.4165 79.9279 98.4551 80.5689 97.654C81.2099 96.8528 80.0882 96.0517 79.2869 95.2505C78.4857 94.2892 79.1267 90.9244 80.0882 89.3221C81.0497 87.7198 78.1652 88.0402 76.2422 88.3607C74.4795 88.5209 72.877 87.88 71.7552 86.4379C70.6335 84.9959 69.031 85.9572 66.3068 85.9572C63.5826 85.9572 64.0633 82.9129 64.2236 81.6311C64.3838 80.5094 62.7813 80.3492 62.7813 79.5481C62.7813 78.7469 61.9801 78.7469 61.3391 78.9072C60.6981 78.9072 61.3391 78.106 61.8198 77.4651C62.3006 76.8242 62.3006 76.3435 62.3006 75.0616C62.3006 73.7798 64.2236 72.6582 65.1851 71.3764C65.3453 71.0559 65.826 70.8957 66.1465 70.7355C66.3068 70.415 66.467 70.2548 66.9478 70.0945C68.39 69.7741 69.031 68.8127 67.749 68.1718C66.467 67.3706 65.6658 69.6138 64.0633 69.9343C62.6211 70.0945 62.3006 71.0559 61.3391 71.5366C60.3776 72.0173 58.4546 71.5366 58.4546 72.498C58.4546 73.4594 57.8136 72.498 57.0124 72.3377C56.2111 72.1775 53.9677 74.1003 53.9677 75.0616C53.9677 76.1832 54.4484 77.1446 52.8459 78.106C51.2435 79.0674 50.282 80.9901 49.641 81.7913C49.4807 82.1117 49.1602 82.1117 49 81.9515C48.8397 82.4322 48.8397 82.7527 48.5192 82.9129C48.1987 83.2333 47.2372 84.1947 46.2757 84.9959C46.7565 85.3163 47.077 85.797 47.2372 85.9572C48.1987 87.0788 47.5577 87.88 47.8782 88.5209C48.1987 89.1618 48.5192 89.963 47.8782 90.2834C47.2372 90.6039 47.8782 94.6096 48.5192 95.2505C49.1602 95.8915 48.5192 96.5324 47.8782 97.9744C47.2372 99.4165 46.5962 100.057 45.3142 100.057C44.0323 100.057 44.0323 102.14 43.7118 102.14C43.3913 102.14 43.0708 102.942 43.0708 103.422C44.1925 104.384 46.436 105.665 47.077 105.665C47.2372 105.345 47.5577 106.306 48.5192 106.787Z" fill="#161C23" stroke="#4584FF" stroke-width="1.40581" stroke-miterlimit="10"/>
<path d="M111.978 166.391C111.497 164.949 110.055 164.789 110.055 163.187C110.055 161.584 109.414 161.424 107.331 161.584C105.248 161.745 103.966 161.264 103.805 159.982C103.645 158.7 102.523 157.739 103.485 157.258C104.446 156.778 102.844 155.976 103.004 154.855C103.164 153.733 102.363 153.252 101.722 152.612C101.081 151.971 98.1966 152.932 98.1966 151.81C98.1966 150.689 96.4339 150.529 95.4724 150.529C94.5109 150.529 95.1519 149.247 94.1904 149.407C93.0686 149.567 93.3892 148.766 91.9469 148.926C90.5047 149.086 89.7034 148.446 88.101 146.683C86.4985 144.921 86.819 141.395 86.9792 140.434C87.2997 139.473 85.2165 140.274 83.9345 140.274C82.6525 140.274 81.5308 141.235 80.0885 142.036C78.8066 142.838 78.0053 142.838 77.3643 143.478C76.7233 144.119 75.6016 144.6 74.6401 144.119C74.3196 143.959 73.9991 143.959 73.5183 143.799C74.1593 145.241 75.4413 147.484 75.7618 148.285C76.0823 149.407 75.2811 149.567 74.9606 150.048C74.6401 150.368 75.1208 153.893 75.2811 154.695C75.4413 155.496 73.9991 156.938 74.4798 157.418C75.1208 157.899 73.6786 159.341 73.6786 160.142C73.6786 160.943 74.9606 160.943 74.9606 161.584C74.9606 162.225 73.8388 163.828 73.1979 164.148C72.8774 164.308 72.8774 164.949 72.8774 165.43C73.0376 165.43 73.1978 166.231 74.1593 167.032C75.2811 167.833 73.9991 169.275 74.9606 170.397C75.9221 171.519 76.8836 171.679 76.2426 172.159C75.6016 172.8 76.4028 173.922 75.6016 174.403C74.8003 175.044 75.9221 176.646 76.7233 177.127C77.5246 177.447 77.0438 179.21 77.845 180.011C78.6463 180.812 78.3258 182.895 78.6463 183.536C78.9668 184.177 81.5308 182.574 82.973 180.972C84.5755 179.37 84.4152 180.652 85.8575 180.812C87.2997 180.972 88.9022 180.972 89.5432 182.414C90.1842 183.696 90.9854 181.132 91.4662 180.491C91.9469 179.851 95.1519 180.652 95.7929 180.491C96.4339 180.331 96.9146 176.165 96.7544 175.524C96.5941 174.883 98.0364 173.281 99.1581 172.48C100.28 171.679 102.043 172.32 103.004 171.839C103.966 171.358 105.408 171.519 106.69 171.519C107.972 171.519 108.933 172.8 109.735 172.8C110.536 172.8 111.497 171.519 111.337 170.397C111.337 169.436 112.459 167.833 111.978 166.391Z" fill="#161C23" stroke="#4584FF" stroke-width="1.40581" stroke-miterlimit="10"/>
<path d="M72.8768 165.591C72.8768 165.591 73.037 165.591 72.8768 165.591C72.8768 164.95 72.8768 164.31 73.1973 164.149C73.8383 163.829 74.96 162.227 74.96 161.586C74.96 160.945 73.678 160.945 73.678 160.144C73.678 159.342 74.96 157.9 74.4793 157.42C73.8383 156.939 75.2805 155.497 75.2805 154.696C75.1203 153.895 74.6395 150.53 74.96 150.049C75.2805 149.729 76.242 149.408 75.7612 148.287C75.4407 147.485 74.1588 145.082 73.5178 143.8C72.396 143.64 71.114 143.64 70.4731 143.96C69.3513 144.281 69.6718 141.076 69.6718 139.794C69.6718 138.513 68.5501 139.154 68.2296 140.115C67.9091 140.916 66.3066 140.596 64.8644 140.596C63.2619 140.596 64.0631 138.673 63.1016 138.833C62.1401 138.993 61.3389 138.513 61.4991 137.551C61.6594 136.59 60.8581 135.789 60.2171 134.827C59.5761 133.706 58.7749 132.744 59.4159 132.103C60.0569 131.463 59.0954 130.822 59.8966 130.02C60.6979 129.219 61.6594 129.38 61.3389 128.258C61.0184 127.136 62.3004 126.495 62.4606 125.214C62.6209 123.932 64.0631 124.412 65.3451 123.291C66.6271 122.169 68.0693 122.81 69.1911 121.849C70.3128 120.887 70.9538 121.689 71.755 121.689C71.2743 121.048 70.1525 120.727 69.832 120.086C69.5116 119.445 71.114 118.164 71.4345 117.362C71.9153 116.561 69.6718 115.76 69.0308 115.44C68.3898 115.279 67.4283 115.92 66.9476 115.6C66.3066 115.279 65.5053 115.44 65.0246 115.76C64.5438 116.081 61.1786 116.241 61.3389 115.279C61.4991 114.318 60.0569 113.998 60.0569 113.196C60.2172 112.555 59.2557 111.274 57.9737 111.113C56.6917 110.953 57.0122 109.03 56.0507 108.39C55.5699 108.069 54.2879 108.229 53.3264 108.55C54.4482 109.832 54.7687 110.312 54.1277 110.793C53.1662 111.594 54.1277 111.754 52.365 113.998C50.6022 116.401 47.5575 117.042 45.955 117.362C44.5128 117.843 43.8718 120.567 43.0706 122.49C42.2693 124.412 41.6283 123.772 40.8271 122.65C40.0258 121.528 39.3849 122.81 38.4234 122.009C37.4619 121.048 37.9426 121.048 38.4234 120.407C38.7439 120.086 38.4233 119.445 37.7824 118.804C36.6606 118.965 35.6991 120.567 35.0581 121.689C34.4171 122.97 36.0196 125.214 36.3401 126.175C36.5004 126.976 35.5389 126.175 35.3786 126.976C35.2184 127.777 37.7823 128.899 38.9041 129.7C40.0258 130.501 40.9873 133.065 42.1091 134.186C43.2308 135.308 43.2308 136.269 44.3525 139.154C45.4743 141.877 47.7178 146.684 49.3202 148.607C50.9227 150.53 51.5637 152.132 51.2432 152.773C50.9227 153.414 51.2432 154.856 52.5252 155.657C53.6469 156.458 54.6085 157.74 57.6532 159.182C60.6979 160.624 66.1463 163.508 66.9476 164.95C67.7488 166.232 70.3128 167.514 70.7935 167.835C70.9538 167.835 70.9538 168.155 70.9538 168.476C71.2743 168.155 71.4345 167.995 71.5948 167.995C72.5563 167.674 72.5563 166.072 72.8768 165.591Z" fill="#161C23" stroke="#4584FF" stroke-width="1.40581" stroke-miterlimit="10"/>
<path d="M64.865 70.7354C63.9035 72.0172 62.1407 73.1388 61.9805 74.4207C61.9805 75.7025 61.9805 76.1832 61.4997 76.8241C61.019 77.465 60.378 78.4264 61.019 78.2662C61.66 78.2662 62.4612 78.2662 62.4612 78.9071C62.4612 79.7082 64.0637 79.8685 63.9035 80.9901C63.7432 82.1117 63.2625 85.3163 65.9867 85.3163C68.7109 85.3163 70.3134 84.3549 71.4351 85.7969C72.5569 87.239 74.1594 88.0402 75.9221 87.7197C77.6848 87.5595 80.7296 87.0788 79.7681 88.6811C78.8066 90.2834 78.1656 93.6482 78.9668 94.6096C79.7681 95.5709 80.8898 96.3721 80.2488 97.013C79.6078 97.8141 79.2873 98.7755 80.0886 99.4164C80.8898 100.057 80.7296 100.858 80.7296 101.019C80.7296 101.019 80.5693 101.179 80.2488 101.339C81.5308 102.621 82.0115 104.063 82.6525 104.544C83.614 105.345 83.9345 105.665 84.5755 105.345C85.2165 105.024 85.6973 104.704 86.3383 105.024C86.9793 105.345 87.6202 104.704 88.5817 103.903C89.383 103.102 90.3445 103.743 90.665 102.781C90.9855 101.82 91.4662 101.179 92.4277 101.019C93.5494 100.858 93.5494 99.7369 92.7482 99.7369C92.1072 99.7369 91.1457 100.538 91.1457 99.4164C91.1457 98.2948 90.3445 98.4551 90.3445 97.3335C90.3445 96.2119 90.1842 95.571 89.0625 94.93C87.9407 94.2891 90.665 93.9686 91.1457 94.6096C91.7867 95.2505 93.7097 94.7698 94.0302 95.5709C94.1904 96.3721 95.3122 96.6926 95.3122 95.7312C95.3122 94.6096 96.5942 94.2891 97.5557 94.4493C98.5171 94.6096 100.6 93.1675 101.562 92.847C102.043 92.6868 102.203 92.2061 102.363 91.7254C101.722 90.9243 100.761 89.4822 100.28 89.1618C99.6389 88.5209 100.761 88.2004 100.6 87.3992C100.44 86.5981 100.6 85.9572 102.043 85.9572C103.485 85.797 103.325 84.6753 102.523 84.1946C101.722 83.714 102.844 82.4321 103.645 81.9514C103.966 81.7912 104.446 81.1503 104.767 80.3492C103.164 79.7082 101.081 79.8685 100.12 79.8685C98.8377 79.8685 100.921 78.5866 100.921 77.3048C100.921 76.023 97.5557 75.8627 96.1134 75.5423C94.8314 75.2218 95.1519 73.7797 96.5942 73.7797C98.0364 73.7797 95.7929 72.6581 93.8699 72.9786C91.947 73.2991 89.2227 74.2604 87.6203 75.2218C86.0178 76.023 83.2935 72.6581 81.5308 73.4593C79.7681 74.1002 77.2041 74.1002 77.3643 72.8184C77.3643 71.3763 76.7234 70.2547 74.8004 70.2547C73.0376 70.4149 73.5184 68.4922 72.0762 68.4922C70.7942 68.4922 72.0761 70.0945 71.1147 70.5752C70.1532 71.0558 66.9482 71.857 66.7879 73.1388C66.6277 74.4207 68.5507 76.5036 67.9097 77.7855C67.2687 79.0673 65.1854 77.9457 64.5445 76.6639C63.9035 75.382 66.4675 73.2991 65.9867 72.4979C65.6662 72.0172 65.3457 70.8956 65.506 70.2547C65.506 70.2547 65.1855 70.4149 64.865 70.7354Z" fill="#161C23" stroke="#4584FF" stroke-width="1.40581" stroke-miterlimit="10"/>
<path d="M113.741 90.6047C114.221 91.566 113.1 92.0467 112.298 92.0467C111.337 92.207 111.657 94.2899 111.016 94.7706C110.375 95.4115 113.26 96.8536 113.741 98.1354C114.061 98.9366 114.862 100.539 115.664 101.821C116.305 101.981 116.946 102.141 117.266 101.981C118.067 101.5 117.426 99.898 118.548 99.898C119.83 100.058 121.593 99.257 122.074 100.058C122.234 100.218 122.234 100.379 122.394 100.539C122.875 99.898 123.195 99.257 123.356 99.0968C123.516 98.6161 123.516 96.2127 123.035 94.7706C122.394 93.3286 122.875 91.566 123.676 90.9251C123.836 90.7649 123.996 90.124 124.317 89.3228C123.195 88.8421 122.073 88.5217 121.112 88.5217C119.349 88.6819 117.587 89.4831 116.946 88.5217C116.305 87.5603 115.343 87.7205 114.542 88.5217C114.382 88.5217 114.382 88.6819 114.221 88.6819C113.901 89.3228 113.58 90.124 113.741 90.6047Z" fill="#161C23" stroke="#4584FF" stroke-width="1.40581" stroke-miterlimit="10"/>
<path d="M103.966 82.1121C103.164 82.5928 102.043 83.8746 102.844 84.3553C103.645 84.836 103.966 85.9576 102.363 86.1178C100.921 86.278 100.761 86.7587 100.921 87.5599C101.081 88.361 99.9594 88.6815 100.6 89.3224C101.081 89.6428 102.043 91.0849 102.684 91.886C102.844 91.4054 103.164 91.0849 103.805 91.2451C105.087 91.4054 104.126 93.4883 105.087 93.969C106.209 94.4497 106.209 96.052 105.408 96.6929C104.607 97.3338 104.286 100.538 106.049 102.461C107.812 104.384 109.094 104.063 109.574 103.583C109.895 103.102 111.337 103.583 111.658 102.782C111.978 101.98 112.459 102.942 113.26 101.98C113.741 101.5 114.702 101.82 115.503 101.98C114.862 100.699 113.901 99.0964 113.58 98.2952C113.1 97.0134 110.376 95.5713 110.856 94.9304C111.497 94.2895 111.177 92.2065 112.138 92.2065C113.1 92.0463 114.061 91.5656 113.58 90.7644C113.42 90.2838 113.58 89.4826 113.901 88.6815C112.939 88.5212 111.658 85.9576 110.856 85.9576C110.055 85.9576 108.933 85.3166 109.254 84.0348C109.414 82.753 107.331 82.753 106.049 81.3109C105.728 80.9905 105.408 80.67 104.927 80.5098C104.767 81.3109 104.286 81.9518 103.966 82.1121Z" fill="#161C23" stroke="#4584FF" stroke-width="1.40581" stroke-miterlimit="10"/>
<path d="M123.035 94.61C123.676 96.052 123.676 98.4555 123.355 98.9362C123.195 99.0964 122.875 99.8975 122.394 100.378C122.875 101.019 123.836 101.34 125.278 100.859C127.041 100.218 128.003 101.5 128.644 99.4168C129.124 97.8146 131.047 95.7316 132.49 94.2895C131.208 93.6486 129.124 90.444 127.041 89.9633C126.08 89.8031 125.278 89.3224 124.317 89.0019C123.996 89.9633 123.836 90.6042 123.676 90.6042C122.875 91.4054 122.554 93.3281 123.035 94.61Z" fill="#161C23" stroke="#4584FF" stroke-width="1.40581" stroke-miterlimit="10"/>
<path d="M53.3268 108.549C52.2051 107.268 51.2436 106.466 51.0834 106.787C50.7629 107.107 49.4809 107.268 48.6796 106.787C47.7181 106.306 47.3976 105.345 46.5964 105.345C45.9554 105.345 43.8722 104.063 42.5902 103.102C42.5902 103.262 42.5902 103.422 42.5902 103.582C42.5902 104.223 41.6287 104.704 40.3467 104.704C39.0647 104.704 39.225 106.146 39.225 107.107C39.225 108.069 38.2635 108.069 37.7827 109.03C37.302 109.991 37.943 110.312 36.9815 110.793C36.02 111.273 35.6995 112.074 36.3405 113.036C36.9815 113.837 36.3405 114.638 36.1802 115.119C36.02 115.599 36.9815 115.76 38.1032 116.721C39.0647 117.682 39.225 116.401 39.7057 117.042C40.1865 117.682 39.3852 118.964 38.2635 118.964C38.1032 118.964 38.1032 118.964 37.943 118.964C38.584 119.605 38.9045 120.246 38.584 120.567C38.1032 121.368 37.6225 121.368 38.584 122.169C39.5455 123.13 40.1865 121.688 40.9877 122.81C41.7889 123.931 42.43 124.572 43.2312 122.65C44.0324 120.727 44.6734 118.003 46.1156 117.522C47.5579 117.042 50.6026 116.401 52.5256 114.157C54.2883 111.754 53.3268 111.594 54.2883 110.953C54.9293 110.472 54.4486 109.991 53.3268 108.549Z" fill="#161C23" stroke="#4584FF" stroke-width="1.40581" stroke-miterlimit="10"/>
<path d="M98.6774 75.2224C98.1966 74.902 99.3184 74.1008 98.5171 73.7803C97.8762 73.4599 100.12 72.4985 100.921 73.1394C101.722 73.7803 101.722 74.7417 101.081 75.0622C100.44 75.2224 98.9979 75.5429 98.6774 75.2224Z" fill="#161C23" stroke="#4584FF" stroke-width="1.40581" stroke-miterlimit="10"/>
<rect x="156" y="8" width="24" height="24" rx="12" fill="#161C23"/>
<path fill-rule="evenodd" clip-rule="evenodd" d="M174.353 25.6467L171.44 22.7333C172.207 21.8133 172.667 20.6267 172.667 19.3333C172.667 16.3867 170.28 14 167.333 14C164.387 14 162 16.3867 162 19.3333C162 22.28 164.387 24.6667 167.333 24.6667C168.627 24.6667 169.813 24.2067 170.733 23.44L173.647 26.3533C173.747 26.4533 173.873 26.5 174 26.5C174.127 26.5 174.253 26.4533 174.353 26.3533C174.547 26.16 174.547 25.84 174.353 25.6467ZM169.333 19.8333H167.833V21.3333C167.833 21.6067 167.607 21.8333 167.333 21.8333C167.06 21.8333 166.833 21.6067 166.833 21.3333V19.8333H165.333C165.06 19.8333 164.833 19.6067 164.833 19.3333C164.833 19.06 165.06 18.8333 165.333 18.8333H166.833V17.3333C166.833 17.06 167.06 16.8333 167.333 16.8333C167.607 16.8333 167.833 17.06 167.833 17.3333V18.8333H169.333C169.607 18.8333 169.833 19.06 169.833 19.3333C169.833 19.6067 169.607 19.8333 169.333 19.8333Z" fill="white"/>
<rect x="188" y="8" width="24" height="24" rx="12" fill="#161C23"/>
<path fill-rule="evenodd" clip-rule="evenodd" d="M206.353 25.6467L203.44 22.7333C204.207 21.8133 204.667 20.6267 204.667 19.3333C204.667 16.3867 202.28 14 199.333 14C196.387 14 194 16.3867 194 19.3333C194 22.28 196.387 24.6667 199.333 24.6667C200.627 24.6667 201.813 24.2067 202.733 23.44L205.647 26.3533C205.747 26.4533 205.873 26.5 206 26.5C206.127 26.5 206.253 26.4533 206.353 26.3533C206.547 26.16 206.547 25.84 206.353 25.6467ZM201.333 19.8333H197.333C197.06 19.8333 196.833 19.6067 196.833 19.3333C196.833 19.06 197.06 18.8333 197.333 18.8333H201.333C201.607 18.8333 201.833 19.06 201.833 19.3333C201.833 19.6067 201.607 19.8333 201.333 19.8333Z" fill="white"/>
</svg>
