   <svg
              xmlns="http://www.w3.org/2000/svg"
              fill="none"
              viewBox="0 0 24 24"
              stroke="currentColor"
              className="w-4 h-4"
            >
              <path
                strokeLinecap="round"
                strokeLinejoin="round"
                strokeWidth={2}
                d="M12 8c1.38 0 2.5 1.12 2.5 2.5S13.38 13 12 13s-2.5-1.12-2.5-2.5S10.62 8 12 8zm0 0c1.38 0 2.5 1.12 2.5 2.5S13.38 13 12 13s-2.5-1.12-2.5-2.5S10.62 8 12 8zm0 6.5v1m0 4v1m-6 0h12m-6-1v-1m-4.5-5.5h9m-.5 5.5h-8m0-3.5v-1m4.5 3v-2m-2.5 0h5m-5.5 2v-2m-.5 5.5h1.5"
              />
            </svg>