<svg width="16" height="16" viewBox="0 0 16 16" fill="none" xmlns="http://www.w3.org/2000/svg">
<path d="M14.6666 11.3335C14.6666 11.4202 14.6486 11.5069 14.6153 11.5882C14.548 11.7509 14.418 11.8809 14.2546 11.9489C14.1733 11.9829 14.0866 12.0002 14 12.0002H11.2306C10.8626 12.0002 10.564 11.7015 10.564 11.3335C10.564 10.9655 10.8626 10.6669 11.2306 10.6669H12.3906L8.66663 6.9429L6.94263 8.66685C6.4233 9.18685 5.57663 9.18685 5.0573 8.66685L1.52863 5.13821C1.26796 4.87754 1.26796 4.45617 1.52863 4.1955C1.7893 3.93483 2.21063 3.93483 2.4713 4.1955L5.99996 7.72415L7.72396 6.00019C8.2433 5.48019 9.08996 5.48019 9.6093 6.00019L13.3333 9.72415V8.56415C13.3333 8.19615 13.632 7.89749 14 7.89749C14.368 7.89749 14.6666 8.19615 14.6666 8.56415V11.3335Z" fill="white"/>
</svg>
                                       