<svg width="16" height="16" viewBox="0 0 16 16" fill="none" xmlns="http://www.w3.org/2000/svg">
<path d="M14.6666 4.66667V7.43604C14.6666 7.80404 14.368 8.1027 14 8.1027C13.632 8.1027 13.3333 7.80404 13.3333 7.43604V6.27604L9.6093 10C9.08996 10.52 8.2433 10.52 7.72396 10L5.99996 8.27604L2.4713 11.8047C2.3413 11.9347 2.17063 12 1.99996 12C1.8293 12 1.65863 11.9347 1.52863 11.8047C1.26796 11.544 1.26796 11.1226 1.52863 10.862L5.0573 7.33333C5.57663 6.81333 6.4233 6.81333 6.94263 7.33333L8.66663 9.05729L12.3906 5.33333H11.2306C10.8626 5.33333 10.564 5.03467 10.564 4.66667C10.564 4.29867 10.8626 4 11.2306 4H14C14.0866 4 14.1733 4.01794 14.2546 4.05127C14.418 4.11927 14.5473 4.24861 14.6153 4.41195C14.6486 4.49328 14.6666 4.58 14.6666 4.66667Z" fill="white"/>
</svg>
 