<svg width="16" height="16" viewBox="0 0 16 16" fill="none" xmlns="http://www.w3.org/2000/svg">
<path d="M8.00004 1.33301C4.31804 1.33301 1.33337 4.31767 1.33337 7.99967C1.33337 11.6817 4.31804 14.6663 8.00004 14.6663C11.682 14.6663 14.6667 11.6817 14.6667 7.99967C14.6667 4.31767 11.682 1.33301 8.00004 1.33301ZM10.3534 7.68636C10.2561 7.78369 10.128 7.83301 10 7.83301C9.87204 7.83301 9.74402 7.78436 9.64669 7.68636L8.50004 6.53971V10.6663C8.50004 10.9423 8.27604 11.1663 8.00004 11.1663C7.72404 11.1663 7.50004 10.9423 7.50004 10.6663V6.54036L6.35339 7.68701C6.15806 7.88234 5.84137 7.88234 5.64604 7.68701C5.4507 7.49168 5.4507 7.17499 5.64604 6.97965L7.64604 4.97965C7.69204 4.93365 7.7473 4.89708 7.80863 4.87174C7.93063 4.82108 8.06863 4.82108 8.19063 4.87174C8.25197 4.89708 8.30739 4.93365 8.35339 4.97965L10.3534 6.97965C10.5487 7.17499 10.5487 7.49103 10.3534 7.68636Z" fill="#00A711"/>
</svg>
