<svg width="20" height="20" viewBox="0 0 20 20" fill="none" xmlns="http://www.w3.org/2000/svg">
<path d="M10.0001 2.08398C6.09425 2.08398 2.91675 5.26148 2.91675 9.16732C2.91675 13.3198 6.77425 15.8681 9.32675 17.554L9.76841 17.8473C9.83841 17.894 9.91924 17.9173 9.99924 17.9173C10.0792 17.9173 10.1601 17.894 10.2301 17.8473L10.6717 17.554C13.2242 15.8681 17.0817 13.3198 17.0817 9.16732C17.0834 5.26148 13.9059 2.08398 10.0001 2.08398ZM10.0001 11.2507C8.84925 11.2507 7.91675 10.3182 7.91675 9.16732C7.91675 8.01648 8.84925 7.08398 10.0001 7.08398C11.1509 7.08398 12.0834 8.01648 12.0834 9.16732C12.0834 10.3182 11.1509 11.2507 10.0001 11.2507Z" fill="white"/>
</svg>
