<svg width="20" height="20" viewBox="0 0 20 20" fill="none" xmlns="http://www.w3.org/2000/svg">
<path d="M10.0001 2.08301C6.09425 2.08301 2.91675 5.26051 2.91675 9.16634C2.91675 13.3188 6.77425 15.8671 9.32675 17.553L9.76841 17.8464C9.83841 17.893 9.91924 17.9163 9.99924 17.9163C10.0792 17.9163 10.1601 17.893 10.2301 17.8464L10.6717 17.553C13.2242 15.8671 17.0817 13.3188 17.0817 9.16634C17.0834 5.26051 13.9059 2.08301 10.0001 2.08301ZM10.0001 11.2497C8.84925 11.2497 7.91675 10.3172 7.91675 9.16634C7.91675 8.01551 8.84925 7.08301 10.0001 7.08301C11.1509 7.08301 12.0834 8.01551 12.0834 9.16634C12.0834 10.3172 11.1509 11.2497 10.0001 11.2497Z" fill="#091731"/>
</svg>
