<svg width="20" height="20" viewBox="0 0 20 20" fill="none" xmlns="http://www.w3.org/2000/svg">
<path d="M16.6667 8.33268V9.16602C15.7917 9.16602 15.0167 9.94102 14.5083 10.6243C14.05 9.94102 13.3 9.16602 12.2167 9.16602C11.1833 9.16602 10.4583 9.87436 10 10.5327C9.54167 9.87436 8.81666 9.16602 7.78333 9.16602C6.7 9.16602 5.95 9.94102 5.49166 10.6243C4.98333 9.94102 4.20833 9.16602 3.33333 9.16602V8.33268C3.33333 6.66602 4.16667 5.83268 5.83333 5.83268H6.04167V4.16602C6.04167 3.82435 6.325 3.54102 6.66667 3.54102C7.00833 3.54102 7.29167 3.82435 7.29167 4.16602V5.83268H9.375V4.16602C9.375 3.82435 9.65833 3.54102 10 3.54102C10.3417 3.54102 10.625 3.82435 10.625 4.16602V5.83268H12.7083V4.16602C12.7083 3.82435 12.9917 3.54102 13.3333 3.54102C13.675 3.54102 13.9583 3.82435 13.9583 4.16602V5.83268H14.1667C15.8333 5.83268 16.6667 6.66602 16.6667 8.33268ZM15 12.166C14.8833 12.3827 14.65 12.516 14.4 12.4993C14.1583 12.4827 13.9417 12.316 13.8583 12.0827C13.85 12.066 13.2333 10.416 12.2167 10.416C11.3667 10.416 10.7417 11.6493 10.5917 12.0827C10.5 12.3327 10.2667 12.4993 10 12.4993C9.73333 12.4993 9.50001 12.3327 9.40834 12.0827C9.40834 12.066 8.79166 10.416 7.78333 10.416C6.76666 10.416 6.15 12.066 6.14166 12.0827C6.05833 12.316 5.84167 12.4827 5.6 12.4993C5.34167 12.5077 5.11667 12.3827 5 12.166C4.60833 11.4327 3.80833 10.416 3.33333 10.416V14.3743H16.6667V10.416C16.1917 10.416 15.3917 11.4327 15 12.166ZM2.5 15.6243V15.8327C2.5 16.7493 3.25 17.4993 4.16667 17.4993H15.8333C16.75 17.4993 17.5 16.7493 17.5 15.8327V15.6243H2.5Z" fill="white"/>
</svg>
