<svg width="20" height="20" viewBox="0 0 20 20" fill="none" xmlns="http://www.w3.org/2000/svg">
<path d="M16.6667 8.33366V9.16699C15.7917 9.16699 15.0167 9.94199 14.5083 10.6253C14.05 9.94199 13.3 9.16699 12.2167 9.16699C11.1833 9.16699 10.4583 9.87534 10 10.5337C9.54167 9.87534 8.81666 9.16699 7.78333 9.16699C6.7 9.16699 5.95 9.94199 5.49166 10.6253C4.98333 9.94199 4.20833 9.16699 3.33333 9.16699V8.33366C3.33333 6.66699 4.16667 5.83366 5.83333 5.83366H6.04167V4.16699C6.04167 3.82533 6.325 3.54199 6.66667 3.54199C7.00833 3.54199 7.29167 3.82533 7.29167 4.16699V5.83366H9.375V4.16699C9.375 3.82533 9.65833 3.54199 10 3.54199C10.3417 3.54199 10.625 3.82533 10.625 4.16699V5.83366H12.7083V4.16699C12.7083 3.82533 12.9917 3.54199 13.3333 3.54199C13.675 3.54199 13.9583 3.82533 13.9583 4.16699V5.83366H14.1667C15.8333 5.83366 16.6667 6.66699 16.6667 8.33366ZM15 12.167C14.8833 12.3836 14.65 12.517 14.4 12.5003C14.1583 12.4837 13.9417 12.317 13.8583 12.0837C13.85 12.067 13.2333 10.417 12.2167 10.417C11.3667 10.417 10.7417 11.6503 10.5917 12.0837C10.5 12.3337 10.2667 12.5003 10 12.5003C9.73333 12.5003 9.50001 12.3337 9.40834 12.0837C9.40834 12.067 8.79166 10.417 7.78333 10.417C6.76666 10.417 6.15 12.067 6.14166 12.0837C6.05833 12.317 5.84167 12.4837 5.6 12.5003C5.34167 12.5087 5.11667 12.3836 5 12.167C4.60833 11.4336 3.80833 10.417 3.33333 10.417V14.3753H16.6667V10.417C16.1917 10.417 15.3917 11.4336 15 12.167ZM2.5 15.6253V15.8337C2.5 16.7503 3.25 17.5003 4.16667 17.5003H15.8333C16.75 17.5003 17.5 16.7503 17.5 15.8337V15.6253H2.5Z" fill="#091731"/>
</svg>
