<svg width="21" height="20" viewBox="0 0 21 20" fill="none" xmlns="http://www.w3.org/2000/svg">
<path d="M13.8333 18.1249H5.5C3.485 18.1249 2.375 17.0149 2.375 14.9999V6.66661C2.375 4.65161 3.485 3.54161 5.5 3.54161H8C8.345 3.54161 8.625 3.82161 8.625 4.16661C8.625 4.51161 8.345 4.79161 8 4.79161H5.5C4.18583 4.79161 3.625 5.35244 3.625 6.66661V14.9999C3.625 16.3141 4.18583 16.8749 5.5 16.8749H13.8333C15.1475 16.8749 15.7083 16.3141 15.7083 14.9999V12.4999C15.7083 12.1549 15.9883 11.8749 16.3333 11.8749C16.6783 11.8749 16.9583 12.1549 16.9583 12.4999V14.9999C16.9583 17.0149 15.8483 18.1249 13.8333 18.1249ZM17.65 4.1916L16.3083 2.84995C15.8333 2.38328 15.075 2.38327 14.6 2.85827L13.475 3.99161L16.5084 7.02493L17.6417 5.89993C18.1167 5.42493 18.1167 4.6666 17.65 4.1916ZM12.5917 4.87494L7.16667 10.325V13.3333H10.175L15.625 7.90826L12.5917 4.87494Z" fill="#4584FF"/>
</svg>
