<svg width="20" height="20" viewBox="0 0 20 20" fill="none" xmlns="http://www.w3.org/2000/svg">
<path d="M15 4.16602H5C3.33333 4.16602 2.5 4.99935 2.5 6.66602V14.166C2.5 15.8327 3.33333 16.666 5 16.666H15C16.6667 16.666 17.5 15.8327 17.5 14.166V6.66602C17.5 4.99935 16.6667 4.16602 15 4.16602ZM14.9508 8.00435L10.8575 10.981C10.6009 11.1677 10.3 11.261 10 11.261C9.7 11.261 9.39829 11.1677 9.14246 10.9818L5.04923 8.00435C4.77007 7.80185 4.70837 7.41018 4.9117 7.13101C5.1142 6.85268 5.50325 6.78935 5.78491 6.99352L9.87834 9.97018C9.95167 10.0227 10.0491 10.0235 10.1225 9.97018L14.2159 6.99352C14.4967 6.78935 14.8866 6.85268 15.0891 7.13101C15.2924 7.41101 15.2299 7.80185 14.9508 8.00435Z" fill="white"/>
</svg>
