<svg width="21" height="20" viewBox="0 0 21 20" fill="none" xmlns="http://www.w3.org/2000/svg">
<path d="M10.5008 2.5C6.35908 2.5 3.00156 5.85752 3.00156 9.99919C3.00156 11.1159 3.25163 12.1825 3.6933 13.1317C3.8683 13.4983 3.86834 13.9233 3.74334 14.315L3.04327 16.3983C2.8266 17.0483 3.45162 17.6733 4.10162 17.4567L6.18495 16.7566C6.57662 16.6316 7.00156 16.6317 7.36822 16.8067C8.31822 17.2484 9.3849 17.4983 10.5016 17.4983C14.6432 17.4983 18.0008 14.1409 18.0008 9.99919C17.9999 5.85752 14.6424 2.5 10.5008 2.5ZM11.3333 12.2917H7.1666C6.8216 12.2917 6.5416 12.0117 6.5416 11.6667C6.5416 11.3217 6.8216 11.0417 7.1666 11.0417H11.3333C11.6783 11.0417 11.9583 11.3217 11.9583 11.6667C11.9583 12.0117 11.6783 12.2917 11.3333 12.2917ZM13.8333 8.95833H7.1666C6.8216 8.95833 6.5416 8.67833 6.5416 8.33333C6.5416 7.98833 6.8216 7.70833 7.1666 7.70833H13.8333C14.1783 7.70833 14.4583 7.98833 14.4583 8.33333C14.4583 8.67833 14.1783 8.95833 13.8333 8.95833Z" fill="white"/>
</svg>
