<svg width="20" height="20" viewBox="0 0 20 20" fill="none" xmlns="http://www.w3.org/2000/svg">
<path d="M14.6874 11.8111L16.8899 13.1244C17.3449 13.396 17.5798 13.9244 17.4757 14.4444C17.0498 16.5769 14.9083 17.9436 12.8108 17.3677C7.86159 16.0094 3.99566 12.1552 2.63233 7.19522C2.05566 5.09689 3.42075 2.95354 5.55408 2.52687L5.56812 2.52438C6.08895 2.42021 6.61992 2.65605 6.89075 3.11355L8.19324 5.31272C8.65657 6.09522 8.42645 7.10271 7.66895 7.60604L6.28487 8.52688C7.26154 10.866 9.12816 12.7402 11.4607 13.7152L12.3898 12.3277C12.8973 11.5719 13.9057 11.3452 14.6874 11.8111Z" fill="white"/>
</svg>
