<svg width="20" height="20" viewBox="0 0 20 20" fill="none" xmlns="http://www.w3.org/2000/svg">
<path d="M14.6874 11.812L16.8899 13.1254C17.3449 13.397 17.5798 13.9254 17.4757 14.4454C17.0498 16.5779 14.9083 17.9445 12.8108 17.3687C7.86159 16.0104 3.99566 12.1562 2.63233 7.1962C2.05566 5.09786 3.42075 2.95451 5.55408 2.52785L5.56812 2.52536C6.08895 2.42119 6.61992 2.65702 6.89075 3.11452L8.19324 5.3137C8.65657 6.0962 8.42645 7.10368 7.66895 7.60702L6.28487 8.52786C7.26154 10.867 9.12816 12.7412 11.4607 13.7162L12.3898 12.3287C12.8973 11.5729 13.9057 11.3462 14.6874 11.812Z" fill="#091731"/>
</svg>
