<svg width="20" height="20" viewBox="0 0 20 20" fill="none" xmlns="http://www.w3.org/2000/svg">
<path d="M4.01177 8.11536L3.32345 8.45939C2.81845 8.71189 2.49927 9.22783 2.49927 9.79199V16.8086C2.49927 17.4336 3.14928 17.8337 3.70761 17.5587L6.23678 16.2861C6.32095 16.2436 6.37426 16.1569 6.37426 16.0627V11.9862C6.37426 11.9204 6.34845 11.8587 6.30178 11.8129C5.36762 10.8895 4.58011 9.74028 4.36511 8.30945C4.34011 8.13861 4.1651 8.03869 4.01177 8.11536ZM10.6834 14.1003L9.99177 14.567L9.30011 14.1003C9.30011 14.1003 8.56677 13.6177 8.01677 13.2327C7.85177 13.1169 7.6251 13.237 7.6251 13.4386V15.9687C7.6251 16.0729 7.69011 16.1663 7.78761 16.2029L12.0376 17.7986C12.2009 17.8594 12.3751 17.7386 12.3751 17.5644V13.4244C12.3751 13.2227 12.1493 13.1037 11.9843 13.2179C11.4276 13.6046 10.6834 14.1003 10.6834 14.1003ZM16.2918 7.22526L15.8326 7.45455C15.6884 7.51538 15.6893 7.66873 15.6859 7.7404C15.6109 9.43123 14.7451 10.7587 13.6968 11.8045C13.6509 11.8504 13.6243 11.912 13.6243 11.9779V17.4454C13.6243 17.6312 13.8201 17.7519 13.9868 17.6686L16.6743 16.3179C17.1826 16.0595 17.4993 15.5428 17.4993 14.9761V7.96785C17.5001 7.22535 16.8501 6.95026 16.2918 7.22526ZM9.99177 3.05859C7.54177 3.05859 5.55011 5.04199 5.55011 7.50033C5.55011 10.2753 8.3251 11.9419 9.99177 13.0586C11.6584 11.9419 14.4418 10.2753 14.4418 7.50033C14.4418 5.04199 12.4501 3.05859 9.99177 3.05859ZM9.99177 8.89193C9.2251 8.89193 8.60843 8.26699 8.60843 7.50033C8.60843 6.73366 9.2251 6.10872 9.99177 6.10872C10.7584 6.10872 11.3834 6.73366 11.3834 7.50033C11.3834 8.26699 10.7584 8.89193 9.99177 8.89193Z" fill="white"/>
</svg>
