<svg width="24" height="24" viewBox="0 0 24 24" fill="none" xmlns="http://www.w3.org/2000/svg">
<path d="M23.0196 9.00098C23.0196 10.105 22.1236 11.001 21.0196 11.001C20.7376 11.001 20.4696 10.9409 20.2256 10.8359L16.8546 14.207C16.9596 14.451 17.0206 14.718 17.0206 15.001C17.0206 16.105 16.1246 17.001 15.0206 17.001C13.9166 17.001 13.0156 16.105 13.0156 15.001C13.0156 14.728 13.0706 14.468 13.1696 14.23L9.78661 10.8469C9.55061 10.9449 9.2916 11 9.0206 11C8.7386 11 8.47061 10.94 8.22661 10.835L4.85561 14.2061C4.96061 14.4501 5.02161 14.717 5.02161 15C5.02161 16.104 4.12561 17 3.02161 17C1.91761 17 1.0166 16.104 1.0166 15C1.0166 13.896 1.9066 13 3.0116 13H3.02161C3.29361 13 3.5516 13.0551 3.7876 13.1531L7.1716 9.76904C7.0726 9.53204 7.0166 9.272 7.0166 9C7.0166 7.896 7.9066 7 9.0116 7H9.02161C10.1256 7 11.0216 7.896 11.0216 9C11.0216 9.282 10.9616 9.54995 10.8556 9.79395L14.2236 13.1619C14.4646 13.0579 14.7306 13 15.0106 13H15.0206C15.2926 13 15.5506 13.0551 15.7866 13.1531L19.1706 9.76904C19.0716 9.53204 19.0156 9.272 19.0156 9C19.0156 7.896 19.9056 7 21.0106 7H21.0206C22.1246 7.001 23.0196 7.89698 23.0196 9.00098Z" fill="#B8B8B8"/>
</svg>
