<svg width="24" height="24" viewBox="0 0 24 24" fill="none" xmlns="http://www.w3.org/2000/svg">
<path d="M15.261 20.3928C14.917 20.5568 14.5161 20.6788 14.0601 20.7608L7.49004 21.9109C5.30004 22.3009 4.00994 21.4009 3.62994 19.2108L2.09014 10.4608C1.70014 8.27085 2.60009 6.98085 4.79009 6.59085L6.58794 6.27481C6.79294 6.23881 6.97211 6.41784 6.93511 6.62284L5.75909 13.2809C5.22909 16.3109 6.65901 18.3508 9.67901 18.8808C9.67901 18.8808 14.898 19.7978 15.167 19.8498C15.499 19.9098 15.552 20.2638 15.261 20.3928ZM19.209 3.24485L12.6431 2.08683C10.4551 1.70083 9.16706 2.6018 8.78106 4.7908L8.58013 5.92881L7.23711 13.5448C6.85111 15.7338 7.75197 17.0208 9.94097 17.4068L16.5062 18.5649C16.5872 18.5789 16.6572 18.5788 16.7352 18.5898C18.7792 18.8708 19.996 17.9688 20.368 15.8608L21.9122 7.10684C22.2992 4.91884 21.398 3.63085 19.209 3.24485Z" fill="#B8B8B8"/>
</svg>
