<svg width="20" height="20" viewBox="0 0 20 20" fill="none" xmlns="http://www.w3.org/2000/svg">
<path d="M9.001 0C4.031 0 0.00197407 4.02902 0.00197407 8.99902C0.00197407 10.339 0.302052 11.619 0.832052 12.758C1.04205 13.198 1.04211 13.708 0.892111 14.178L0.0520229 16.678C-0.207977 17.458 0.542042 18.208 1.32204 17.948L3.82204 17.108C4.29204 16.958 4.80196 16.958 5.24196 17.168C6.38196 17.698 7.66197 17.998 9.00197 17.998C13.972 17.998 18.001 13.969 18.001 8.99902C18 4.02902 13.971 0 9.001 0ZM10 11.75H5.00002C4.58602 11.75 4.25002 11.414 4.25002 11C4.25002 10.586 4.58602 10.25 5.00002 10.25H10C10.414 10.25 10.75 10.586 10.75 11C10.75 11.414 10.414 11.75 10 11.75ZM13 7.75H5.00002C4.58602 7.75 4.25002 7.414 4.25002 7C4.25002 6.586 4.58602 6.25 5.00002 6.25H13C13.414 6.25 13.75 6.586 13.75 7C13.75 7.414 13.414 7.75 13 7.75Z" fill="#B8B8B8"/>
</svg>
