<svg width="20" height="20" viewBox="0 0 20 20" fill="none" xmlns="http://www.w3.org/2000/svg">
<path d="M4.00903 4.5C4.00903 2.294 5.80303 0.5 8.00903 0.5C10.215 0.5 12.009 2.294 12.009 4.5C12.009 6.706 10.215 8.5 8.00903 8.5C5.80303 8.5 4.00903 6.706 4.00903 4.5ZM12.89 13.6899C12.89 13.0099 13.07 12.36 13.37 11.79C13.45 11.66 13.42 11.49 13.29 11.4C12.47 10.84 11.39 10.5 10 10.5H6C1.94 10.5 0.5 13.47 0.5 16.02C0.5 18.3 1.71 19.5 4 19.5H12C12.36 19.5 12.69 19.47 12.99 19.41C13.057 19.385 13.29 19.341 13.29 19.11C13.29 19.07 13.28 19.03 13.27 19C13.08 18.62 12.96 18.19 12.91 17.74C12.85 17.12 13.05 16.5201 13.42 16.0601C13.51 15.9601 13.52 15.83 13.45 15.72C13.09 15.11 12.89 14.4099 12.89 13.6899ZM17.955 14.954L16.559 14.594C16.369 14.544 16.204 14.432 16.079 14.266C15.957 14.105 15.89 13.8991 15.89 13.6851C15.89 13.1691 16.283 12.75 16.765 12.75H17.3719C17.8159 12.75 18.19 13.1071 18.241 13.5811C18.286 13.9931 18.663 14.291 19.068 14.246C19.48 14.201 19.777 13.8309 19.733 13.4189C19.614 12.3309 18.814 11.48 17.798 11.291V11C17.798 10.586 17.462 10.25 17.048 10.25C16.634 10.25 16.298 10.586 16.298 11V11.298C15.211 11.521 14.389 12.5061 14.389 13.6851C14.389 14.2251 14.565 14.753 14.881 15.17C15.203 15.6 15.663 15.911 16.181 16.046L17.577 16.406C17.972 16.51 18.2469 16.8839 18.2469 17.3149C18.2469 17.5679 18.152 17.806 17.979 17.984C17.814 18.155 17.5979 18.25 17.3719 18.25H16.765C16.321 18.25 15.947 17.8929 15.896 17.4189C15.851 17.0069 15.479 16.709 15.069 16.754C14.657 16.799 14.3601 17.1691 14.4041 17.5811C14.5211 18.6551 15.302 19.4981 16.3 19.701V20C16.3 20.414 16.636 20.75 17.05 20.75C17.464 20.75 17.8 20.414 17.8 20V19.707C18.275 19.619 18.713 19.387 19.061 19.026C19.504 18.567 19.749 17.959 19.749 17.316C19.747 16.202 19.012 15.231 17.955 14.954Z" fill="#B8B8B8"/>
</svg>
