<svg width="20" height="20" viewBox="0 0 20 20" fill="none" xmlns="http://www.w3.org/2000/svg">
<path d="M19 2.67003V10.33C19 11.436 18.6539 12.203 17.9619 12.62C17.8219 12.704 17.5 12.68 17.5 12.345V5.66904C17.5 3.05904 15.9401 1.49902 13.3301 1.49902H3.67212C3.29412 1.49902 3.29992 1.16603 3.38892 1.02203C3.80792 0.340034 4.57192 -0.000976562 5.66992 -0.000976562H16.3301C18.1101 2.34375e-05 19 0.890029 19 2.67003ZM16 5.66704V13.334C16 15.112 15.111 16.001 13.333 16.001H2.66602C0.888016 16.001 -0.000976562 15.112 -0.000976562 13.334V5.66704C-0.000976562 3.88904 0.888016 3.00003 2.66602 3.00003H13.333C15.111 3.00003 16 3.88904 16 5.66704ZM13.74 6.29204C13.497 5.95804 13.0289 5.88204 12.6919 6.12604L8.10693 9.46004C8.04293 9.50704 7.95709 9.50704 7.89209 9.46004L3.30688 6.12604C2.96988 5.88204 2.50203 5.95804 2.25903 6.29204C2.01503 6.62704 2.08907 7.09603 2.42407 7.34003L7.00903 10.674C7.30503 10.89 7.65302 10.997 7.99902 10.997C8.34502 10.997 8.69301 10.889 8.98901 10.674L13.574 7.34003C13.91 7.09603 13.984 6.62704 13.74 6.29204Z" fill="#B8B8B8"/>
</svg>
