<svg width="20" height="20" viewBox="0 0 20 20" fill="none" xmlns="http://www.w3.org/2000/svg">
<path d="M19.6069 14.1517L12.9999 1.7955C11.7199 -0.5985 8.28093 -0.5985 6.99993 1.7955L0.393001 14.1517C-0.780999 16.3477 0.81304 18.9996 3.30804 18.9996H16.6918C19.1858 18.9996 20.7809 16.3467 19.6069 14.1517ZM9.24993 6.9996C9.24993 6.5856 9.58593 6.2496 9.99993 6.2496C10.4139 6.2496 10.7499 6.5856 10.7499 6.9996V10.9996C10.7499 11.4136 10.4139 11.7496 9.99993 11.7496C9.58593 11.7496 9.24993 11.4136 9.24993 10.9996V6.9996ZM10.02 14.9996C9.46795 14.9996 9.01483 14.5516 9.01483 13.9996C9.01483 13.4476 9.45794 12.9996 10.0099 12.9996H10.02C10.573 12.9996 11.02 13.4476 11.02 13.9996C11.02 14.5516 10.572 14.9996 10.02 14.9996Z" fill="#B8B8B8"/>
</svg>
