<svg width="20" height="20" viewBox="0 0 20 20" fill="none" xmlns="http://www.w3.org/2000/svg">
<path d="M15.38 17.9703C12.814 19.8143 9.76603 19.1083 8.02103 18.4333C7.28203 20.0333 7.03305 21.1303 7.02805 21.1553C6.95305 21.5083 6.64102 21.7493 6.29502 21.7493C6.24402 21.7493 6.19205 21.7443 6.14005 21.7333C5.73505 21.6483 5.47601 21.2513 5.56101 20.8463C5.61401 20.5923 6.85706 14.9303 12.5171 10.0903C10.3141 11.1093 7.30204 13.4183 5.78104 16.9503C4.47104 14.3303 4.45101 9.48031 8.69101 7.19031C10.481 6.23031 12.2911 6.04028 14.4811 5.29028C16.0611 4.74028 16.991 3.64033 17.371 3.09033C17.461 2.95033 17.661 2.98031 17.711 3.13031C18.41 5.02031 21.22 13.7703 15.38 17.9703Z" fill="#B8B8B8"/>
</svg>
