<svg width="20" height="20" viewBox="0 0 20 20" fill="none" xmlns="http://www.w3.org/2000/svg">
<path d="M13 0H3C1 0 0 1 0 3V15.621C0 16.445 0.940976 16.915 1.59998 16.421L2.95898 15.402C3.55598 14.954 4.39204 15.014 4.92004 15.541L6.93896 17.56C7.52496 18.146 8.47506 18.146 9.06006 17.56L11.079 15.541C11.607 15.013 12.443 14.954 13.04 15.402L14.399 16.421C15.058 16.915 15.999 16.445 15.999 15.621V3C16 1 15 0 13 0ZM4 10.75C3.586 10.75 3.25 10.414 3.25 10C3.25 9.586 3.586 9.25 4 9.25C4.414 9.25 4.75 9.586 4.75 10C4.75 10.414 4.414 10.75 4 10.75ZM4 6.75C3.586 6.75 3.25 6.414 3.25 6C3.25 5.586 3.586 5.25 4 5.25C4.414 5.25 4.75 5.586 4.75 6C4.75 6.414 4.414 6.75 4 6.75ZM12 10.75H7C6.586 10.75 6.25 10.414 6.25 10C6.25 9.586 6.586 9.25 7 9.25H12C12.414 9.25 12.75 9.586 12.75 10C12.75 10.414 12.414 10.75 12 10.75ZM12 6.75H7C6.586 6.75 6.25 6.414 6.25 6C6.25 5.586 6.586 5.25 7 5.25H12C12.414 5.25 12.75 5.586 12.75 6C12.75 6.414 12.414 6.75 12 6.75Z" fill="#B8B8B8"/>
</svg>
