<svg width="20" height="20" viewBox="0 0 20 20" fill="none" xmlns="http://www.w3.org/2000/svg">
<path d="M19.738 14.6499C19.81 15.0579 19.538 15.4469 19.13 15.5189L8.45997 17.3969C8.26797 18.5859 7.24301 19.4999 6.00001 19.4999C4.62101 19.4999 3.50001 18.3779 3.50001 16.9999C3.50001 15.8829 4.24106 14.9459 5.25306 14.6259L3.17103 2.7799C3.05203 2.1029 2.39903 1.65191 1.71803 1.76791L1.12404 1.86891C0.724035 1.93591 0.328022 1.66291 0.260022 1.25491C0.191022 0.845907 0.465035 0.458902 0.874035 0.389902L1.464 0.289896C2.946 0.0308959 4.38496 1.0299 4.64796 2.5189L6.77699 14.6349C7.42099 14.8469 7.94698 15.3089 8.24098 15.9109L18.87 14.0399C19.279 13.9689 19.667 14.2419 19.738 14.6499ZM7.57203 7.0879C7.20903 5.0289 8.00705 3.8889 10.0661 3.5259L13.7 2.8849C15.759 2.5219 16.899 3.3199 17.262 5.3789L17.903 9.0129C18.266 11.0719 17.4681 12.2119 15.4091 12.5749L11.775 13.2159C9.71604 13.5789 8.57603 12.7809 8.21302 10.7219L7.57203 7.0879ZM10.914 9.41691L12.643 10.6349C12.676 10.6579 12.7131 10.6699 12.7481 10.6869C12.7771 10.7009 12.803 10.7189 12.834 10.7289C12.909 10.7549 12.986 10.7689 13.064 10.7699C13.067 10.7699 13.07 10.7719 13.074 10.7719C13.117 10.7719 13.161 10.7679 13.205 10.7599C13.252 10.7509 13.29 10.7259 13.333 10.7089C13.37 10.6949 13.4061 10.6869 13.4411 10.6669C13.5341 10.6139 13.615 10.5469 13.677 10.4629C13.68 10.4589 13.685 10.4579 13.688 10.4529L14.9151 8.71391C15.1531 8.37491 15.072 7.90691 14.734 7.66891C14.393 7.42991 13.927 7.51091 13.688 7.84991L13.5 8.11691L13.1181 5.9519C13.0471 5.5449 12.659 5.2719 12.25 5.3439C11.842 5.4159 11.569 5.8049 11.642 6.2129L12.021 8.3599L11.78 8.18991C11.438 7.95091 10.973 8.03291 10.734 8.3709C10.495 8.7099 10.576 9.17791 10.914 9.41691Z" fill="#B8B8B8"/>
</svg>
