<svg width="20" height="20" viewBox="0 0 20 20" fill="none" xmlns="http://www.w3.org/2000/svg">
<path d="M7.47998 9.14955C7.72998 9.25955 7.99 9.32957 8.25 9.38958V18.9096C8.09 18.8696 7.93003 18.8096 7.78003 18.7396L1.78003 16.0696C0.700029 15.5896 0 14.5195 0 13.3295V6.66957C0 6.39957 0.0399854 6.12957 0.109985 5.87957L7.47998 9.14955ZM17.13 4.55956C16.87 4.29956 16.57 4.07955 16.22 3.92955L10.22 1.25957C9.43997 0.90957 8.56003 0.90957 7.78003 1.25957L1.78003 3.92955C1.43003 4.07955 1.13 4.29956 0.869995 4.55956L8.07996 7.76955C8.65996 8.02955 9.33004 8.02955 9.92004 7.76955L17.13 4.55956ZM10.559 14.1756C10.927 11.5946 13.1889 9.59456 15.7939 9.50356C16.4299 9.48156 17.036 9.56257 17.604 9.73857C17.801 9.79957 18 9.66555 18 9.45955V6.66957C18 6.39957 17.96 6.12957 17.89 5.87957L10.52 9.14955C10.27 9.24955 10.01 9.32957 9.75 9.38958V18.9096C9.769 18.9216 9.76896 18.9216 9.78796 18.9336L11.192 18.3026C11.359 18.2276 11.414 18.0245 11.317 17.8685C10.663 16.8165 10.363 15.5476 10.559 14.1756ZM20 14.9996C20 17.2096 18.21 18.9996 16 18.9996C13.79 18.9996 12 17.2096 12 14.9996C12 12.7896 13.79 10.9996 16 10.9996C18.21 10.9996 20 12.7896 20 14.9996ZM17.6 13.8096C17.41 13.6196 17.09 13.6196 16.9 13.8096L15.58 15.1196L15.1 14.6496C14.91 14.4496 14.59 14.4496 14.4 14.6496C14.2 14.8396 14.2 15.1596 14.4 15.3496L15.23 16.1896C15.32 16.2796 15.45 16.3295 15.58 16.3295C15.72 16.3295 15.8399 16.2796 15.9399 16.1896L17.6 14.5195C17.8 14.3195 17.8 14.0096 17.6 13.8096Z" fill="#B8B8B8"/>
</svg>
