<svg width="20" height="20" viewBox="0 0 20 20" fill="none" xmlns="http://www.w3.org/2000/svg">
<path d="M4 2.5V1.5C4 0.5 4.5 0 5.5 0H10.5C11.5 0 12 0.5 12 1.5V2.5C12 3.5 11.5 4 10.5 4H5.5C4.5 4 4 3.5 4 2.5ZM16 5V15C16 17 15 18 13 18H3C1 18 0 17 0 15V5C0 3.258 0.751893 2.27701 2.26489 2.05701C2.38589 2.03901 2.5 2.13899 2.5 2.26099V2.49902C2.5 4.31902 3.68 5.49902 5.5 5.49902H10.5C12.32 5.49902 13.5 4.31902 13.5 2.49902V2.26099C13.5 2.13899 13.6151 2.03901 13.7351 2.05701C15.2481 2.27701 16 3.258 16 5ZM10.22 11.02L7.97998 8.78003L4 12.78V15H6.21997L10.22 11.02ZM11.74 8.25L10.75 7.26001C10.4 6.91001 9.83999 6.91001 9.48999 7.26001L8.67993 8.08002L10.9199 10.32L11.74 9.51001C12.09 9.16001 12.09 8.6 11.74 8.25Z" fill="#B8B8B8"/>
</svg>
