<svg width="20" height="20" viewBox="0 0 20 20" fill="none" xmlns="http://www.w3.org/2000/svg">
<path d="M17.75 16.35C17.75 18.382 16.619 19.5 14.567 19.5H7.43298C5.38098 19.5 4.25 18.381 4.25 16.35C4.25 14.062 5.54997 11.39 9.21497 11.39H12.7841C16.4501 11.389 17.75 14.062 17.75 16.35ZM11.0081 9.51196C12.9501 9.51196 14.5291 7.93898 14.5291 6.00598C14.5291 4.07198 12.9491 2.5 11.0081 2.5C9.06706 2.5 7.48804 4.07298 7.48804 6.00598C7.48804 7.93898 9.06606 9.51196 11.0081 9.51196ZM17.79 6.93005H16.1801C16.0401 6.93005 15.92 7.03003 15.89 7.16003C15.67 8.11003 15.17 8.95999 14.48 9.60999C14.31 9.76999 14.41 10.05 14.64 10.11C16.41 10.53 17.64 11.57 18.37 12.89C18.42 13 18.52 13.0699 18.65 13.0699H19.0699C20.6399 13.0699 21.5 12.21 21.5 10.65C21.5 8.94002 20.53 6.93005 17.79 6.93005ZM16.51 0.5C15.512 0.5 14.641 1.04696 14.184 1.85596C14.147 1.92196 14.149 1.99498 14.163 2.05798C14.178 2.12398 14.207 2.15906 14.269 2.21106C15.248 3.03606 15.9011 4.23103 16.0081 5.58203C16.0141 5.65803 16.0401 5.70503 16.0861 5.75403C16.1321 5.80303 16.201 5.83294 16.292 5.84094C16.363 5.84694 16.436 5.85095 16.51 5.85095C17.98 5.85095 19.1801 4.65102 19.1801 3.17102C19.1801 1.70002 17.98 0.5 16.51 0.5ZM0.5 10.65C0.5 12.21 1.36005 13.0699 2.93005 13.0699H3.34998C3.47998 13.0699 3.58 13 3.63 12.89C4.36 11.57 5.58999 10.53 7.35999 10.11C7.58999 10.05 7.69002 9.76999 7.52002 9.60999C6.83002 8.95999 6.32999 8.11003 6.10999 7.16003C6.07999 7.03003 5.95995 6.93005 5.81995 6.93005H4.20996C1.46996 6.93005 0.5 8.94002 0.5 10.65ZM2.81995 3.17004C2.81995 4.65004 4.01999 5.84998 5.48999 5.84998C5.56399 5.84998 5.63701 5.84597 5.70801 5.83997C5.80001 5.83197 5.86794 5.80205 5.91394 5.75305C5.95994 5.70405 5.98594 5.65705 5.99194 5.58105C6.09894 4.23005 6.75196 3.03496 7.73096 2.20996C7.79196 2.15796 7.82204 2.12301 7.83704 2.05701C7.85104 1.99401 7.85304 1.92198 7.81604 1.85498C7.35804 1.04598 6.48799 0.499023 5.48999 0.499023C4.01999 0.500023 2.81995 1.70004 2.81995 3.17004Z" fill="#B8B8B8"/>
</svg>
