<svg width="33" height="32" viewBox="0 0 33 32" fill="none" xmlns="http://www.w3.org/2000/svg">
<path d="M12.1208 28C8.88577 28 5.87021 27.0591 3.33203 25.4356C5.48702 25.5751 9.2901 25.2411 11.6556 22.9848C8.09711 22.8215 6.49229 20.0923 6.28297 18.926C6.58533 19.0426 8.02733 19.1826 8.84137 18.856C4.74793 17.8296 4.11996 14.2373 4.25951 13.141C5.02703 13.6775 6.32949 13.8641 6.84117 13.8174C3.02682 11.0882 4.39906 6.98276 5.07354 6.09635C7.81086 9.88867 11.9132 12.0186 16.9884 12.137C16.8927 11.7174 16.8422 11.2804 16.8422 10.8316C16.8422 7.61092 19.4454 5 22.6567 5C24.3346 5 25.8464 5.71275 26.9077 6.85284C28.0289 6.59011 29.7163 5.97507 30.5413 5.4432C30.1255 6.93611 28.831 8.18149 28.0479 8.64308C28.0416 8.62731 28.0544 8.65878 28.0479 8.64308C28.7358 8.53904 30.5968 8.18137 31.332 7.68256C30.9685 8.52125 29.596 9.91573 28.4697 10.6964C28.6793 19.9381 21.6085 28 12.1208 28Z" fill="#47ACDF"/>
</svg>
