<svg width="36" height="36" viewBox="0 0 36 36" fill="none" xmlns="http://www.w3.org/2000/svg">
<rect width="36" height="36" rx="18" fill="#4584FF" fill-opacity="0.08"/>
<path d="M14.0052 24.5472C13.346 25.2064 11.051 25.7922 10.5976 25.903C10.5643 25.9114 10.5318 25.9147 10.4985 25.9147C10.3876 25.9147 10.2801 25.8705 10.201 25.7897C10.0976 25.6847 10.0585 25.533 10.096 25.3905C10.2218 24.918 10.881 22.5255 11.5368 21.8697C11.906 21.5005 12.3852 21.3105 12.8668 21.3155C13.3327 21.3264 13.7801 21.5239 14.126 21.8697C14.831 22.5755 14.7768 23.7764 14.0052 24.5472ZM22.3385 20.2747L22.1235 21.5839C21.8735 23.1589 20.7901 24.5005 19.3068 25.0922L17.3235 25.8839C17.2735 25.9089 17.2151 25.9172 17.1651 25.9172C17.0735 25.9172 16.9735 25.8839 16.8985 25.8172C16.7818 25.7255 16.7235 25.5672 16.7568 25.4172L17.3093 22.6372C17.2285 22.653 17.1518 22.6747 17.0693 22.6889C16.9677 22.7064 16.8651 22.7147 16.7635 22.7147C16.2768 22.7147 15.7985 22.5172 15.4401 22.1597L13.8385 20.5572C13.4051 20.1239 13.2076 19.5155 13.3093 18.928C13.3235 18.8472 13.3451 18.7714 13.3601 18.6914L10.5976 19.2405C10.5726 19.2489 10.5393 19.2489 10.5143 19.2489C10.3893 19.2489 10.2727 19.1989 10.1977 19.0989C10.0977 18.9822 10.0726 18.8156 10.131 18.6739L10.931 16.6822C11.5143 15.2072 12.856 14.1239 14.431 13.8739L15.7235 13.658C17.8576 11.2105 21.2093 9.87305 25.4968 9.87305C25.8418 9.87305 26.1218 10.153 26.1218 10.498C26.1235 14.7889 24.7868 18.1405 22.3385 20.2747ZM23.806 16.0797C23.6776 13.988 22.0101 12.3214 19.9185 12.1922C17.5026 13.233 15.216 15.2514 14.541 19.1422C14.5093 19.3264 14.5785 19.5297 14.7226 19.673L16.3243 21.2755C16.4676 21.4189 16.6718 21.4872 16.856 21.4564C20.7476 20.7822 22.766 18.4964 23.806 16.0797ZM19.2485 14.8755C18.2126 14.8755 17.3735 15.7147 17.3735 16.7505C17.3735 17.7864 18.2126 18.6255 19.2485 18.6255C20.2843 18.6255 21.1235 17.7864 21.1235 16.7505C21.1235 15.7147 20.2843 14.8755 19.2485 14.8755Z" fill="#4584FF"/>
</svg>
