<svg width="40" height="40" viewBox="0 0 40 40" fill="none" xmlns="http://www.w3.org/2000/svg">
<rect width="40" height="40" rx="20" fill="#FF1515" fill-opacity="0.08"/>
<path d="M26.6926 30.749H13.3088C11.8698 30.749 10.5698 30.013 9.82977 28.78C9.09277 27.55 9.05662 26.0611 9.73162 24.7971L16.3376 12.4421C17.0706 11.0691 18.4407 10.25 19.9987 10.25C21.5567 10.25 22.9266 11.0691 23.6596 12.4421L30.2656 24.7971C30.9426 26.0611 30.9066 27.55 30.1686 28.78C29.4336 30.013 28.1326 30.749 26.6926 30.749ZM20.0007 11.749C19.0047 11.749 18.1306 12.2719 17.6616 13.1479L11.0556 25.5029C10.6306 26.2979 10.6546 27.2341 11.1176 28.0081C11.5836 28.7851 12.4028 29.248 13.3098 29.248H26.6938C27.6008 29.248 28.4207 28.7841 28.8857 28.0081C29.3487 27.2351 29.3707 26.2989 28.9467 25.5029L22.3408 13.1479C21.8708 12.2719 20.9967 11.749 20.0007 11.749ZM20.7507 21.999V17.999C20.7507 17.585 20.4147 17.249 20.0007 17.249C19.5867 17.249 19.2507 17.585 19.2507 17.999V21.999C19.2507 22.413 19.5867 22.749 20.0007 22.749C20.4147 22.749 20.7507 22.413 20.7507 21.999ZM21.0207 24.999C21.0207 24.447 20.5737 23.999 20.0207 23.999H20.0107C19.4587 23.999 19.0156 24.447 19.0156 24.999C19.0156 25.551 19.4687 25.999 20.0207 25.999C20.5727 25.999 21.0207 25.551 21.0207 24.999Z" fill="#FF1515"/>
</svg>
