<svg width="40" height="40" viewBox="0 0 40 40" fill="none" xmlns="http://www.w3.org/2000/svg">
<rect width="40" height="40" rx="20" fill="#FF9900" fill-opacity="0.08"/>
<path d="M20 30.75C14.072 30.75 9.25 25.928 9.25 20C9.25 14.072 14.072 9.25 20 9.25C25.928 9.25 30.75 14.072 30.75 20C30.75 25.928 25.928 30.75 20 30.75ZM20 10.75C14.899 10.75 10.75 14.899 10.75 20C10.75 25.101 14.899 29.25 20 29.25C25.101 29.25 29.25 25.101 29.25 20C29.25 14.899 25.101 10.75 20 10.75ZM21.02 23.5C21.02 22.948 20.573 22.5 20.02 22.5H20.01C19.458 22.5 19.0149 22.948 19.0149 23.5C19.0149 24.052 19.468 24.5 20.02 24.5C20.572 24.5 21.02 24.052 21.02 23.5ZM20.75 20.071V15.5C20.75 15.086 20.414 14.75 20 14.75C19.586 14.75 19.25 15.086 19.25 15.5V20.071C19.25 20.485 19.586 20.821 20 20.821C20.414 20.821 20.75 20.485 20.75 20.071Z" fill="#F89500"/>
</svg>
                