<svg width="20" height="20" viewBox="0 0 20 20" fill="none" xmlns="http://www.w3.org/2000/svg">
<path d="M14.6876 11.812L16.8902 13.1254C17.3452 13.397 17.5801 13.9254 17.4759 14.4454C17.0501 16.5779 14.9085 17.9445 12.811 17.3687C7.86183 16.0104 3.99591 12.1562 2.63257 7.1962C2.05591 5.09786 3.42099 2.95451 5.55432 2.52785L5.56836 2.52536C6.0892 2.42119 6.62016 2.65702 6.89099 3.11452L8.19348 5.3137C8.65682 6.0962 8.42669 7.10368 7.66919 7.60702L6.28512 8.52786C7.26179 10.867 9.1284 12.7412 11.4609 13.7162L12.3901 12.3287C12.8976 11.5729 13.906 11.3462 14.6876 11.812Z" fill="#4584FF"/>
</svg>
