<svg width="48" height="48" viewBox="0 0 48 48" fill="none" xmlns="http://www.w3.org/2000/svg">
<path d="M42 21.9004C42 27.4204 37.52 31.9004 32 31.9004H25.5V25.6223L26.9399 27.0624C27.2319 27.3544 27.616 27.5023 28 27.5023C28.384 27.5023 28.7681 27.3564 29.0601 27.0624C29.6461 26.4764 29.6461 25.5263 29.0601 24.9403L25.0601 20.9403C24.9221 20.8023 24.7558 20.6923 24.5718 20.6163C24.2058 20.4643 23.7918 20.4643 23.4258 20.6163C23.2418 20.6923 23.076 20.8023 22.938 20.9403L18.938 24.9403C18.352 25.5263 18.352 26.4764 18.938 27.0624C19.524 27.6484 20.4741 27.6484 21.0601 27.0624L22.5 25.6223V31.9004H19C11.82 31.9004 6 26.0804 6 18.9004C6 11.7204 11.82 5.90039 19 5.90039C22.292 5.90039 25.296 7.12633 27.584 9.14233C28.548 9.99233 29.384 10.9823 30.062 12.0803C30.702 11.9603 31.342 11.9004 32.002 11.9004C37.52 11.9004 42 16.3804 42 21.9004ZM22.5 42.0004C22.5 42.8284 23.172 43.5004 24 43.5004C24.828 43.5004 25.5 42.8284 25.5 42.0004V31.9004H22.5V42.0004Z" fill="#4584FF"/>
</svg>
