<svg width="20" height="21" viewBox="0 0 20 21" fill="none" xmlns="http://www.w3.org/2000/svg">
<path d="M17.5 4.875H14.5342C13.7833 4.875 13.7517 4.78 13.5458 4.16333L13.3775 3.6575C13.1217 2.89083 12.4075 2.375 11.5992 2.375H8.40083C7.59249 2.375 6.8775 2.89 6.6225 3.6575L6.45417 4.16333C6.24834 4.78083 6.21666 4.875 5.46583 4.875H2.5C2.155 4.875 1.875 5.155 1.875 5.5C1.875 5.845 2.155 6.125 2.5 6.125H3.58166L4.22084 15.7075C4.34417 17.5617 5.48084 18.625 7.33917 18.625H12.6617C14.5192 18.625 15.6558 17.5617 15.78 15.7075L16.4192 6.125H17.5C17.845 6.125 18.125 5.845 18.125 5.5C18.125 5.155 17.845 4.875 17.5 4.875ZM7.80833 4.0525C7.89416 3.79667 8.13166 3.625 8.40083 3.625H11.5992C11.8683 3.625 12.1067 3.79667 12.1917 4.0525L12.36 4.55833C12.3967 4.6675 12.4333 4.77333 12.4733 4.875H7.525C7.565 4.7725 7.60251 4.66666 7.63917 4.55833L7.80833 4.0525ZM14.5317 15.6242C14.4525 16.8183 13.8575 17.375 12.6608 17.375H7.33833C6.14167 17.375 5.5475 16.8192 5.4675 15.6242L4.83417 6.125H5.465C5.56917 6.125 5.65583 6.11417 5.74917 6.1075C5.7775 6.11167 5.80333 6.125 5.8325 6.125H14.1658C14.1958 6.125 14.2208 6.11167 14.2492 6.1075C14.3425 6.11417 14.4292 6.125 14.5333 6.125H15.1642L14.5317 15.6242ZM12.2917 9.66667V13.8333C12.2917 14.1783 12.0117 14.4583 11.6667 14.4583C11.3217 14.4583 11.0417 14.1783 11.0417 13.8333V9.66667C11.0417 9.32167 11.3217 9.04167 11.6667 9.04167C12.0117 9.04167 12.2917 9.32167 12.2917 9.66667ZM8.95833 9.66667V13.8333C8.95833 14.1783 8.67833 14.4583 8.33333 14.4583C7.98833 14.4583 7.70833 14.1783 7.70833 13.8333V9.66667C7.70833 9.32167 7.98833 9.04167 8.33333 9.04167C8.67833 9.04167 8.95833 9.32167 8.95833 9.66667Z" fill="#FF1515"/>
</svg>
