<svg width="40" height="40" viewBox="0 0 40 40" fill="none" xmlns="http://www.w3.org/2000/svg">
<rect width="40" height="40" rx="20" fill="#F5F6F7"/>
<path d="M29 13.25H25.441C24.54 13.25 24.502 13.136 24.255 12.396L24.053 11.789C23.746 10.869 22.889 10.25 21.919 10.25H18.081C17.111 10.25 16.253 10.868 15.947 11.789L15.745 12.396C15.498 13.137 15.46 13.25 14.559 13.25H11C10.586 13.25 10.25 13.586 10.25 14C10.25 14.414 10.586 14.75 11 14.75H12.298L13.065 26.249C13.213 28.474 14.577 29.75 16.807 29.75H23.194C25.423 29.75 26.787 28.474 26.936 26.249L27.703 14.75H29C29.414 14.75 29.75 14.414 29.75 14C29.75 13.586 29.414 13.25 29 13.25ZM17.37 12.263C17.473 11.956 17.758 11.75 18.081 11.75H21.919C22.242 11.75 22.528 11.956 22.63 12.263L22.832 12.87C22.876 13.001 22.92 13.128 22.968 13.25H17.03C17.078 13.127 17.123 13 17.167 12.87L17.37 12.263ZM25.438 26.149C25.343 27.582 24.629 28.25 23.193 28.25H16.806C15.37 28.25 14.657 27.583 14.561 26.149L13.801 14.75H14.558C14.683 14.75 14.787 14.737 14.899 14.729C14.933 14.734 14.964 14.75 14.999 14.75H24.999C25.035 14.75 25.065 14.734 25.099 14.729C25.211 14.737 25.315 14.75 25.44 14.75H26.197L25.438 26.149ZM22.75 19V24C22.75 24.414 22.414 24.75 22 24.75C21.586 24.75 21.25 24.414 21.25 24V19C21.25 18.586 21.586 18.25 22 18.25C22.414 18.25 22.75 18.586 22.75 19ZM18.75 19V24C18.75 24.414 18.414 24.75 18 24.75C17.586 24.75 17.25 24.414 17.25 24V19C17.25 18.586 17.586 18.25 18 18.25C18.414 18.25 18.75 18.586 18.75 19Z" fill="#FF1515"/>
</svg>
