<svg width="20" height="20" viewBox="0 0 20 20" fill="none" xmlns="http://www.w3.org/2000/svg">
<path d="M5.24447 10.5895C4.91863 10.2637 4.91863 9.73697 5.24447 9.41113C5.5703 9.0853 6.09702 9.0853 6.42285 9.41113L9.16699 12.1553V2.50033C9.16699 2.04033 9.53949 1.66699 10.0003 1.66699C10.4612 1.66699 10.8337 2.04033 10.8337 2.50033V12.1553L13.5778 9.41113C13.9036 9.0853 14.4304 9.0853 14.7562 9.41113C15.082 9.73697 15.082 10.2637 14.7562 10.5895L10.5903 14.7554C10.5128 14.8329 10.4212 14.8937 10.3187 14.9362C10.2171 14.9787 10.1087 15.0003 10.0003 15.0003C9.89199 15.0003 9.78359 14.9779 9.68193 14.9362C9.57943 14.8937 9.48782 14.8329 9.41032 14.7554L5.24447 10.5895ZM15.0003 16.667H5.00033C4.53949 16.667 4.16699 17.0403 4.16699 17.5003C4.16699 17.9603 4.53949 18.3337 5.00033 18.3337H15.0003C15.4612 18.3337 15.8337 17.9603 15.8337 17.5003C15.8337 17.0403 15.4612 16.667 15.0003 16.667Z" fill="white"/>
</svg>
