<svg width="20" height="20" viewBox="0 0 20 20" fill="none" xmlns="http://www.w3.org/2000/svg">
<path d="M13.3333 18.1259H5C2.985 18.1259 1.875 17.0159 1.875 15.0009V6.66758C1.875 4.65258 2.985 3.54258 5 3.54258H7.5C7.845 3.54258 8.125 3.82258 8.125 4.16758C8.125 4.51258 7.845 4.79258 7.5 4.79258H5C3.68583 4.79258 3.125 5.35342 3.125 6.66758V15.0009C3.125 16.3151 3.68583 16.8759 5 16.8759H13.3333C14.6475 16.8759 15.2083 16.3151 15.2083 15.0009V12.5009C15.2083 12.1559 15.4883 11.8759 15.8333 11.8759C16.1783 11.8759 16.4583 12.1559 16.4583 12.5009V15.0009C16.4583 17.0159 15.3483 18.1259 13.3333 18.1259ZM17.15 4.19258L15.8083 2.85093C15.3333 2.38426 14.575 2.38424 14.1 2.85924L12.975 3.99259L16.0084 7.02591L17.1417 5.9009C17.6167 5.4259 17.6167 4.66758 17.15 4.19258ZM12.0917 4.87592L6.66667 10.3259V13.3342H9.67499L15.125 7.90924L12.0917 4.87592Z" fill="#4584FF"/>
</svg>
