<svg width="20" height="21" viewBox="0 0 20 21" fill="none" xmlns="http://www.w3.org/2000/svg">
<path d="M13.3333 18.6249H5C2.985 18.6249 1.875 17.5149 1.875 15.4999V7.16661C1.875 5.15161 2.985 4.04161 5 4.04161H7.5C7.845 4.04161 8.125 4.32161 8.125 4.66661C8.125 5.01161 7.845 5.29161 7.5 5.29161H5C3.68583 5.29161 3.125 5.85244 3.125 7.16661V15.4999C3.125 16.8141 3.68583 17.3749 5 17.3749H13.3333C14.6475 17.3749 15.2083 16.8141 15.2083 15.4999V12.9999C15.2083 12.6549 15.4883 12.3749 15.8333 12.3749C16.1783 12.3749 16.4583 12.6549 16.4583 12.9999V15.4999C16.4583 17.5149 15.3483 18.6249 13.3333 18.6249ZM17.15 4.6916L15.8083 3.34995C15.3333 2.88328 14.575 2.88327 14.1 3.35827L12.975 4.49161L16.0084 7.52493L17.1417 6.39993C17.6167 5.92493 17.6167 5.1666 17.15 4.6916ZM12.0917 5.37494L6.66667 10.825V13.8333H9.67499L15.125 8.40826L12.0917 5.37494Z" fill="white"/>
</svg>
