<svg width="16" height="13" viewBox="0 0 16 13" fill="none" xmlns="http://www.w3.org/2000/svg">
<path d="M13 0.166992H3C1.33333 0.166992 0.5 1.00033 0.5 2.66699V10.167C0.5 11.8337 1.33333 12.667 3 12.667H13C14.6667 12.667 15.5 11.8337 15.5 10.167V2.66699C15.5 1.00033 14.6667 0.166992 13 0.166992ZM12.9508 4.00533L8.85754 6.98199C8.60088 7.16865 8.3 7.262 8 7.262C7.7 7.262 7.39829 7.16866 7.14246 6.98283L3.04923 4.00533C2.77007 3.80283 2.70837 3.41116 2.9117 3.13199C3.1142 2.85366 3.50325 2.79033 3.78491 2.9945L7.87834 5.97116C7.95167 6.02366 8.04914 6.02449 8.12248 5.97116L12.2159 2.9945C12.4967 2.79033 12.8866 2.85366 13.0891 3.13199C13.2924 3.41199 13.2299 3.80283 12.9508 4.00533Z" fill="#626262"/>
</svg>
