<svg width="16" height="12" viewBox="0 0 16 12" fill="none" xmlns="http://www.w3.org/2000/svg">
<path d="M10.2917 6.00033C10.2917 7.26449 9.2642 8.29199 8.00003 8.29199C6.73587 8.29199 5.70837 7.26449 5.70837 6.00033C5.70837 5.70949 5.7683 5.43363 5.86747 5.17696C6.02913 5.30529 6.22419 5.39364 6.44669 5.39364C6.96919 5.39364 7.39334 4.96948 7.39334 4.44698C7.39334 4.22448 7.305 4.02942 7.17667 3.86776C7.43334 3.76859 7.7092 3.70866 8.00003 3.70866C9.2642 3.70866 10.2917 4.73616 10.2917 6.00033ZM15.1601 7.2312C14.1376 8.94287 11.8409 11.8337 8.00003 11.8337C4.1592 11.8337 1.8625 8.94287 0.84 7.2312C0.386667 6.47287 0.386667 5.52778 0.84 4.76945C1.8625 3.05778 4.1592 0.166992 8.00003 0.166992C11.8409 0.166992 14.1376 3.05778 15.1601 4.76945C15.6134 5.52778 15.6134 6.47287 15.1601 7.2312ZM11.5417 6.00033C11.5417 4.04783 9.95337 2.45866 8.00003 2.45866C6.0467 2.45866 4.45837 4.04783 4.45837 6.00033C4.45837 7.95283 6.0467 9.54199 8.00003 9.54199C9.95337 9.54199 11.5417 7.95283 11.5417 6.00033Z" fill="#626262"/>
</svg>
