<svg width="32" height="32" viewBox="0 0 32 32" fill="none" xmlns="http://www.w3.org/2000/svg">
<path d="M25.666 11H22.666C20.5593 11 19.666 10.1067 19.666 8V5L25.666 11ZM26.666 13V24C26.666 26.6667 25.3327 28 22.666 28H10.666C7.99935 28 6.66602 26.6667 6.66602 24V8C6.66602 5.33333 7.99935 4 10.666 4H17.666V8C17.666 11.2267 19.4393 13 22.666 13H26.666ZM18.3327 21.3333C18.3327 20.7813 17.8847 20.3333 17.3327 20.3333H11.9993C11.4473 20.3333 10.9993 20.7813 10.9993 21.3333C10.9993 21.8853 11.4473 22.3333 11.9993 22.3333H17.3327C17.8847 22.3333 18.3327 21.8853 18.3327 21.3333ZM22.3327 16C22.3327 15.448 21.8847 15 21.3327 15H11.9993C11.4473 15 10.9993 15.448 10.9993 16C10.9993 16.552 11.4473 17 11.9993 17H21.3327C21.8847 17 22.3327 16.552 22.3327 16Z" fill="#626262"/>
</svg>
