<svg width="80" height="80" viewBox="0 0 80 80" fill="none" xmlns="http://www.w3.org/2000/svg">
<rect width="80" height="80" rx="40" fill="white"/>
<path d="M60.896 31.2155L58.4961 48.3776C58.1821 50.5636 57.3279 52.1156 55.9819 53.0016C55.5159 53.2416 55.0061 52.9998 55.0061 52.5138V35.3317C55.0061 30.1137 51.8901 26.9977 46.6721 26.9977C46.6721 26.9977 28.4479 26.9977 27.8479 26.9977C27.2479 26.9977 27.2339 26.4574 27.2759 26.2174C27.5919 24.3254 28.34 22.9254 29.5 22.0514C30.714 21.1374 32.354 20.8196 34.384 21.1056L55.5061 24.0656C57.5401 24.3536 59.0359 25.1157 59.9519 26.3317C60.8659 27.5457 61.184 29.1895 60.896 31.2155ZM52.0061 35.3297V52.6657C52.0061 56.2217 50.2281 57.9997 46.6721 57.9997H25.3359C21.7799 57.9997 20.002 56.2217 20.002 52.6657V35.3297C20.002 31.7737 21.7799 29.9957 25.3359 29.9957H46.6721C50.2281 29.9957 52.0061 31.7717 52.0061 35.3297ZM23 35.3297V49.6857L25.866 46.8195C26.546 46.1195 27.686 46.1195 28.386 46.8195L30.0459 48.4796C30.3859 48.8196 30.9659 48.8196 31.3059 48.4796L40.0859 39.6998C40.7659 39.0198 41.906 39.0198 42.606 39.6998L49.0061 46.1159V35.3297C49.0061 33.4317 48.5701 32.9957 46.6721 32.9957H25.3359C23.4359 32.9957 23 33.4317 23 35.3297ZM29.0039 40.9997C30.1059 40.9997 31 40.1037 31 38.9997C31 37.8957 30.1059 36.9997 29.0039 36.9997H28.988C27.886 36.9997 27 37.8957 27 38.9997C27 40.1037 27.9019 40.9997 29.0039 40.9997Z" fill="#4584FF"/>
</svg>
