<svg width="40" height="40" viewBox="0 0 40 40" fill="none" xmlns="http://www.w3.org/2000/svg">
<rect width="40" height="40" rx="20" fill="#F5F6F7"/>
<path d="M29.75 21.616V26C29.75 28.418 28.418 29.75 26 29.75H14C11.582 29.75 10.25 28.418 10.25 26V21.616C10.25 21.107 10.352 20.611 10.553 20.14L12.532 15.523C13.033 14.354 13.506 13.25 15.979 13.25C16.393 13.25 16.729 13.586 16.729 14C16.729 14.414 16.393 14.75 15.979 14.75C14.495 14.75 14.3599 15.066 13.9109 16.114L12.031 20.5H14.9561C16.1161 20.5 17.195 21.159 17.842 22.263C18.288 23.026 19.115 23.5 20.001 23.5C20.887 23.5 21.7139 23.026 22.1599 22.263C22.8059 21.159 23.8859 20.5 25.0459 20.5H27.9719L26.0911 16.114C25.6421 15.066 25.5069 14.75 24.0229 14.75C23.6089 14.75 23.2729 14.414 23.2729 14C23.2729 13.586 23.6089 13.25 24.0229 13.25C26.4969 13.25 26.969 14.354 27.47 15.523L29.449 20.139C29.648 20.61 29.75 21.107 29.75 21.616ZM19.47 18.53C19.539 18.599 19.6221 18.654 19.7141 18.692C19.8061 18.73 19.903 18.75 20.001 18.75C20.099 18.75 20.1961 18.73 20.2881 18.692C20.3801 18.654 20.463 18.599 20.532 18.53L22.532 16.53C22.825 16.237 22.825 15.762 22.532 15.469C22.239 15.176 21.7639 15.176 21.4709 15.469L20.751 16.189V10C20.751 9.586 20.415 9.25 20.001 9.25C19.587 9.25 19.251 9.586 19.251 10V16.189L18.531 15.469C18.238 15.176 17.763 15.176 17.47 15.469C17.177 15.762 17.177 16.237 17.47 16.53L19.47 18.53Z" fill="#091731"/>
</svg>
