<svg width="20" height="20" viewBox="0 0 20 20" fill="none" xmlns="http://www.w3.org/2000/svg">
<path d="M9.99935 2.08301C6.09352 2.08301 2.91602 5.26051 2.91602 9.16634C2.91602 13.3188 6.77352 15.8671 9.32602 17.553L9.76768 17.8464C9.83768 17.893 9.91851 17.9163 9.99851 17.9163C10.0785 17.9163 10.1593 17.893 10.2293 17.8464L10.671 17.553C13.2235 15.8671 17.081 13.3188 17.081 9.16634C17.0827 5.26051 13.9052 2.08301 9.99935 2.08301ZM9.99935 11.2497C8.84852 11.2497 7.91602 10.3172 7.91602 9.16634C7.91602 8.01551 8.84852 7.08301 9.99935 7.08301C11.1502 7.08301 12.0827 8.01551 12.0827 9.16634C12.0827 10.3172 11.1502 11.2497 9.99935 11.2497Z" fill="#4584FF"/>
</svg>
