<svg width="20" height="20" viewBox="0 0 20 20" fill="none" xmlns="http://www.w3.org/2000/svg">
<path d="M15 4.16699H5C3.33333 4.16699 2.5 5.00033 2.5 6.66699V14.167C2.5 15.8337 3.33333 16.667 5 16.667H15C16.6667 16.667 17.5 15.8337 17.5 14.167V6.66699C17.5 5.00033 16.6667 4.16699 15 4.16699ZM14.9508 8.00533L10.8575 10.982C10.6009 11.1687 10.3 11.262 10 11.262C9.7 11.262 9.39829 11.1687 9.14246 10.9828L5.04923 8.00533C4.77007 7.80283 4.70837 7.41116 4.9117 7.13199C5.1142 6.85366 5.50325 6.79033 5.78491 6.9945L9.87834 9.97116C9.95167 10.0237 10.0491 10.0245 10.1225 9.97116L14.2159 6.9945C14.4967 6.79033 14.8866 6.85366 15.0891 7.13199C15.2924 7.41199 15.2299 7.80283 14.9508 8.00533Z" fill="#4584FF"/>
</svg>
