<svg width="20" height="20" viewBox="0 0 20 20" fill="none" xmlns="http://www.w3.org/2000/svg">
<path d="M15.833 9.16634H10.833V4.16634C10.833 3.70634 10.4597 3.33301 9.99967 3.33301C9.53967 3.33301 9.16634 3.70634 9.16634 4.16634V9.16634H4.16634C3.70634 9.16634 3.33301 9.53967 3.33301 9.99967C3.33301 10.4597 3.70634 10.833 4.16634 10.833H9.16634V15.833C9.16634 16.293 9.53967 16.6663 9.99967 16.6663C10.4597 16.6663 10.833 16.293 10.833 15.833V10.833H15.833C16.293 10.833 16.6663 10.4597 16.6663 9.99967C16.6663 9.53967 16.293 9.16634 15.833 9.16634Z" fill="#4584FF"/>
</svg>
