<svg width="21" height="20" viewBox="0 0 21 20" fill="none" xmlns="http://www.w3.org/2000/svg">
<path d="M15.5 5.83333H15.2917V4.16667C15.2917 4.00083 15.2259 3.84164 15.1084 3.72498L13.4417 2.05831C13.3242 1.94081 13.1658 1.875 13 1.875H7.16667C6.3625 1.875 5.70833 2.52917 5.70833 3.33333V5.83333H5.5C3.83333 5.83333 3 6.66667 3 8.33333V12.9167C3 13.6083 3.55833 14.1667 4.25 14.1667H5.70833V16.6667C5.70833 17.4667 6.36667 18.125 7.16667 18.125H13.8333C14.6333 18.125 15.2917 17.4667 15.2917 16.6667V14.1667H16.75C17.4417 14.1667 18 13.6083 18 12.9167V8.33333C18 6.66667 17.1667 5.83333 15.5 5.83333ZM6.95833 3.33333C6.95833 3.21833 7.05167 3.125 7.16667 3.125H12.7408L14.0417 4.42586V5.83333H6.95833V3.33333ZM14.0417 16.6667C14.0417 16.7833 13.95 16.875 13.8333 16.875H7.16667C7.05 16.875 6.95833 16.7833 6.95833 16.6667V14.1667V13.125H14.0417V14.1667V16.6667ZM14.6667 10C14.2067 10 13.8333 9.62667 13.8333 9.16667C13.8333 8.70667 14.2067 8.33333 14.6667 8.33333C15.1267 8.33333 15.5 8.70667 15.5 9.16667C15.5 9.62667 15.1267 10 14.6667 10Z" fill="#4584FF"/>
</svg>
