<svg width="24" height="24" viewBox="0 0 24 24" fill="none" xmlns="http://www.w3.org/2000/svg">
<path d="M22.0008 13.0003V18.0003C22.0008 18.5523 21.5538 19.0003 21.0008 19.0003C20.4478 19.0003 20.0008 18.5523 20.0008 18.0003V13.0003C20.0008 11.8973 19.1038 11.0003 18.0008 11.0003H5.41486L7.70783 13.2933C8.09883 13.6842 8.09883 14.3163 7.70783 14.7073C7.51283 14.9023 7.2568 15.0003 7.0008 15.0003C6.7448 15.0003 6.48877 14.9023 6.29377 14.7073L2.29474 10.7083C2.20174 10.6153 2.1287 10.5054 2.0777 10.3824C1.9767 10.1384 1.9767 9.8622 2.0777 9.6182C2.1287 9.4952 2.20174 9.38527 2.29474 9.29227L6.29377 5.29325C6.68477 4.90225 7.31683 4.90225 7.70783 5.29325C8.09883 5.68425 8.09883 6.31631 7.70783 6.70731L5.41486 9.00028H18.0008C20.2068 9.00028 22.0008 10.7943 22.0008 13.0003Z" fill="#626262"/>
</svg>
