<svg width="20" height="20" viewBox="0 0 20 20" fill="none" xmlns="http://www.w3.org/2000/svg">
<path d="M10.8005 3.82891L12.4189 7.09307C12.5406 7.3389 12.7756 7.50892 13.0481 7.54808L16.7838 8.08804C17.4688 8.18721 17.7422 9.02722 17.2464 9.50889L14.5456 12.1297C14.3481 12.3214 14.258 12.5972 14.3047 12.8681L14.9221 16.4547C15.0471 17.1822 14.283 17.7372 13.628 17.3947L10.388 15.6989C10.1447 15.5714 9.85469 15.5714 9.61219 15.6989L6.37468 17.3931C5.71885 17.7364 4.95216 17.1806 5.07799 16.4514L5.69556 12.8681C5.74223 12.5972 5.65218 12.3214 5.45468 12.1297L2.75387 9.50889C2.2572 9.02722 2.53048 8.18721 3.21631 8.08804L6.95217 7.54808C7.22384 7.50892 7.45885 7.3389 7.58135 7.09307L9.19969 3.82891C9.52553 3.16641 10.4722 3.16641 10.8005 3.82891Z" fill="#FF9900"/>
</svg>
