<svg width="12" height="17" viewBox="0 0 12 17" fill="none" xmlns="http://www.w3.org/2000/svg">
<path d="M9.33268 6.5H3.29102V4.83333C3.29102 4.11667 3.57431 3.43329 4.08264 2.91663C4.59931 2.40829 5.28268 2.125 5.99935 2.125C7.24102 2.125 8.31593 2.95828 8.61593 4.15828C8.70759 4.49162 9.04939 4.69165 9.37439 4.60832C9.71606 4.51665 9.9161 4.18338 9.83276 3.84172C9.38276 2.10005 7.80768 0.875 5.99935 0.875C4.94935 0.875 3.95759 1.28324 3.19926 2.03324C2.44926 2.79158 2.04102 3.78333 2.04102 4.83333V6.54842C0.792682 6.74259 0.166016 7.5575 0.166016 9V14C0.166016 15.6667 0.999349 16.5 2.66602 16.5H9.33268C10.9994 16.5 11.8327 15.6667 11.8327 14V9C11.8327 7.33333 10.9994 6.5 9.33268 6.5ZM6.62435 11.4892V13.1667C6.62435 13.5117 6.34435 13.7917 5.99935 13.7917C5.65435 13.7917 5.37435 13.5117 5.37435 13.1667V11.4683C5.13435 11.2774 4.97009 10.9958 4.97009 10.6667C4.97009 10.0917 5.43269 9.625 6.00769 9.625H6.01603C6.59103 9.625 7.0577 10.0917 7.0577 10.6667C7.0577 11.01 6.88018 11.3 6.62435 11.4892Z" fill="#626262"/>
</svg>
